<ttFont>
    <TTGlyph name="A" xMin="-24" yMin="0" xMax="550" yMax="690">
      <contour>
        <pt x="458" y="242" on="1"/>
        <pt x="140" y="242" on="1"/>
        <pt x="21" y="0" on="1"/>
        <pt x="-24" y="0" on="1"/>
        <pt x="313" y="678" on="1"/>
        <pt x="317" y="690" on="0"/>
        <pt x="331" y="690" on="1"/>
        <pt x="387" y="690" on="1"/>
        <pt x="402" y="690" on="0"/>
        <pt x="404" y="676" on="1"/>
        <pt x="550" y="0" on="1"/>
        <pt x="508" y="0" on="1"/>
      </contour>
      <contour>
        <pt x="450" y="279" on="1"/>
        <pt x="383" y="600" on="1"/>
        <pt x="382" y="607" on="0"/>
        <pt x="374" y="645" on="0"/>
        <pt x="372" y="656" on="1"/>
        <pt x="342" y="656" on="1"/>
        <pt x="315" y="599" on="1"/>
        <pt x="157" y="279" on="1"/>
      </contour>
    </TTGlyph>
    <TTGlyph name="AE" xMin="-33" yMin="0" xMax="906" yMax="690">
      <contour>
        <pt x="901" y="655" on="1"/>
        <pt x="636" y="655" on="1"/>
        <pt x="601" y="655" on="0"/>
        <pt x="552" y="612" on="0"/>
        <pt x="546" y="575" on="1"/>
        <pt x="520" y="385" on="1"/>
        <pt x="822" y="385" on="1"/>
        <pt x="817" y="351" on="1"/>
        <pt x="515" y="351" on="1"/>
        <pt x="482" y="112" on="1"/>
        <pt x="477" y="77" on="0"/>
        <pt x="512" y="35" on="0"/>
        <pt x="547" y="35" on="1"/>
        <pt x="814" y="35" on="1"/>
        <pt x="812" y="4" on="1"/>
        <pt x="720" y="0" on="0"/>
        <pt x="539" y="0" on="1"/>
        <pt x="489" y="0" on="0"/>
        <pt x="435" y="63" on="0"/>
        <pt x="442" y="112" on="1"/>
        <pt x="463" y="260" on="1"/>
        <pt x="216" y="260" on="1"/>
        <pt x="13" y="0" on="1"/>
        <pt x="-33" y="0" on="1"/>
        <pt x="435" y="600" on="1"/>
        <pt x="478" y="654" on="0"/>
        <pt x="562" y="690" on="0"/>
        <pt x="626" y="690" on="1"/>
        <pt x="803" y="690" on="0"/>
        <pt x="906" y="686" on="1"/>
      </contour>
      <contour>
        <pt x="468" y="295" on="1"/>
        <pt x="508" y="581" on="1"/>
        <pt x="510" y="604" on="0"/>
        <pt x="539" y="648" on="0"/>
        <pt x="556" y="655" on="1"/>
        <pt x="552" y="655" on="1"/>
        <pt x="511" y="639" on="0"/>
        <pt x="469" y="584" on="1"/>
        <pt x="244" y="295" on="1"/>
      </contour>
    </TTGlyph>
    <TTGlyph name="Aacute" xMin="-24" yMin="0" xMax="550" yMax="901">
      <contour>
        <pt x="333" y="734" on="1"/>
        <pt x="316" y="755" on="1"/>
        <pt x="491" y="901" on="1"/>
        <pt x="514" y="870" on="1"/>
      </contour>
      <contour>
        <pt x="458" y="242" on="1"/>
        <pt x="140" y="242" on="1"/>
        <pt x="21" y="0" on="1"/>
        <pt x="-24" y="0" on="1"/>
        <pt x="313" y="678" on="1"/>
        <pt x="317" y="690" on="0"/>
        <pt x="331" y="690" on="1"/>
        <pt x="387" y="690" on="1"/>
        <pt x="402" y="690" on="0"/>
        <pt x="404" y="676" on="1"/>
        <pt x="550" y="0" on="1"/>
        <pt x="508" y="0" on="1"/>
      </contour>
      <contour>
        <pt x="450" y="279" on="1"/>
        <pt x="383" y="600" on="1"/>
        <pt x="382" y="607" on="0"/>
        <pt x="374" y="645" on="0"/>
        <pt x="372" y="656" on="1"/>
        <pt x="342" y="656" on="1"/>
        <pt x="315" y="599" on="1"/>
        <pt x="157" y="279" on="1"/>
      </contour>
    </TTGlyph>
    <TTGlyph name="Abreve" xMin="-24" yMin="0" xMax="550" yMax="877">
      <contour>
        <pt x="501" y="877" on="1"/>
        <pt x="525" y="870" on="1"/>
        <pt x="518" y="815" on="0"/>
        <pt x="436" y="753" on="0"/>
        <pt x="372" y="753" on="1"/>
        <pt x="305" y="753" on="0"/>
        <pt x="237" y="818" on="0"/>
        <pt x="246" y="872" on="1"/>
        <pt x="270" y="875" on="1"/>
        <pt x="264" y="833" on="0"/>
        <pt x="319" y="787" on="0"/>
        <pt x="372" y="787" on="1"/>
        <pt x="426" y="787" on="0"/>
        <pt x="496" y="835" on="0"/>
      </contour>
      <contour>
        <pt x="458" y="242" on="1"/>
        <pt x="140" y="242" on="1"/>
        <pt x="21" y="0" on="1"/>
        <pt x="-24" y="0" on="1"/>
        <pt x="313" y="678" on="1"/>
        <pt x="317" y="690" on="0"/>
        <pt x="331" y="690" on="1"/>
        <pt x="387" y="690" on="1"/>
        <pt x="402" y="690" on="0"/>
        <pt x="404" y="676" on="1"/>
        <pt x="550" y="0" on="1"/>
        <pt x="508" y="0" on="1"/>
      </contour>
      <contour>
        <pt x="450" y="279" on="1"/>
        <pt x="383" y="600" on="1"/>
        <pt x="382" y="607" on="0"/>
        <pt x="374" y="645" on="0"/>
        <pt x="372" y="656" on="1"/>
        <pt x="342" y="656" on="1"/>
        <pt x="315" y="599" on="1"/>
        <pt x="157" y="279" on="1"/>
      </contour>
    </TTGlyph>
    <TTGlyph name="Acircumflex" xMin="-24" yMin="0" xMax="550" yMax="884">
      <contour>
        <pt x="234" y="745" on="1"/>
        <pt x="221" y="765" on="1"/>
        <pt x="372" y="884" on="1"/>
        <pt x="401" y="884" on="1"/>
        <pt x="522" y="763" on="1"/>
        <pt x="505" y="746" on="1"/>
        <pt x="389" y="847" on="1"/>
        <pt x="380" y="847" on="1"/>
      </contour>
      <contour>
        <pt x="458" y="242" on="1"/>
        <pt x="140" y="242" on="1"/>
        <pt x="21" y="0" on="1"/>
        <pt x="-24" y="0" on="1"/>
        <pt x="313" y="678" on="1"/>
        <pt x="317" y="690" on="0"/>
        <pt x="331" y="690" on="1"/>
        <pt x="387" y="690" on="1"/>
        <pt x="402" y="690" on="0"/>
        <pt x="404" y="676" on="1"/>
        <pt x="550" y="0" on="1"/>
        <pt x="508" y="0" on="1"/>
      </contour>
      <contour>
        <pt x="450" y="279" on="1"/>
        <pt x="383" y="600" on="1"/>
        <pt x="382" y="607" on="0"/>
        <pt x="374" y="645" on="0"/>
        <pt x="372" y="656" on="1"/>
        <pt x="342" y="656" on="1"/>
        <pt x="315" y="599" on="1"/>
        <pt x="157" y="279" on="1"/>
      </contour>
    </TTGlyph>
    <TTGlyph name="Adieresis" xMin="-24" yMin="0" xMax="550" yMax="860">
      <contour>
        <pt x="291" y="775" on="1"/>
        <pt x="279" y="775" on="1"/>
        <pt x="265" y="775" on="0"/>
        <pt x="266" y="790" on="1"/>
        <pt x="274" y="844" on="1"/>
        <pt x="275" y="860" on="0"/>
        <pt x="290" y="860" on="1"/>
        <pt x="304" y="860" on="1"/>
        <pt x="317" y="860" on="0"/>
        <pt x="316" y="844" on="1"/>
        <pt x="308" y="791" on="1"/>
        <pt x="307" y="775" on="0"/>
      </contour>
      <contour>
        <pt x="466" y="775" on="1"/>
        <pt x="454" y="775" on="1"/>
        <pt x="440" y="775" on="0"/>
        <pt x="441" y="790" on="1"/>
        <pt x="449" y="844" on="1"/>
        <pt x="450" y="860" on="0"/>
        <pt x="465" y="860" on="1"/>
        <pt x="479" y="860" on="1"/>
        <pt x="492" y="860" on="0"/>
        <pt x="491" y="844" on="1"/>
        <pt x="483" y="791" on="1"/>
        <pt x="482" y="775" on="0"/>
      </contour>
      <contour>
        <pt x="458" y="242" on="1"/>
        <pt x="140" y="242" on="1"/>
        <pt x="21" y="0" on="1"/>
        <pt x="-24" y="0" on="1"/>
        <pt x="313" y="678" on="1"/>
        <pt x="317" y="690" on="0"/>
        <pt x="331" y="690" on="1"/>
        <pt x="387" y="690" on="1"/>
        <pt x="402" y="690" on="0"/>
        <pt x="404" y="676" on="1"/>
        <pt x="550" y="0" on="1"/>
        <pt x="508" y="0" on="1"/>
      </contour>
      <contour>
        <pt x="450" y="279" on="1"/>
        <pt x="383" y="600" on="1"/>
        <pt x="382" y="607" on="0"/>
        <pt x="374" y="645" on="0"/>
        <pt x="372" y="656" on="1"/>
        <pt x="342" y="656" on="1"/>
        <pt x="315" y="599" on="1"/>
        <pt x="157" y="279" on="1"/>
      </contour>
    </TTGlyph>
    <TTGlyph name="Agrave" xMin="-24" yMin="0" xMax="550" yMax="900">
      <contour>
        <pt x="392" y="734" on="1"/>
        <pt x="245" y="871" on="1"/>
        <pt x="271" y="900" on="1"/>
        <pt x="410" y="753" on="1"/>
      </contour>
      <contour>
        <pt x="458" y="242" on="1"/>
        <pt x="140" y="242" on="1"/>
        <pt x="21" y="0" on="1"/>
        <pt x="-24" y="0" on="1"/>
        <pt x="313" y="678" on="1"/>
        <pt x="317" y="690" on="0"/>
        <pt x="331" y="690" on="1"/>
        <pt x="387" y="690" on="1"/>
        <pt x="402" y="690" on="0"/>
        <pt x="404" y="676" on="1"/>
        <pt x="550" y="0" on="1"/>
        <pt x="508" y="0" on="1"/>
      </contour>
      <contour>
        <pt x="450" y="279" on="1"/>
        <pt x="383" y="600" on="1"/>
        <pt x="382" y="607" on="0"/>
        <pt x="374" y="645" on="0"/>
        <pt x="372" y="656" on="1"/>
        <pt x="342" y="656" on="1"/>
        <pt x="315" y="599" on="1"/>
        <pt x="157" y="279" on="1"/>
      </contour>
    </TTGlyph>
    <TTGlyph name="Amacron" xMin="-24" yMin="0" xMax="550" yMax="833">
      <contour>
        <pt x="509" y="799" on="1"/>
        <pt x="244" y="799" on="1"/>
        <pt x="248" y="833" on="1"/>
        <pt x="513" y="833" on="1"/>
      </contour>
      <contour>
        <pt x="458" y="242" on="1"/>
        <pt x="140" y="242" on="1"/>
        <pt x="21" y="0" on="1"/>
        <pt x="-24" y="0" on="1"/>
        <pt x="313" y="678" on="1"/>
        <pt x="317" y="690" on="0"/>
        <pt x="331" y="690" on="1"/>
        <pt x="387" y="690" on="1"/>
        <pt x="402" y="690" on="0"/>
        <pt x="404" y="676" on="1"/>
        <pt x="550" y="0" on="1"/>
        <pt x="508" y="0" on="1"/>
      </contour>
      <contour>
        <pt x="450" y="279" on="1"/>
        <pt x="383" y="600" on="1"/>
        <pt x="382" y="607" on="0"/>
        <pt x="374" y="645" on="0"/>
        <pt x="372" y="656" on="1"/>
        <pt x="342" y="656" on="1"/>
        <pt x="315" y="599" on="1"/>
        <pt x="157" y="279" on="1"/>
      </contour>
    </TTGlyph>
    <TTGlyph name="Aogonek" xMin="-24" yMin="-201" xMax="550" yMax="690">
      <contour>
        <pt x="404" y="676" on="1"/>
        <pt x="550" y="0" on="1"/>
        <pt x="480" y="-64" on="0"/>
        <pt x="450" y="-125" on="1"/>
        <pt x="428" y="-168" on="0"/>
        <pt x="473" y="-195" on="0"/>
        <pt x="530" y="-176" on="1"/>
        <pt x="535" y="-194" on="1"/>
        <pt x="450" y="-226" on="0"/>
        <pt x="390" y="-176" on="0"/>
        <pt x="418" y="-120" on="1"/>
        <pt x="446" y="-62" on="0"/>
        <pt x="525" y="0" on="1"/>
        <pt x="508" y="0" on="1"/>
        <pt x="458" y="242" on="1"/>
        <pt x="140" y="242" on="1"/>
        <pt x="21" y="0" on="1"/>
        <pt x="-24" y="0" on="1"/>
        <pt x="313" y="678" on="1"/>
        <pt x="317" y="690" on="0"/>
        <pt x="331" y="690" on="1"/>
        <pt x="387" y="690" on="1"/>
        <pt x="402" y="690" on="0"/>
      </contour>
      <contour>
        <pt x="450" y="279" on="1"/>
        <pt x="383" y="600" on="1"/>
        <pt x="382" y="607" on="0"/>
        <pt x="374" y="645" on="0"/>
        <pt x="372" y="656" on="1"/>
        <pt x="342" y="656" on="1"/>
        <pt x="315" y="599" on="1"/>
        <pt x="157" y="279" on="1"/>
      </contour>
    </TTGlyph>
    <TTGlyph name="Aring" xMin="-24" yMin="0" xMax="550" yMax="913">
      <contour>
        <pt x="370" y="718" on="1"/>
        <pt x="326" y="718" on="0"/>
        <pt x="275" y="776" on="0"/>
        <pt x="280" y="818" on="1"/>
        <pt x="285" y="857" on="0"/>
        <pt x="343" y="913" on="0"/>
        <pt x="386" y="913" on="1"/>
        <pt x="430" y="913" on="0"/>
        <pt x="482" y="855" on="0"/>
        <pt x="477" y="813" on="1"/>
        <pt x="472" y="774" on="0"/>
        <pt x="413" y="718" on="0"/>
      </contour>
      <contour>
        <pt x="307" y="814" on="1"/>
        <pt x="304" y="783" on="0"/>
        <pt x="339" y="743" on="0"/>
        <pt x="401" y="743" on="0"/>
        <pt x="445" y="786" on="0"/>
        <pt x="449" y="817" on="1"/>
        <pt x="453" y="847" on="0"/>
        <pt x="418" y="888" on="0"/>
        <pt x="386" y="888" on="1"/>
        <pt x="355" y="888" on="0"/>
        <pt x="311" y="845" on="0"/>
      </contour>
      <contour>
        <pt x="458" y="242" on="1"/>
        <pt x="140" y="242" on="1"/>
        <pt x="21" y="0" on="1"/>
        <pt x="-24" y="0" on="1"/>
        <pt x="313" y="678" on="1"/>
        <pt x="317" y="690" on="0"/>
        <pt x="331" y="690" on="1"/>
        <pt x="387" y="690" on="1"/>
        <pt x="402" y="690" on="0"/>
        <pt x="404" y="676" on="1"/>
        <pt x="550" y="0" on="1"/>
        <pt x="508" y="0" on="1"/>
      </contour>
      <contour>
        <pt x="450" y="279" on="1"/>
        <pt x="383" y="600" on="1"/>
        <pt x="382" y="607" on="0"/>
        <pt x="374" y="645" on="0"/>
        <pt x="372" y="656" on="1"/>
        <pt x="342" y="656" on="1"/>
        <pt x="315" y="599" on="1"/>
        <pt x="157" y="279" on="1"/>
      </contour>
    </TTGlyph>
    <TTGlyph name="Atilde" xMin="-24" yMin="0" xMax="550" yMax="870">
      <contour>
        <pt x="511" y="866" on="1"/>
        <pt x="534" y="863" on="1"/>
        <pt x="530" y="817" on="0"/>
        <pt x="483" y="770" on="0"/>
        <pt x="448" y="773" on="1"/>
        <pt x="411" y="776" on="0"/>
        <pt x="335" y="835" on="0"/>
        <pt x="314" y="838" on="1"/>
        <pt x="284" y="841" on="0"/>
        <pt x="252" y="809" on="0"/>
        <pt x="247" y="773" on="1"/>
        <pt x="224" y="775" on="1"/>
        <pt x="228" y="823" on="0"/>
        <pt x="276" y="873" on="0"/>
        <pt x="311" y="870" on="1"/>
        <pt x="342" y="867" on="0"/>
        <pt x="417" y="807" on="0"/>
        <pt x="444" y="805" on="1"/>
        <pt x="502" y="799" on="0"/>
      </contour>
      <contour>
        <pt x="458" y="242" on="1"/>
        <pt x="140" y="242" on="1"/>
        <pt x="21" y="0" on="1"/>
        <pt x="-24" y="0" on="1"/>
        <pt x="313" y="678" on="1"/>
        <pt x="317" y="690" on="0"/>
        <pt x="331" y="690" on="1"/>
        <pt x="387" y="690" on="1"/>
        <pt x="402" y="690" on="0"/>
        <pt x="404" y="676" on="1"/>
        <pt x="550" y="0" on="1"/>
        <pt x="508" y="0" on="1"/>
      </contour>
      <contour>
        <pt x="450" y="279" on="1"/>
        <pt x="383" y="600" on="1"/>
        <pt x="382" y="607" on="0"/>
        <pt x="374" y="645" on="0"/>
        <pt x="372" y="656" on="1"/>
        <pt x="342" y="656" on="1"/>
        <pt x="315" y="599" on="1"/>
        <pt x="157" y="279" on="1"/>
      </contour>
    </TTGlyph>
    <TTGlyph name="B" xMin="58" yMin="-8" xMax="556" yMax="698">
      <contour>
        <pt x="58" y="0" on="1"/>
        <pt x="155" y="690" on="1"/>
        <pt x="228" y="698" on="0"/>
        <pt x="356" y="698" on="1"/>
        <pt x="481" y="698" on="0"/>
        <pt x="571" y="621" on="0"/>
        <pt x="556" y="516" on="1"/>
        <pt x="545" y="441" on="0"/>
        <pt x="480" y="366" on="0"/>
        <pt x="417" y="360" on="1"/>
        <pt x="417" y="356" on="1"/>
        <pt x="490" y="349" on="0"/>
        <pt x="541" y="256" on="0"/>
        <pt x="528" y="170" on="1"/>
        <pt x="513" y="65" on="0"/>
        <pt x="411" y="-8" on="0"/>
        <pt x="292" y="-8" on="1"/>
        <pt x="140" y="-8" on="0"/>
      </contour>
      <contour>
        <pt x="151" y="374" on="1"/>
        <pt x="329" y="374" on="1"/>
        <pt x="422" y="375" on="0"/>
        <pt x="503" y="434" on="0"/>
        <pt x="515" y="518" on="1"/>
        <pt x="527" y="604" on="0"/>
        <pt x="458" y="662" on="0"/>
        <pt x="355" y="662" on="1"/>
        <pt x="191" y="661" on="1"/>
      </contour>
      <contour>
        <pt x="146" y="341" on="1"/>
        <pt x="103" y="30" on="1"/>
        <pt x="181" y="28" on="0"/>
        <pt x="288" y="28" on="1"/>
        <pt x="389" y="28" on="0"/>
        <pt x="475" y="89" on="0"/>
        <pt x="487" y="178" on="1"/>
        <pt x="500" y="272" on="0"/>
        <pt x="431" y="339" on="0"/>
        <pt x="327" y="341" on="1"/>
      </contour>
    </TTGlyph>
    <TTGlyph name="C" xMin="79" yMin="-12" xMax="562" yMax="702">
      <contour>
        <pt x="478" y="38" on="1"/>
        <pt x="483" y="7" on="1"/>
        <pt x="401" y="-12" on="0"/>
        <pt x="291" y="-12" on="1"/>
        <pt x="147" y="-12" on="0"/>
        <pt x="51" y="151" on="0"/>
        <pt x="79" y="347" on="1"/>
        <pt x="107" y="544" on="0"/>
        <pt x="243" y="702" on="0"/>
        <pt x="385" y="702" on="1"/>
        <pt x="490" y="702" on="0"/>
        <pt x="562" y="684" on="1"/>
        <pt x="553" y="654" on="1"/>
        <pt x="476" y="665" on="0"/>
        <pt x="386" y="665" on="1"/>
        <pt x="261" y="665" on="0"/>
        <pt x="147" y="525" on="0"/>
        <pt x="121" y="343" on="1"/>
        <pt x="96" y="165" on="0"/>
        <pt x="170" y="25" on="0"/>
        <pt x="290" y="25" on="1"/>
        <pt x="400" y="25" on="0"/>
      </contour>
    </TTGlyph>
    <TTGlyph name="Cacute" xMin="79" yMin="-12" xMax="562" yMax="901">
      <contour>
        <pt x="530" y="870" on="1"/>
        <pt x="349" y="734" on="1"/>
        <pt x="332" y="755" on="1"/>
        <pt x="507" y="901" on="1"/>
      </contour>
      <contour>
        <pt x="478" y="38" on="1"/>
        <pt x="483" y="7" on="1"/>
        <pt x="401" y="-12" on="0"/>
        <pt x="291" y="-12" on="1"/>
        <pt x="147" y="-12" on="0"/>
        <pt x="51" y="151" on="0"/>
        <pt x="79" y="347" on="1"/>
        <pt x="107" y="544" on="0"/>
        <pt x="243" y="702" on="0"/>
        <pt x="385" y="702" on="1"/>
        <pt x="490" y="702" on="0"/>
        <pt x="562" y="684" on="1"/>
        <pt x="553" y="654" on="1"/>
        <pt x="476" y="665" on="0"/>
        <pt x="386" y="665" on="1"/>
        <pt x="261" y="665" on="0"/>
        <pt x="147" y="525" on="0"/>
        <pt x="121" y="343" on="1"/>
        <pt x="96" y="165" on="0"/>
        <pt x="170" y="25" on="0"/>
        <pt x="290" y="25" on="1"/>
        <pt x="400" y="25" on="0"/>
      </contour>
    </TTGlyph>
    <TTGlyph name="Ccaron" xMin="79" yMin="-12" xMax="562" yMax="887">
      <contour>
        <pt x="553" y="869" on="1"/>
        <pt x="400" y="749" on="1"/>
        <pt x="371" y="749" on="1"/>
        <pt x="252" y="870" on="1"/>
        <pt x="269" y="887" on="1"/>
        <pt x="384" y="786" on="1"/>
        <pt x="392" y="786" on="1"/>
        <pt x="538" y="887" on="1"/>
      </contour>
      <contour>
        <pt x="478" y="38" on="1"/>
        <pt x="483" y="7" on="1"/>
        <pt x="401" y="-12" on="0"/>
        <pt x="291" y="-12" on="1"/>
        <pt x="147" y="-12" on="0"/>
        <pt x="51" y="151" on="0"/>
        <pt x="79" y="347" on="1"/>
        <pt x="107" y="544" on="0"/>
        <pt x="243" y="702" on="0"/>
        <pt x="385" y="702" on="1"/>
        <pt x="490" y="702" on="0"/>
        <pt x="562" y="684" on="1"/>
        <pt x="553" y="654" on="1"/>
        <pt x="476" y="665" on="0"/>
        <pt x="386" y="665" on="1"/>
        <pt x="261" y="665" on="0"/>
        <pt x="147" y="525" on="0"/>
        <pt x="121" y="343" on="1"/>
        <pt x="96" y="165" on="0"/>
        <pt x="170" y="25" on="0"/>
        <pt x="290" y="25" on="1"/>
        <pt x="400" y="25" on="0"/>
      </contour>
    </TTGlyph>
    <TTGlyph name="Ccedilla" xMin="79" yMin="-234" xMax="562" yMax="702">
      <contour>
        <pt x="478" y="38" on="1"/>
        <pt x="483" y="7" on="1"/>
        <pt x="401" y="-12" on="0"/>
        <pt x="291" y="-12" on="1"/>
        <pt x="147" y="-12" on="0"/>
        <pt x="51" y="151" on="0"/>
        <pt x="79" y="347" on="1"/>
        <pt x="107" y="544" on="0"/>
        <pt x="243" y="702" on="0"/>
        <pt x="385" y="702" on="1"/>
        <pt x="490" y="702" on="0"/>
        <pt x="562" y="684" on="1"/>
        <pt x="553" y="654" on="1"/>
        <pt x="476" y="665" on="0"/>
        <pt x="386" y="665" on="1"/>
        <pt x="261" y="665" on="0"/>
        <pt x="147" y="525" on="0"/>
        <pt x="121" y="343" on="1"/>
        <pt x="96" y="165" on="0"/>
        <pt x="170" y="25" on="0"/>
        <pt x="290" y="25" on="1"/>
        <pt x="400" y="25" on="0"/>
      </contour>
      <contour>
        <pt x="240" y="-80" on="1"/>
        <pt x="245" y="-59" on="1"/>
        <pt x="337" y="-53" on="0"/>
        <pt x="324" y="-127" on="1"/>
        <pt x="316" y="-181" on="0"/>
        <pt x="227" y="-242" on="0"/>
        <pt x="163" y="-234" on="1"/>
        <pt x="171" y="-211" on="1"/>
        <pt x="219" y="-213" on="0"/>
        <pt x="287" y="-162" on="0"/>
        <pt x="293" y="-124" on="1"/>
        <pt x="296" y="-99" on="0"/>
        <pt x="274" y="-81" on="0"/>
      </contour>
    </TTGlyph>
    <TTGlyph name="Cdotaccent" xMin="79" yMin="-12" xMax="562" yMax="862">
      <contour>
        <pt x="392" y="862" on="1"/>
        <pt x="408" y="862" on="1"/>
        <pt x="424" y="862" on="0"/>
        <pt x="421" y="845" on="1"/>
        <pt x="413" y="786" on="1"/>
        <pt x="412" y="770" on="0"/>
        <pt x="396" y="770" on="1"/>
        <pt x="382" y="770" on="1"/>
        <pt x="365" y="770" on="0"/>
        <pt x="368" y="787" on="1"/>
        <pt x="376" y="846" on="1"/>
        <pt x="377" y="862" on="0"/>
      </contour>
      <contour>
        <pt x="478" y="38" on="1"/>
        <pt x="483" y="7" on="1"/>
        <pt x="401" y="-12" on="0"/>
        <pt x="291" y="-12" on="1"/>
        <pt x="147" y="-12" on="0"/>
        <pt x="51" y="151" on="0"/>
        <pt x="79" y="347" on="1"/>
        <pt x="107" y="544" on="0"/>
        <pt x="243" y="702" on="0"/>
        <pt x="385" y="702" on="1"/>
        <pt x="490" y="702" on="0"/>
        <pt x="562" y="684" on="1"/>
        <pt x="553" y="654" on="1"/>
        <pt x="476" y="665" on="0"/>
        <pt x="386" y="665" on="1"/>
        <pt x="261" y="665" on="0"/>
        <pt x="147" y="525" on="0"/>
        <pt x="121" y="343" on="1"/>
        <pt x="96" y="165" on="0"/>
        <pt x="170" y="25" on="0"/>
        <pt x="290" y="25" on="1"/>
        <pt x="400" y="25" on="0"/>
      </contour>
    </TTGlyph>
    <TTGlyph name="D" xMin="58" yMin="-9" xMax="595" yMax="699">
      <contour>
        <pt x="58" y="0" on="1"/>
        <pt x="155" y="690" on="1"/>
        <pt x="276" y="699" on="0"/>
        <pt x="383" y="699" on="1"/>
        <pt x="527" y="699" on="0"/>
        <pt x="622" y="540" on="0"/>
        <pt x="595" y="343" on="1"/>
        <pt x="567" y="141" on="0"/>
        <pt x="432" y="-9" on="0"/>
        <pt x="287" y="-9" on="1"/>
        <pt x="180" y="-9" on="0"/>
      </contour>
      <contour>
        <pt x="192" y="659" on="1"/>
        <pt x="103" y="31" on="1"/>
        <pt x="187" y="28" on="0"/>
        <pt x="286" y="28" on="1"/>
        <pt x="411" y="28" on="0"/>
        <pt x="527" y="164" on="0"/>
        <pt x="553" y="347" on="1"/>
        <pt x="578" y="526" on="0"/>
        <pt x="503" y="662" on="0"/>
        <pt x="382" y="662" on="1"/>
        <pt x="278" y="662" on="0"/>
      </contour>
    </TTGlyph>
    <TTGlyph name="Dcaron" xMin="58" yMin="-9" xMax="595" yMax="887">
      <contour>
        <pt x="366" y="749" on="1"/>
        <pt x="246" y="870" on="1"/>
        <pt x="263" y="887" on="1"/>
        <pt x="379" y="786" on="1"/>
        <pt x="387" y="786" on="1"/>
        <pt x="533" y="887" on="1"/>
        <pt x="548" y="869" on="1"/>
        <pt x="395" y="749" on="1"/>
      </contour>
      <contour>
        <pt x="58" y="0" on="1"/>
        <pt x="155" y="690" on="1"/>
        <pt x="276" y="699" on="0"/>
        <pt x="383" y="699" on="1"/>
        <pt x="527" y="699" on="0"/>
        <pt x="622" y="540" on="0"/>
        <pt x="595" y="343" on="1"/>
        <pt x="567" y="141" on="0"/>
        <pt x="432" y="-9" on="0"/>
        <pt x="287" y="-9" on="1"/>
        <pt x="180" y="-9" on="0"/>
      </contour>
      <contour>
        <pt x="192" y="659" on="1"/>
        <pt x="103" y="31" on="1"/>
        <pt x="187" y="28" on="0"/>
        <pt x="286" y="28" on="1"/>
        <pt x="411" y="28" on="0"/>
        <pt x="527" y="164" on="0"/>
        <pt x="553" y="347" on="1"/>
        <pt x="578" y="526" on="0"/>
        <pt x="503" y="662" on="0"/>
        <pt x="382" y="662" on="1"/>
        <pt x="278" y="662" on="0"/>
      </contour>
    </TTGlyph>
    <TTGlyph name="Dcroat" xMin="29" yMin="-9" xMax="595" yMax="699">
      <contour>
        <pt x="112" y="384" on="1"/>
        <pt x="155" y="690" on="1"/>
        <pt x="276" y="699" on="0"/>
        <pt x="383" y="699" on="1"/>
        <pt x="527" y="699" on="0"/>
        <pt x="622" y="540" on="0"/>
        <pt x="595" y="343" on="1"/>
        <pt x="567" y="141" on="0"/>
        <pt x="432" y="-9" on="0"/>
        <pt x="287" y="-9" on="1"/>
        <pt x="180" y="-9" on="0"/>
        <pt x="58" y="0" on="1"/>
        <pt x="108" y="356" on="1"/>
        <pt x="29" y="356" on="1"/>
        <pt x="33" y="384" on="1"/>
      </contour>
      <contour>
        <pt x="149" y="356" on="1"/>
        <pt x="103" y="31" on="1"/>
        <pt x="187" y="28" on="0"/>
        <pt x="286" y="28" on="1"/>
        <pt x="411" y="28" on="0"/>
        <pt x="527" y="164" on="0"/>
        <pt x="553" y="347" on="1"/>
        <pt x="578" y="526" on="0"/>
        <pt x="503" y="662" on="0"/>
        <pt x="382" y="662" on="1"/>
        <pt x="278" y="662" on="0"/>
        <pt x="192" y="659" on="1"/>
        <pt x="153" y="384" on="1"/>
        <pt x="326" y="384" on="1"/>
        <pt x="323" y="356" on="1"/>
      </contour>
    </TTGlyph>
    <TTGlyph name="Delta" xMin="-8" yMin="0" xMax="545" yMax="690">
      <contour>
        <pt x="545" y="26" on="1"/>
        <pt x="541" y="0" on="1"/>
        <pt x="-8" y="0" on="1"/>
        <pt x="-5" y="26" on="1"/>
        <pt x="342" y="690" on="1"/>
        <pt x="385" y="690" on="1"/>
      </contour>
      <contour>
        <pt x="501" y="35" on="1"/>
        <pt x="374" y="579" on="1"/>
        <pt x="372" y="587" on="0"/>
        <pt x="366" y="615" on="0"/>
        <pt x="361" y="638" on="0"/>
        <pt x="359" y="648" on="1"/>
        <pt x="353" y="634" on="0"/>
        <pt x="329" y="586" on="0"/>
        <pt x="325" y="576" on="1"/>
        <pt x="44" y="35" on="1"/>
      </contour>
    </TTGlyph>
    <TTGlyph name="E" xMin="67" yMin="0" xMax="551" yMax="690">
      <contour>
        <pt x="545" y="655" on="1"/>
        <pt x="262" y="655" on="1"/>
        <pt x="184" y="655" on="0"/>
        <pt x="173" y="575" on="1"/>
        <pt x="146" y="385" on="1"/>
        <pt x="467" y="385" on="1"/>
        <pt x="462" y="352" on="1"/>
        <pt x="142" y="352" on="1"/>
        <pt x="109" y="112" on="1"/>
        <pt x="104" y="77" on="0"/>
        <pt x="139" y="35" on="0"/>
        <pt x="174" y="35" on="1"/>
        <pt x="458" y="35" on="1"/>
        <pt x="458" y="4" on="1"/>
        <pt x="362" y="0" on="0"/>
        <pt x="167" y="0" on="1"/>
        <pt x="115" y="0" on="0"/>
        <pt x="59" y="62" on="0"/>
        <pt x="67" y="112" on="1"/>
        <pt x="133" y="585" on="1"/>
        <pt x="140" y="633" on="0"/>
        <pt x="204" y="690" on="0"/>
        <pt x="255" y="690" on="1"/>
        <pt x="454" y="690" on="0"/>
        <pt x="551" y="686" on="1"/>
      </contour>
    </TTGlyph>
    <TTGlyph name="Eacute" xMin="67" yMin="0" xMax="551" yMax="925">
      <contour>
        <pt x="334" y="758" on="1"/>
        <pt x="317" y="778" on="1"/>
        <pt x="492" y="925" on="1"/>
        <pt x="515" y="894" on="1"/>
      </contour>
      <contour>
        <pt x="545" y="655" on="1"/>
        <pt x="262" y="655" on="1"/>
        <pt x="184" y="655" on="0"/>
        <pt x="173" y="575" on="1"/>
        <pt x="146" y="385" on="1"/>
        <pt x="467" y="385" on="1"/>
        <pt x="462" y="352" on="1"/>
        <pt x="142" y="352" on="1"/>
        <pt x="109" y="112" on="1"/>
        <pt x="104" y="77" on="0"/>
        <pt x="139" y="35" on="0"/>
        <pt x="174" y="35" on="1"/>
        <pt x="458" y="35" on="1"/>
        <pt x="458" y="4" on="1"/>
        <pt x="362" y="0" on="0"/>
        <pt x="167" y="0" on="1"/>
        <pt x="115" y="0" on="0"/>
        <pt x="59" y="62" on="0"/>
        <pt x="67" y="112" on="1"/>
        <pt x="133" y="585" on="1"/>
        <pt x="140" y="633" on="0"/>
        <pt x="204" y="690" on="0"/>
        <pt x="255" y="690" on="1"/>
        <pt x="454" y="690" on="0"/>
        <pt x="551" y="686" on="1"/>
      </contour>
    </TTGlyph>
    <TTGlyph name="Ecaron" xMin="67" yMin="0" xMax="551" yMax="911">
      <contour>
        <pt x="356" y="773" on="1"/>
        <pt x="237" y="894" on="1"/>
        <pt x="254" y="911" on="1"/>
        <pt x="369" y="810" on="1"/>
        <pt x="377" y="810" on="1"/>
        <pt x="523" y="911" on="1"/>
        <pt x="538" y="893" on="1"/>
        <pt x="385" y="773" on="1"/>
      </contour>
      <contour>
        <pt x="545" y="655" on="1"/>
        <pt x="262" y="655" on="1"/>
        <pt x="184" y="655" on="0"/>
        <pt x="173" y="575" on="1"/>
        <pt x="146" y="385" on="1"/>
        <pt x="467" y="385" on="1"/>
        <pt x="462" y="352" on="1"/>
        <pt x="142" y="352" on="1"/>
        <pt x="109" y="112" on="1"/>
        <pt x="104" y="77" on="0"/>
        <pt x="139" y="35" on="0"/>
        <pt x="174" y="35" on="1"/>
        <pt x="458" y="35" on="1"/>
        <pt x="458" y="4" on="1"/>
        <pt x="362" y="0" on="0"/>
        <pt x="167" y="0" on="1"/>
        <pt x="115" y="0" on="0"/>
        <pt x="59" y="62" on="0"/>
        <pt x="67" y="112" on="1"/>
        <pt x="133" y="585" on="1"/>
        <pt x="140" y="633" on="0"/>
        <pt x="204" y="690" on="0"/>
        <pt x="255" y="690" on="1"/>
        <pt x="454" y="690" on="0"/>
        <pt x="551" y="686" on="1"/>
      </contour>
    </TTGlyph>
    <TTGlyph name="Ecircumflex" xMin="67" yMin="0" xMax="551" yMax="908">
      <contour>
        <pt x="235" y="769" on="1"/>
        <pt x="221" y="788" on="1"/>
        <pt x="372" y="908" on="1"/>
        <pt x="401" y="908" on="1"/>
        <pt x="523" y="787" on="1"/>
        <pt x="506" y="769" on="1"/>
        <pt x="390" y="871" on="1"/>
        <pt x="381" y="871" on="1"/>
      </contour>
      <contour>
        <pt x="545" y="655" on="1"/>
        <pt x="262" y="655" on="1"/>
        <pt x="184" y="655" on="0"/>
        <pt x="173" y="575" on="1"/>
        <pt x="146" y="385" on="1"/>
        <pt x="467" y="385" on="1"/>
        <pt x="462" y="352" on="1"/>
        <pt x="142" y="352" on="1"/>
        <pt x="109" y="112" on="1"/>
        <pt x="104" y="77" on="0"/>
        <pt x="139" y="35" on="0"/>
        <pt x="174" y="35" on="1"/>
        <pt x="458" y="35" on="1"/>
        <pt x="458" y="4" on="1"/>
        <pt x="362" y="0" on="0"/>
        <pt x="167" y="0" on="1"/>
        <pt x="115" y="0" on="0"/>
        <pt x="59" y="62" on="0"/>
        <pt x="67" y="112" on="1"/>
        <pt x="133" y="585" on="1"/>
        <pt x="140" y="633" on="0"/>
        <pt x="204" y="690" on="0"/>
        <pt x="255" y="690" on="1"/>
        <pt x="454" y="690" on="0"/>
        <pt x="551" y="686" on="1"/>
      </contour>
    </TTGlyph>
    <TTGlyph name="Edieresis" xMin="67" yMin="0" xMax="551" yMax="883">
      <contour>
        <pt x="292" y="799" on="1"/>
        <pt x="280" y="799" on="1"/>
        <pt x="264" y="799" on="0"/>
        <pt x="267" y="814" on="1"/>
        <pt x="275" y="868" on="1"/>
        <pt x="276" y="883" on="0"/>
        <pt x="291" y="883" on="1"/>
        <pt x="304" y="883" on="1"/>
        <pt x="318" y="883" on="0"/>
        <pt x="317" y="868" on="1"/>
        <pt x="308" y="815" on="1"/>
        <pt x="307" y="799" on="0"/>
      </contour>
      <contour>
        <pt x="467" y="799" on="1"/>
        <pt x="455" y="799" on="1"/>
        <pt x="439" y="799" on="0"/>
        <pt x="442" y="814" on="1"/>
        <pt x="450" y="868" on="1"/>
        <pt x="451" y="883" on="0"/>
        <pt x="466" y="883" on="1"/>
        <pt x="479" y="883" on="1"/>
        <pt x="493" y="883" on="0"/>
        <pt x="492" y="868" on="1"/>
        <pt x="483" y="815" on="1"/>
        <pt x="482" y="799" on="0"/>
      </contour>
      <contour>
        <pt x="545" y="655" on="1"/>
        <pt x="262" y="655" on="1"/>
        <pt x="184" y="655" on="0"/>
        <pt x="173" y="575" on="1"/>
        <pt x="146" y="385" on="1"/>
        <pt x="467" y="385" on="1"/>
        <pt x="462" y="352" on="1"/>
        <pt x="142" y="352" on="1"/>
        <pt x="109" y="112" on="1"/>
        <pt x="104" y="77" on="0"/>
        <pt x="139" y="35" on="0"/>
        <pt x="174" y="35" on="1"/>
        <pt x="458" y="35" on="1"/>
        <pt x="458" y="4" on="1"/>
        <pt x="362" y="0" on="0"/>
        <pt x="167" y="0" on="1"/>
        <pt x="115" y="0" on="0"/>
        <pt x="59" y="62" on="0"/>
        <pt x="67" y="112" on="1"/>
        <pt x="133" y="585" on="1"/>
        <pt x="140" y="633" on="0"/>
        <pt x="204" y="690" on="0"/>
        <pt x="255" y="690" on="1"/>
        <pt x="454" y="690" on="0"/>
        <pt x="551" y="686" on="1"/>
      </contour>
    </TTGlyph>
    <TTGlyph name="Edotaccent" xMin="67" yMin="0" xMax="551" yMax="886">
      <contour>
        <pt x="381" y="794" on="1"/>
        <pt x="367" y="794" on="1"/>
        <pt x="350" y="794" on="0"/>
        <pt x="353" y="811" on="1"/>
        <pt x="360" y="870" on="1"/>
        <pt x="363" y="886" on="0"/>
        <pt x="377" y="886" on="1"/>
        <pt x="392" y="886" on="1"/>
        <pt x="409" y="886" on="0"/>
        <pt x="406" y="869" on="1"/>
        <pt x="398" y="810" on="1"/>
        <pt x="397" y="794" on="0"/>
      </contour>
      <contour>
        <pt x="545" y="655" on="1"/>
        <pt x="262" y="655" on="1"/>
        <pt x="184" y="655" on="0"/>
        <pt x="173" y="575" on="1"/>
        <pt x="146" y="385" on="1"/>
        <pt x="467" y="385" on="1"/>
        <pt x="462" y="352" on="1"/>
        <pt x="142" y="352" on="1"/>
        <pt x="109" y="112" on="1"/>
        <pt x="104" y="77" on="0"/>
        <pt x="139" y="35" on="0"/>
        <pt x="174" y="35" on="1"/>
        <pt x="458" y="35" on="1"/>
        <pt x="458" y="4" on="1"/>
        <pt x="362" y="0" on="0"/>
        <pt x="167" y="0" on="1"/>
        <pt x="115" y="0" on="0"/>
        <pt x="59" y="62" on="0"/>
        <pt x="67" y="112" on="1"/>
        <pt x="133" y="585" on="1"/>
        <pt x="140" y="633" on="0"/>
        <pt x="204" y="690" on="0"/>
        <pt x="255" y="690" on="1"/>
        <pt x="454" y="690" on="0"/>
        <pt x="551" y="686" on="1"/>
      </contour>
    </TTGlyph>
    <TTGlyph name="Egrave" xMin="67" yMin="0" xMax="551" yMax="924">
      <contour>
        <pt x="392" y="758" on="1"/>
        <pt x="245" y="895" on="1"/>
        <pt x="271" y="924" on="1"/>
        <pt x="411" y="777" on="1"/>
      </contour>
      <contour>
        <pt x="545" y="655" on="1"/>
        <pt x="262" y="655" on="1"/>
        <pt x="184" y="655" on="0"/>
        <pt x="173" y="575" on="1"/>
        <pt x="146" y="385" on="1"/>
        <pt x="467" y="385" on="1"/>
        <pt x="462" y="352" on="1"/>
        <pt x="142" y="352" on="1"/>
        <pt x="109" y="112" on="1"/>
        <pt x="104" y="77" on="0"/>
        <pt x="139" y="35" on="0"/>
        <pt x="174" y="35" on="1"/>
        <pt x="458" y="35" on="1"/>
        <pt x="458" y="4" on="1"/>
        <pt x="362" y="0" on="0"/>
        <pt x="167" y="0" on="1"/>
        <pt x="115" y="0" on="0"/>
        <pt x="59" y="62" on="0"/>
        <pt x="67" y="112" on="1"/>
        <pt x="133" y="585" on="1"/>
        <pt x="140" y="633" on="0"/>
        <pt x="204" y="690" on="0"/>
        <pt x="255" y="690" on="1"/>
        <pt x="454" y="690" on="0"/>
        <pt x="551" y="686" on="1"/>
      </contour>
    </TTGlyph>
    <TTGlyph name="Emacron" xMin="67" yMin="0" xMax="551" yMax="857">
      <contour>
        <pt x="509" y="823" on="1"/>
        <pt x="244" y="823" on="1"/>
        <pt x="249" y="857" on="1"/>
        <pt x="514" y="857" on="1"/>
      </contour>
      <contour>
        <pt x="545" y="655" on="1"/>
        <pt x="262" y="655" on="1"/>
        <pt x="184" y="655" on="0"/>
        <pt x="173" y="575" on="1"/>
        <pt x="146" y="385" on="1"/>
        <pt x="467" y="385" on="1"/>
        <pt x="462" y="352" on="1"/>
        <pt x="142" y="352" on="1"/>
        <pt x="109" y="112" on="1"/>
        <pt x="104" y="77" on="0"/>
        <pt x="139" y="35" on="0"/>
        <pt x="174" y="35" on="1"/>
        <pt x="458" y="35" on="1"/>
        <pt x="458" y="4" on="1"/>
        <pt x="362" y="0" on="0"/>
        <pt x="167" y="0" on="1"/>
        <pt x="115" y="0" on="0"/>
        <pt x="59" y="62" on="0"/>
        <pt x="67" y="112" on="1"/>
        <pt x="133" y="585" on="1"/>
        <pt x="140" y="633" on="0"/>
        <pt x="204" y="690" on="0"/>
        <pt x="255" y="690" on="1"/>
        <pt x="454" y="690" on="0"/>
        <pt x="551" y="686" on="1"/>
      </contour>
    </TTGlyph>
    <TTGlyph name="Eng" xMin="58" yMin="-220" xMax="649" yMax="690">
      <contour>
        <pt x="649" y="690" on="1"/>
        <pt x="539" y="-97" on="1"/>
        <pt x="521" y="-222" on="0"/>
        <pt x="399" y="-220" on="1"/>
        <pt x="361" y="-220" on="0"/>
        <pt x="328" y="-213" on="1"/>
        <pt x="335" y="-187" on="1"/>
        <pt x="390" y="-187" on="1"/>
        <pt x="487" y="-187" on="0"/>
        <pt x="499" y="-92" on="1"/>
        <pt x="512" y="0" on="1"/>
        <pt x="483" y="0" on="1"/>
        <pt x="470" y="0" on="0"/>
        <pt x="464" y="16" on="1"/>
        <pt x="239" y="576" on="1"/>
        <pt x="219" y="627" on="0"/>
        <pt x="212" y="649" on="1"/>
        <pt x="189" y="649" on="1"/>
        <pt x="189" y="646" on="0"/>
        <pt x="180" y="576" on="1"/>
        <pt x="99" y="0" on="1"/>
        <pt x="58" y="0" on="1"/>
        <pt x="152" y="671" on="1"/>
        <pt x="155" y="690" on="0"/>
        <pt x="173" y="690" on="1"/>
        <pt x="219" y="690" on="1"/>
        <pt x="236" y="690" on="0"/>
        <pt x="242" y="673" on="1"/>
        <pt x="460" y="127" on="1"/>
        <pt x="465" y="114" on="0"/>
        <pt x="493" y="41" on="1"/>
        <pt x="518" y="41" on="1"/>
        <pt x="521" y="74" on="0"/>
        <pt x="529" y="129" on="1"/>
        <pt x="608" y="690" on="1"/>
      </contour>
    </TTGlyph>
    <TTGlyph name="Eogonek" xMin="67" yMin="-197" xMax="551" yMax="690">
      <contour>
        <pt x="545" y="655" on="1"/>
        <pt x="262" y="655" on="1"/>
        <pt x="184" y="655" on="0"/>
        <pt x="173" y="575" on="1"/>
        <pt x="146" y="385" on="1"/>
        <pt x="467" y="385" on="1"/>
        <pt x="462" y="352" on="1"/>
        <pt x="142" y="352" on="1"/>
        <pt x="109" y="112" on="1"/>
        <pt x="104" y="77" on="0"/>
        <pt x="139" y="35" on="0"/>
        <pt x="174" y="35" on="1"/>
        <pt x="458" y="35" on="1"/>
        <pt x="458" y="4" on="1"/>
        <pt x="388" y="-59" on="0"/>
        <pt x="357" y="-121" on="1"/>
        <pt x="335" y="-164" on="0"/>
        <pt x="380" y="-191" on="0"/>
        <pt x="438" y="-171" on="1"/>
        <pt x="442" y="-190" on="1"/>
        <pt x="358" y="-222" on="0"/>
        <pt x="298" y="-171" on="0"/>
        <pt x="325" y="-116" on="1"/>
        <pt x="356" y="-56" on="0"/>
        <pt x="430" y="3" on="1"/>
        <pt x="343" y="0" on="0"/>
        <pt x="167" y="0" on="1"/>
        <pt x="115" y="0" on="0"/>
        <pt x="59" y="62" on="0"/>
        <pt x="67" y="112" on="1"/>
        <pt x="133" y="585" on="1"/>
        <pt x="140" y="633" on="0"/>
        <pt x="204" y="690" on="0"/>
        <pt x="255" y="690" on="1"/>
        <pt x="454" y="690" on="0"/>
        <pt x="551" y="686" on="1"/>
      </contour>
    </TTGlyph>
    <TTGlyph name="Eth" xMin="29" yMin="-9" xMax="595" yMax="699">
      <contour>
        <pt x="112" y="384" on="1"/>
        <pt x="155" y="690" on="1"/>
        <pt x="276" y="699" on="0"/>
        <pt x="383" y="699" on="1"/>
        <pt x="527" y="699" on="0"/>
        <pt x="622" y="540" on="0"/>
        <pt x="595" y="343" on="1"/>
        <pt x="567" y="141" on="0"/>
        <pt x="432" y="-9" on="0"/>
        <pt x="287" y="-9" on="1"/>
        <pt x="180" y="-9" on="0"/>
        <pt x="58" y="0" on="1"/>
        <pt x="108" y="356" on="1"/>
        <pt x="29" y="356" on="1"/>
        <pt x="33" y="384" on="1"/>
      </contour>
      <contour>
        <pt x="149" y="356" on="1"/>
        <pt x="103" y="31" on="1"/>
        <pt x="187" y="28" on="0"/>
        <pt x="286" y="28" on="1"/>
        <pt x="411" y="28" on="0"/>
        <pt x="527" y="164" on="0"/>
        <pt x="553" y="347" on="1"/>
        <pt x="578" y="526" on="0"/>
        <pt x="503" y="662" on="0"/>
        <pt x="382" y="662" on="1"/>
        <pt x="278" y="662" on="0"/>
        <pt x="192" y="659" on="1"/>
        <pt x="153" y="384" on="1"/>
        <pt x="326" y="384" on="1"/>
        <pt x="323" y="356" on="1"/>
      </contour>
    </TTGlyph>
    <TTGlyph name="Euro" xMin="59" yMin="-12" xMax="629" yMax="702">
      <contour>
        <pt x="629" y="684" on="1"/>
        <pt x="620" y="653" on="1"/>
        <pt x="557" y="665" on="0"/>
        <pt x="485" y="665" on="1"/>
        <pt x="377" y="664" on="0"/>
        <pt x="252" y="564" on="0"/>
        <pt x="221" y="438" on="1"/>
        <pt x="502" y="438" on="1"/>
        <pt x="490" y="409" on="1"/>
        <pt x="214" y="409" on="1"/>
        <pt x="206" y="369" on="0"/>
        <pt x="203" y="342" on="1"/>
        <pt x="198" y="301" on="1"/>
        <pt x="449" y="301" on="1"/>
        <pt x="437" y="272" on="1"/>
        <pt x="195" y="272" on="1"/>
        <pt x="186" y="137" on="0"/>
        <pt x="277" y="26" on="0"/>
        <pt x="387" y="25" on="1"/>
        <pt x="475" y="25" on="0"/>
        <pt x="540" y="38" on="1"/>
        <pt x="545" y="7" on="1"/>
        <pt x="472" y="-12" on="0"/>
        <pt x="387" y="-12" on="1"/>
        <pt x="251" y="-12" on="0"/>
        <pt x="143" y="126" on="0"/>
        <pt x="153" y="272" on="1"/>
        <pt x="59" y="272" on="1"/>
        <pt x="63" y="301" on="1"/>
        <pt x="155" y="301" on="1"/>
        <pt x="159" y="331" on="0"/>
        <pt x="161" y="347" on="1"/>
        <pt x="163" y="360" on="0"/>
        <pt x="170" y="405" on="0"/>
        <pt x="171" y="409" on="1"/>
        <pt x="78" y="409" on="1"/>
        <pt x="83" y="438" on="1"/>
        <pt x="178" y="438" on="1"/>
        <pt x="210" y="577" on="0"/>
        <pt x="352" y="702" on="0"/>
        <pt x="484" y="702" on="1"/>
        <pt x="564" y="702" on="0"/>
      </contour>
    </TTGlyph>
    <TTGlyph name="F" xMin="55" yMin="0" xMax="547" yMax="690">
      <contour>
        <pt x="541" y="655" on="1"/>
        <pt x="268" y="655" on="1"/>
        <pt x="189" y="655" on="0"/>
        <pt x="177" y="575" on="1"/>
        <pt x="149" y="379" on="1"/>
        <pt x="462" y="379" on="1"/>
        <pt x="457" y="346" on="1"/>
        <pt x="145" y="346" on="1"/>
        <pt x="96" y="0" on="1"/>
        <pt x="55" y="0" on="1"/>
        <pt x="137" y="584" on="1"/>
        <pt x="145" y="634" on="0"/>
        <pt x="210" y="690" on="0"/>
        <pt x="259" y="690" on="1"/>
        <pt x="453" y="690" on="0"/>
        <pt x="547" y="685" on="1"/>
      </contour>
    </TTGlyph>
    <TTGlyph name="G" xMin="78" yMin="-12" xMax="586" yMax="702">
      <contour>
        <pt x="586" y="684" on="1"/>
        <pt x="577" y="654" on="1"/>
        <pt x="492" y="665" on="0"/>
        <pt x="393" y="665" on="1"/>
        <pt x="262" y="665" on="0"/>
        <pt x="146" y="527" on="0"/>
        <pt x="121" y="343" on="1"/>
        <pt x="99" y="169" on="0"/>
        <pt x="163" y="25" on="0"/>
        <pt x="264" y="25" on="1"/>
        <pt x="322" y="25" on="0"/>
        <pt x="422" y="85" on="0"/>
        <pt x="484" y="142" on="1"/>
        <pt x="520" y="400" on="1"/>
        <pt x="560" y="400" on="1"/>
        <pt x="503" y="0" on="1"/>
        <pt x="474" y="0" on="1"/>
        <pt x="482" y="104" on="1"/>
        <pt x="374" y="-12" on="0"/>
        <pt x="256" y="-12" on="1"/>
        <pt x="137" y="-12" on="0"/>
        <pt x="55" y="156" on="0"/>
        <pt x="78" y="347" on="1"/>
        <pt x="105" y="546" on="0"/>
        <pt x="246" y="702" on="0"/>
        <pt x="390" y="702" on="1"/>
        <pt x="504" y="702" on="0"/>
      </contour>
    </TTGlyph>
    <TTGlyph name="Gbreve" xMin="78" yMin="-12" xMax="586" yMax="877">
      <contour>
        <pt x="529" y="877" on="1"/>
        <pt x="552" y="870" on="1"/>
        <pt x="545" y="815" on="0"/>
        <pt x="464" y="753" on="0"/>
        <pt x="400" y="753" on="1"/>
        <pt x="333" y="753" on="0"/>
        <pt x="265" y="818" on="0"/>
        <pt x="273" y="872" on="1"/>
        <pt x="298" y="875" on="1"/>
        <pt x="292" y="833" on="0"/>
        <pt x="347" y="787" on="0"/>
        <pt x="400" y="787" on="1"/>
        <pt x="454" y="787" on="0"/>
        <pt x="523" y="835" on="0"/>
      </contour>
      <contour>
        <pt x="586" y="684" on="1"/>
        <pt x="577" y="654" on="1"/>
        <pt x="492" y="665" on="0"/>
        <pt x="393" y="665" on="1"/>
        <pt x="262" y="665" on="0"/>
        <pt x="146" y="527" on="0"/>
        <pt x="121" y="343" on="1"/>
        <pt x="99" y="169" on="0"/>
        <pt x="163" y="25" on="0"/>
        <pt x="264" y="25" on="1"/>
        <pt x="322" y="25" on="0"/>
        <pt x="422" y="85" on="0"/>
        <pt x="484" y="142" on="1"/>
        <pt x="520" y="400" on="1"/>
        <pt x="560" y="400" on="1"/>
        <pt x="503" y="0" on="1"/>
        <pt x="474" y="0" on="1"/>
        <pt x="482" y="104" on="1"/>
        <pt x="374" y="-12" on="0"/>
        <pt x="256" y="-12" on="1"/>
        <pt x="137" y="-12" on="0"/>
        <pt x="55" y="156" on="0"/>
        <pt x="78" y="347" on="1"/>
        <pt x="105" y="546" on="0"/>
        <pt x="246" y="702" on="0"/>
        <pt x="390" y="702" on="1"/>
        <pt x="504" y="702" on="0"/>
      </contour>
    </TTGlyph>
    <TTGlyph name="Gcommaaccent" xMin="78" yMin="-255" xMax="586" yMax="702">
      <contour>
        <pt x="586" y="684" on="1"/>
        <pt x="577" y="654" on="1"/>
        <pt x="492" y="665" on="0"/>
        <pt x="393" y="665" on="1"/>
        <pt x="262" y="665" on="0"/>
        <pt x="146" y="527" on="0"/>
        <pt x="121" y="343" on="1"/>
        <pt x="99" y="169" on="0"/>
        <pt x="163" y="25" on="0"/>
        <pt x="264" y="25" on="1"/>
        <pt x="322" y="25" on="0"/>
        <pt x="422" y="85" on="0"/>
        <pt x="484" y="142" on="1"/>
        <pt x="520" y="400" on="1"/>
        <pt x="560" y="400" on="1"/>
        <pt x="503" y="0" on="1"/>
        <pt x="474" y="0" on="1"/>
        <pt x="482" y="104" on="1"/>
        <pt x="374" y="-12" on="0"/>
        <pt x="256" y="-12" on="1"/>
        <pt x="137" y="-12" on="0"/>
        <pt x="55" y="156" on="0"/>
        <pt x="78" y="347" on="1"/>
        <pt x="105" y="546" on="0"/>
        <pt x="246" y="702" on="0"/>
        <pt x="390" y="702" on="1"/>
        <pt x="504" y="702" on="0"/>
      </contour>
      <contour>
        <pt x="269" y="-63" on="1"/>
        <pt x="283" y="-63" on="1"/>
        <pt x="298" y="-63" on="0"/>
        <pt x="295" y="-78" on="1"/>
        <pt x="286" y="-137" on="1"/>
        <pt x="279" y="-188" on="0"/>
        <pt x="248" y="-255" on="1"/>
        <pt x="228" y="-248" on="1"/>
        <pt x="243" y="-198" on="0"/>
        <pt x="253" y="-146" on="1"/>
        <pt x="248" y="-147" on="0"/>
        <pt x="242" y="-139" on="0"/>
        <pt x="243" y="-133" on="1"/>
        <pt x="251" y="-77" on="1"/>
        <pt x="253" y="-69" on="0"/>
        <pt x="259" y="-63" on="0"/>
      </contour>
    </TTGlyph>
    <TTGlyph name="Gdotaccent" xMin="78" yMin="-12" xMax="586" yMax="862">
      <contour>
        <pt x="408" y="770" on="1"/>
        <pt x="394" y="770" on="1"/>
        <pt x="377" y="770" on="0"/>
        <pt x="380" y="787" on="1"/>
        <pt x="387" y="846" on="1"/>
        <pt x="390" y="862" on="0"/>
        <pt x="404" y="862" on="1"/>
        <pt x="419" y="862" on="1"/>
        <pt x="436" y="862" on="0"/>
        <pt x="433" y="845" on="1"/>
        <pt x="425" y="786" on="1"/>
        <pt x="424" y="770" on="0"/>
      </contour>
      <contour>
        <pt x="586" y="684" on="1"/>
        <pt x="577" y="654" on="1"/>
        <pt x="492" y="665" on="0"/>
        <pt x="393" y="665" on="1"/>
        <pt x="262" y="665" on="0"/>
        <pt x="146" y="527" on="0"/>
        <pt x="121" y="343" on="1"/>
        <pt x="99" y="169" on="0"/>
        <pt x="163" y="25" on="0"/>
        <pt x="264" y="25" on="1"/>
        <pt x="322" y="25" on="0"/>
        <pt x="422" y="85" on="0"/>
        <pt x="484" y="142" on="1"/>
        <pt x="520" y="400" on="1"/>
        <pt x="560" y="400" on="1"/>
        <pt x="503" y="0" on="1"/>
        <pt x="474" y="0" on="1"/>
        <pt x="482" y="104" on="1"/>
        <pt x="374" y="-12" on="0"/>
        <pt x="256" y="-12" on="1"/>
        <pt x="137" y="-12" on="0"/>
        <pt x="55" y="156" on="0"/>
        <pt x="78" y="347" on="1"/>
        <pt x="105" y="546" on="0"/>
        <pt x="246" y="702" on="0"/>
        <pt x="390" y="702" on="1"/>
        <pt x="504" y="702" on="0"/>
      </contour>
    </TTGlyph>
    <TTGlyph name="H" xMin="58" yMin="0" xMax="617" yMax="690">
      <contour>
        <pt x="617" y="690" on="1"/>
        <pt x="520" y="0" on="1"/>
        <pt x="479" y="0" on="1"/>
        <pt x="528" y="351" on="1"/>
        <pt x="148" y="351" on="1"/>
        <pt x="99" y="0" on="1"/>
        <pt x="58" y="0" on="1"/>
        <pt x="155" y="690" on="1"/>
        <pt x="196" y="690" on="1"/>
        <pt x="154" y="387" on="1"/>
        <pt x="533" y="387" on="1"/>
        <pt x="576" y="690" on="1"/>
      </contour>
    </TTGlyph>
    <TTGlyph name="Hbar" xMin="55" yMin="0" xMax="676" yMax="690">
      <contour>
        <pt x="672" y="523" on="1"/>
        <pt x="593" y="523" on="1"/>
        <pt x="520" y="0" on="1"/>
        <pt x="479" y="0" on="1"/>
        <pt x="528" y="351" on="1"/>
        <pt x="148" y="351" on="1"/>
        <pt x="99" y="0" on="1"/>
        <pt x="58" y="0" on="1"/>
        <pt x="131" y="523" on="1"/>
        <pt x="55" y="523" on="1"/>
        <pt x="59" y="550" on="1"/>
        <pt x="135" y="550" on="1"/>
        <pt x="155" y="690" on="1"/>
        <pt x="196" y="690" on="1"/>
        <pt x="176" y="550" on="1"/>
        <pt x="556" y="550" on="1"/>
        <pt x="576" y="690" on="1"/>
        <pt x="617" y="690" on="1"/>
        <pt x="597" y="550" on="1"/>
        <pt x="676" y="550" on="1"/>
      </contour>
      <contour>
        <pt x="552" y="523" on="1"/>
        <pt x="173" y="523" on="1"/>
        <pt x="154" y="387" on="1"/>
        <pt x="533" y="387" on="1"/>
      </contour>
    </TTGlyph>
    <TTGlyph name="I" xMin="58" yMin="0" xMax="196" yMax="690">
      <contour>
        <pt x="99" y="0" on="1"/>
        <pt x="58" y="0" on="1"/>
        <pt x="155" y="690" on="1"/>
        <pt x="196" y="690" on="1"/>
      </contour>
    </TTGlyph>
    <TTGlyph name="IJ" xMin="58" yMin="-7" xMax="526" yMax="690">
      <contour>
        <pt x="99" y="0" on="1"/>
        <pt x="58" y="0" on="1"/>
        <pt x="155" y="690" on="1"/>
        <pt x="196" y="690" on="1"/>
      </contour>
      <contour>
        <pt x="526" y="690" on="1"/>
        <pt x="446" y="122" on="1"/>
        <pt x="428" y="-9" on="0"/>
        <pt x="306" y="-7" on="1"/>
        <pt x="272" y="-7" on="0"/>
        <pt x="234" y="1" on="1"/>
        <pt x="242" y="29" on="1"/>
        <pt x="297" y="29" on="1"/>
        <pt x="392" y="29" on="0"/>
        <pt x="406" y="124" on="1"/>
        <pt x="485" y="690" on="1"/>
      </contour>
    </TTGlyph>
    <TTGlyph name="Iacute" xMin="58" yMin="0" xMax="328" yMax="901">
      <contour>
        <pt x="328" y="870" on="1"/>
        <pt x="147" y="734" on="1"/>
        <pt x="130" y="755" on="1"/>
        <pt x="305" y="901" on="1"/>
      </contour>
      <contour>
        <pt x="99" y="0" on="1"/>
        <pt x="58" y="0" on="1"/>
        <pt x="155" y="690" on="1"/>
        <pt x="196" y="690" on="1"/>
      </contour>
    </TTGlyph>
    <TTGlyph name="Icircumflex" xMin="35" yMin="0" xMax="337" yMax="884">
      <contour>
        <pt x="337" y="763" on="1"/>
        <pt x="319" y="746" on="1"/>
        <pt x="203" y="847" on="1"/>
        <pt x="195" y="847" on="1"/>
        <pt x="49" y="745" on="1"/>
        <pt x="35" y="765" on="1"/>
        <pt x="186" y="884" on="1"/>
        <pt x="215" y="884" on="1"/>
      </contour>
      <contour>
        <pt x="99" y="0" on="1"/>
        <pt x="58" y="0" on="1"/>
        <pt x="155" y="690" on="1"/>
        <pt x="196" y="690" on="1"/>
      </contour>
    </TTGlyph>
    <TTGlyph name="Idieresis" xMin="58" yMin="0" xMax="305" yMax="860">
      <contour>
        <pt x="104" y="860" on="1"/>
        <pt x="118" y="860" on="1"/>
        <pt x="131" y="860" on="0"/>
        <pt x="130" y="844" on="1"/>
        <pt x="122" y="791" on="1"/>
        <pt x="121" y="775" on="0"/>
        <pt x="106" y="775" on="1"/>
        <pt x="93" y="775" on="1"/>
        <pt x="79" y="775" on="0"/>
        <pt x="80" y="790" on="1"/>
        <pt x="88" y="844" on="1"/>
        <pt x="91" y="860" on="0"/>
      </contour>
      <contour>
        <pt x="279" y="860" on="1"/>
        <pt x="293" y="860" on="1"/>
        <pt x="306" y="860" on="0"/>
        <pt x="305" y="844" on="1"/>
        <pt x="297" y="791" on="1"/>
        <pt x="296" y="775" on="0"/>
        <pt x="280" y="775" on="1"/>
        <pt x="268" y="775" on="1"/>
        <pt x="254" y="775" on="0"/>
        <pt x="255" y="790" on="1"/>
        <pt x="263" y="844" on="1"/>
        <pt x="266" y="860" on="0"/>
      </contour>
      <contour>
        <pt x="99" y="0" on="1"/>
        <pt x="58" y="0" on="1"/>
        <pt x="155" y="690" on="1"/>
        <pt x="196" y="690" on="1"/>
      </contour>
    </TTGlyph>
    <TTGlyph name="Idotaccent" xMin="58" yMin="0" xMax="220" yMax="862">
      <contour>
        <pt x="191" y="862" on="1"/>
        <pt x="206" y="862" on="1"/>
        <pt x="222" y="862" on="0"/>
        <pt x="220" y="845" on="1"/>
        <pt x="212" y="786" on="1"/>
        <pt x="209" y="770" on="0"/>
        <pt x="194" y="770" on="1"/>
        <pt x="181" y="770" on="1"/>
        <pt x="164" y="770" on="0"/>
        <pt x="166" y="787" on="1"/>
        <pt x="174" y="846" on="1"/>
        <pt x="175" y="862" on="0"/>
      </contour>
      <contour>
        <pt x="99" y="0" on="1"/>
        <pt x="58" y="0" on="1"/>
        <pt x="155" y="690" on="1"/>
        <pt x="196" y="690" on="1"/>
      </contour>
    </TTGlyph>
    <TTGlyph name="Igrave" xMin="58" yMin="0" xMax="224" yMax="900">
      <contour>
        <pt x="224" y="753" on="1"/>
        <pt x="206" y="734" on="1"/>
        <pt x="59" y="871" on="1"/>
        <pt x="85" y="900" on="1"/>
      </contour>
      <contour>
        <pt x="99" y="0" on="1"/>
        <pt x="58" y="0" on="1"/>
        <pt x="155" y="690" on="1"/>
        <pt x="196" y="690" on="1"/>
      </contour>
    </TTGlyph>
    <TTGlyph name="Imacron" xMin="58" yMin="0" xMax="327" yMax="833">
      <contour>
        <pt x="323" y="799" on="1"/>
        <pt x="58" y="799" on="1"/>
        <pt x="62" y="833" on="1"/>
        <pt x="327" y="833" on="1"/>
      </contour>
      <contour>
        <pt x="99" y="0" on="1"/>
        <pt x="58" y="0" on="1"/>
        <pt x="155" y="690" on="1"/>
        <pt x="196" y="690" on="1"/>
      </contour>
    </TTGlyph>
    <TTGlyph name="Iogonek" xMin="-36" yMin="-201" xMax="196" yMax="690">
      <contour>
        <pt x="196" y="690" on="1"/>
        <pt x="99" y="0" on="1"/>
        <pt x="96" y="0" on="1"/>
        <pt x="26" y="-64" on="0"/>
        <pt x="-4" y="-125" on="1"/>
        <pt x="-26" y="-168" on="0"/>
        <pt x="19" y="-195" on="0"/>
        <pt x="76" y="-176" on="1"/>
        <pt x="81" y="-194" on="1"/>
        <pt x="-4" y="-226" on="0"/>
        <pt x="-64" y="-176" on="0"/>
        <pt x="-36" y="-120" on="1"/>
        <pt x="-5" y="-59" on="0"/>
        <pt x="71" y="0" on="1"/>
        <pt x="58" y="0" on="1"/>
        <pt x="155" y="690" on="1"/>
      </contour>
    </TTGlyph>
    <TTGlyph name="J" xMin="-5" yMin="-7" xMax="287" yMax="690">
      <contour>
        <pt x="287" y="690" on="1"/>
        <pt x="207" y="122" on="1"/>
        <pt x="190" y="-9" on="0"/>
        <pt x="67" y="-7" on="1"/>
        <pt x="33" y="-7" on="0"/>
        <pt x="-5" y="1" on="1"/>
        <pt x="4" y="29" on="1"/>
        <pt x="58" y="29" on="1"/>
        <pt x="153" y="29" on="0"/>
        <pt x="167" y="124" on="1"/>
        <pt x="246" y="690" on="1"/>
      </contour>
    </TTGlyph>
    <TTGlyph name="K" xMin="58" yMin="0" xMax="581" yMax="690">
      <contour>
        <pt x="284" y="361" on="1"/>
        <pt x="284" y="358" on="1"/>
        <pt x="291" y="350" on="0"/>
        <pt x="307" y="325" on="1"/>
        <pt x="500" y="0" on="1"/>
        <pt x="453" y="0" on="1"/>
        <pt x="249" y="343" on="1"/>
        <pt x="143" y="343" on="1"/>
        <pt x="142" y="301" on="0"/>
        <pt x="134" y="259" on="1"/>
        <pt x="98" y="0" on="1"/>
        <pt x="58" y="0" on="1"/>
        <pt x="155" y="690" on="1"/>
        <pt x="195" y="690" on="1"/>
        <pt x="163" y="458" on="1"/>
        <pt x="155" y="408" on="0"/>
        <pt x="148" y="377" on="1"/>
        <pt x="252" y="377" on="1"/>
        <pt x="530" y="690" on="1"/>
        <pt x="581" y="690" on="1"/>
        <pt x="321" y="396" on="1"/>
        <pt x="302" y="375" on="0"/>
      </contour>
    </TTGlyph>
    <TTGlyph name="Kcommaaccent" xMin="58" yMin="-255" xMax="581" yMax="690">
      <contour>
        <pt x="284" y="361" on="1"/>
        <pt x="284" y="358" on="1"/>
        <pt x="291" y="350" on="0"/>
        <pt x="307" y="325" on="1"/>
        <pt x="500" y="0" on="1"/>
        <pt x="453" y="0" on="1"/>
        <pt x="249" y="343" on="1"/>
        <pt x="143" y="343" on="1"/>
        <pt x="142" y="301" on="0"/>
        <pt x="134" y="259" on="1"/>
        <pt x="98" y="0" on="1"/>
        <pt x="58" y="0" on="1"/>
        <pt x="155" y="690" on="1"/>
        <pt x="195" y="690" on="1"/>
        <pt x="163" y="458" on="1"/>
        <pt x="155" y="408" on="0"/>
        <pt x="148" y="377" on="1"/>
        <pt x="252" y="377" on="1"/>
        <pt x="530" y="690" on="1"/>
        <pt x="581" y="690" on="1"/>
        <pt x="321" y="396" on="1"/>
        <pt x="302" y="375" on="0"/>
      </contour>
      <contour>
        <pt x="260" y="-63" on="1"/>
        <pt x="274" y="-63" on="1"/>
        <pt x="289" y="-63" on="0"/>
        <pt x="286" y="-78" on="1"/>
        <pt x="277" y="-137" on="1"/>
        <pt x="270" y="-188" on="0"/>
        <pt x="239" y="-255" on="1"/>
        <pt x="219" y="-248" on="1"/>
        <pt x="234" y="-198" on="0"/>
        <pt x="244" y="-146" on="1"/>
        <pt x="239" y="-147" on="0"/>
        <pt x="233" y="-139" on="0"/>
        <pt x="234" y="-133" on="1"/>
        <pt x="242" y="-77" on="1"/>
        <pt x="244" y="-69" on="0"/>
        <pt x="250" y="-63" on="0"/>
      </contour>
    </TTGlyph>
    <TTGlyph name="L" xMin="71" yMin="0" xMax="445" yMax="690">
      <contour>
        <pt x="193" y="690" on="1"/>
        <pt x="112" y="112" on="1"/>
        <pt x="107" y="77" on="0"/>
        <pt x="142" y="35" on="0"/>
        <pt x="178" y="35" on="1"/>
        <pt x="445" y="35" on="1"/>
        <pt x="444" y="4" on="1"/>
        <pt x="352" y="0" on="0"/>
        <pt x="169" y="0" on="1"/>
        <pt x="119" y="0" on="0"/>
        <pt x="64" y="63" on="0"/>
        <pt x="71" y="113" on="1"/>
        <pt x="152" y="690" on="1"/>
      </contour>
    </TTGlyph>
    <TTGlyph name="Lacute" xMin="71" yMin="0" xMax="445" yMax="901">
      <contour>
        <pt x="326" y="870" on="1"/>
        <pt x="146" y="734" on="1"/>
        <pt x="128" y="755" on="1"/>
        <pt x="303" y="901" on="1"/>
      </contour>
      <contour>
        <pt x="193" y="690" on="1"/>
        <pt x="112" y="112" on="1"/>
        <pt x="107" y="77" on="0"/>
        <pt x="142" y="35" on="0"/>
        <pt x="178" y="35" on="1"/>
        <pt x="445" y="35" on="1"/>
        <pt x="444" y="4" on="1"/>
        <pt x="352" y="0" on="0"/>
        <pt x="169" y="0" on="1"/>
        <pt x="119" y="0" on="0"/>
        <pt x="64" y="63" on="0"/>
        <pt x="71" y="113" on="1"/>
        <pt x="152" y="690" on="1"/>
      </contour>
    </TTGlyph>
    <TTGlyph name="Lcaron" xMin="71" yMin="0" xMax="445" yMax="690">
      <contour>
        <pt x="193" y="690" on="1"/>
        <pt x="112" y="112" on="1"/>
        <pt x="107" y="77" on="0"/>
        <pt x="142" y="35" on="0"/>
        <pt x="178" y="35" on="1"/>
        <pt x="445" y="35" on="1"/>
        <pt x="444" y="4" on="1"/>
        <pt x="352" y="0" on="0"/>
        <pt x="169" y="0" on="1"/>
        <pt x="119" y="0" on="0"/>
        <pt x="64" y="63" on="0"/>
        <pt x="71" y="113" on="1"/>
        <pt x="152" y="690" on="1"/>
      </contour>
      <contour>
        <pt x="319" y="688" on="1"/>
        <pt x="333" y="688" on="1"/>
        <pt x="348" y="688" on="0"/>
        <pt x="345" y="673" on="1"/>
        <pt x="336" y="614" on="1"/>
        <pt x="329" y="562" on="0"/>
        <pt x="298" y="495" on="1"/>
        <pt x="278" y="502" on="1"/>
        <pt x="293" y="552" on="0"/>
        <pt x="303" y="604" on="1"/>
        <pt x="290" y="604" on="0"/>
        <pt x="292" y="617" on="1"/>
        <pt x="301" y="673" on="1"/>
        <pt x="303" y="682" on="0"/>
        <pt x="310" y="688" on="0"/>
      </contour>
    </TTGlyph>
    <TTGlyph name="Lcommaaccent" xMin="71" yMin="-263" xMax="445" yMax="690">
      <contour>
        <pt x="193" y="690" on="1"/>
        <pt x="112" y="112" on="1"/>
        <pt x="107" y="77" on="0"/>
        <pt x="142" y="35" on="0"/>
        <pt x="178" y="35" on="1"/>
        <pt x="445" y="35" on="1"/>
        <pt x="444" y="4" on="1"/>
        <pt x="352" y="0" on="0"/>
        <pt x="169" y="0" on="1"/>
        <pt x="119" y="0" on="0"/>
        <pt x="64" y="63" on="0"/>
        <pt x="71" y="113" on="1"/>
        <pt x="152" y="690" on="1"/>
      </contour>
      <contour>
        <pt x="246" y="-71" on="1"/>
        <pt x="260" y="-71" on="1"/>
        <pt x="275" y="-71" on="0"/>
        <pt x="272" y="-86" on="1"/>
        <pt x="263" y="-145" on="1"/>
        <pt x="258" y="-192" on="0"/>
        <pt x="225" y="-263" on="1"/>
        <pt x="205" y="-257" on="1"/>
        <pt x="220" y="-208" on="0"/>
        <pt x="230" y="-154" on="1"/>
        <pt x="225" y="-155" on="0"/>
        <pt x="219" y="-147" on="0"/>
        <pt x="220" y="-141" on="1"/>
        <pt x="229" y="-85" on="1"/>
        <pt x="230" y="-71" on="0"/>
      </contour>
    </TTGlyph>
    <TTGlyph name="Ldot" xMin="71" yMin="0" xMax="445" yMax="690">
      <contour>
        <pt x="193" y="690" on="1"/>
        <pt x="112" y="112" on="1"/>
        <pt x="107" y="77" on="0"/>
        <pt x="142" y="35" on="0"/>
        <pt x="178" y="35" on="1"/>
        <pt x="445" y="35" on="1"/>
        <pt x="444" y="4" on="1"/>
        <pt x="352" y="0" on="0"/>
        <pt x="169" y="0" on="1"/>
        <pt x="119" y="0" on="0"/>
        <pt x="64" y="63" on="0"/>
        <pt x="71" y="113" on="1"/>
        <pt x="152" y="690" on="1"/>
      </contour>
      <contour>
        <pt x="375" y="333" on="1"/>
        <pt x="359" y="333" on="1"/>
        <pt x="343" y="333" on="0"/>
        <pt x="346" y="350" on="1"/>
        <pt x="354" y="409" on="1"/>
        <pt x="355" y="425" on="0"/>
        <pt x="371" y="425" on="1"/>
        <pt x="385" y="425" on="1"/>
        <pt x="401" y="425" on="0"/>
        <pt x="399" y="408" on="1"/>
        <pt x="391" y="349" on="1"/>
        <pt x="390" y="333" on="0"/>
      </contour>
    </TTGlyph>
    <TTGlyph name="Lslash" xMin="29" yMin="0" xMax="445" yMax="690">
      <contour>
        <pt x="445" y="35" on="1"/>
        <pt x="443" y="4" on="1"/>
        <pt x="352" y="0" on="0"/>
        <pt x="169" y="0" on="1"/>
        <pt x="118" y="0" on="0"/>
        <pt x="64" y="62" on="0"/>
        <pt x="71" y="113" on="1"/>
        <pt x="104" y="349" on="1"/>
        <pt x="29" y="318" on="1"/>
        <pt x="31" y="347" on="1"/>
        <pt x="108" y="378" on="1"/>
        <pt x="151" y="690" on="1"/>
        <pt x="193" y="690" on="1"/>
        <pt x="152" y="396" on="1"/>
        <pt x="289" y="452" on="1"/>
        <pt x="285" y="424" on="1"/>
        <pt x="148" y="367" on="1"/>
        <pt x="112" y="112" on="1"/>
        <pt x="107" y="77" on="0"/>
        <pt x="142" y="35" on="0"/>
        <pt x="178" y="35" on="1"/>
      </contour>
    </TTGlyph>
    <TTGlyph name="M" xMin="43" yMin="0" xMax="799" yMax="690">
      <contour>
        <pt x="723" y="690" on="1"/>
        <pt x="780" y="690" on="1"/>
        <pt x="801" y="690" on="0"/>
        <pt x="799" y="668" on="1"/>
        <pt x="735" y="0" on="1"/>
        <pt x="693" y="0" on="1"/>
        <pt x="757" y="655" on="1"/>
        <pt x="734" y="655" on="1"/>
        <pt x="446" y="78" on="1"/>
        <pt x="441" y="65" on="0"/>
        <pt x="426" y="65" on="1"/>
        <pt x="374" y="65" on="1"/>
        <pt x="358" y="65" on="0"/>
        <pt x="355" y="80" on="1"/>
        <pt x="228" y="655" on="1"/>
        <pt x="204" y="655" on="1"/>
        <pt x="84" y="0" on="1"/>
        <pt x="43" y="0" on="1"/>
        <pt x="167" y="671" on="1"/>
        <pt x="170" y="690" on="0"/>
        <pt x="189" y="690" on="1"/>
        <pt x="244" y="690" on="1"/>
        <pt x="260" y="690" on="0"/>
        <pt x="262" y="674" on="1"/>
        <pt x="370" y="191" on="1"/>
        <pt x="375" y="173" on="0"/>
        <pt x="388" y="108" on="0"/>
        <pt x="390" y="97" on="1"/>
        <pt x="415" y="97" on="1"/>
        <pt x="461" y="194" on="1"/>
        <pt x="703" y="677" on="1"/>
        <pt x="710" y="690" on="0"/>
      </contour>
    </TTGlyph>
    <TTGlyph name="N" xMin="58" yMin="0" xMax="649" yMax="690">
      <contour>
        <pt x="649" y="690" on="1"/>
        <pt x="555" y="19" on="1"/>
        <pt x="552" y="0" on="0"/>
        <pt x="534" y="0" on="1"/>
        <pt x="483" y="0" on="1"/>
        <pt x="467" y="0" on="0"/>
        <pt x="461" y="17" on="1"/>
        <pt x="240" y="580" on="1"/>
        <pt x="215" y="645" on="0"/>
        <pt x="212" y="653" on="1"/>
        <pt x="189" y="653" on="1"/>
        <pt x="183" y="601" on="0"/>
        <pt x="179" y="571" on="1"/>
        <pt x="99" y="0" on="1"/>
        <pt x="58" y="0" on="1"/>
        <pt x="152" y="671" on="1"/>
        <pt x="155" y="690" on="0"/>
        <pt x="173" y="690" on="1"/>
        <pt x="222" y="690" on="1"/>
        <pt x="238" y="690" on="0"/>
        <pt x="244" y="673" on="1"/>
        <pt x="460" y="123" on="1"/>
        <pt x="475" y="86" on="0"/>
        <pt x="492" y="37" on="1"/>
        <pt x="518" y="37" on="1"/>
        <pt x="529" y="123" on="0"/>
        <pt x="530" y="126" on="1"/>
        <pt x="608" y="690" on="1"/>
      </contour>
    </TTGlyph>
    <TTGlyph name="Nacute" xMin="58" yMin="0" xMax="649" yMax="901">
      <contour>
        <pt x="564" y="870" on="1"/>
        <pt x="383" y="734" on="1"/>
        <pt x="366" y="755" on="1"/>
        <pt x="541" y="901" on="1"/>
      </contour>
      <contour>
        <pt x="649" y="690" on="1"/>
        <pt x="555" y="19" on="1"/>
        <pt x="552" y="0" on="0"/>
        <pt x="534" y="0" on="1"/>
        <pt x="483" y="0" on="1"/>
        <pt x="467" y="0" on="0"/>
        <pt x="461" y="17" on="1"/>
        <pt x="240" y="580" on="1"/>
        <pt x="215" y="645" on="0"/>
        <pt x="212" y="653" on="1"/>
        <pt x="189" y="653" on="1"/>
        <pt x="183" y="601" on="0"/>
        <pt x="179" y="571" on="1"/>
        <pt x="99" y="0" on="1"/>
        <pt x="58" y="0" on="1"/>
        <pt x="152" y="671" on="1"/>
        <pt x="155" y="690" on="0"/>
        <pt x="173" y="690" on="1"/>
        <pt x="222" y="690" on="1"/>
        <pt x="238" y="690" on="0"/>
        <pt x="244" y="673" on="1"/>
        <pt x="460" y="123" on="1"/>
        <pt x="475" y="86" on="0"/>
        <pt x="492" y="37" on="1"/>
        <pt x="518" y="37" on="1"/>
        <pt x="529" y="123" on="0"/>
        <pt x="530" y="126" on="1"/>
        <pt x="608" y="690" on="1"/>
      </contour>
    </TTGlyph>
    <TTGlyph name="Ncaron" xMin="58" yMin="0" xMax="649" yMax="887">
      <contour>
        <pt x="587" y="869" on="1"/>
        <pt x="434" y="749" on="1"/>
        <pt x="405" y="749" on="1"/>
        <pt x="286" y="870" on="1"/>
        <pt x="303" y="887" on="1"/>
        <pt x="418" y="786" on="1"/>
        <pt x="426" y="786" on="1"/>
        <pt x="572" y="887" on="1"/>
      </contour>
      <contour>
        <pt x="649" y="690" on="1"/>
        <pt x="555" y="19" on="1"/>
        <pt x="552" y="0" on="0"/>
        <pt x="534" y="0" on="1"/>
        <pt x="483" y="0" on="1"/>
        <pt x="467" y="0" on="0"/>
        <pt x="461" y="17" on="1"/>
        <pt x="240" y="580" on="1"/>
        <pt x="215" y="645" on="0"/>
        <pt x="212" y="653" on="1"/>
        <pt x="189" y="653" on="1"/>
        <pt x="183" y="601" on="0"/>
        <pt x="179" y="571" on="1"/>
        <pt x="99" y="0" on="1"/>
        <pt x="58" y="0" on="1"/>
        <pt x="152" y="671" on="1"/>
        <pt x="155" y="690" on="0"/>
        <pt x="173" y="690" on="1"/>
        <pt x="222" y="690" on="1"/>
        <pt x="238" y="690" on="0"/>
        <pt x="244" y="673" on="1"/>
        <pt x="460" y="123" on="1"/>
        <pt x="475" y="86" on="0"/>
        <pt x="492" y="37" on="1"/>
        <pt x="518" y="37" on="1"/>
        <pt x="529" y="123" on="0"/>
        <pt x="530" y="126" on="1"/>
        <pt x="608" y="690" on="1"/>
      </contour>
    </TTGlyph>
    <TTGlyph name="Ncommaaccent" xMin="58" yMin="-255" xMax="649" yMax="690">
      <contour>
        <pt x="649" y="690" on="1"/>
        <pt x="555" y="19" on="1"/>
        <pt x="552" y="0" on="0"/>
        <pt x="534" y="0" on="1"/>
        <pt x="483" y="0" on="1"/>
        <pt x="467" y="0" on="0"/>
        <pt x="461" y="17" on="1"/>
        <pt x="240" y="580" on="1"/>
        <pt x="215" y="645" on="0"/>
        <pt x="212" y="653" on="1"/>
        <pt x="189" y="653" on="1"/>
        <pt x="183" y="601" on="0"/>
        <pt x="179" y="571" on="1"/>
        <pt x="99" y="0" on="1"/>
        <pt x="58" y="0" on="1"/>
        <pt x="152" y="671" on="1"/>
        <pt x="155" y="690" on="0"/>
        <pt x="173" y="690" on="1"/>
        <pt x="222" y="690" on="1"/>
        <pt x="238" y="690" on="0"/>
        <pt x="244" y="673" on="1"/>
        <pt x="460" y="123" on="1"/>
        <pt x="475" y="86" on="0"/>
        <pt x="492" y="37" on="1"/>
        <pt x="518" y="37" on="1"/>
        <pt x="529" y="123" on="0"/>
        <pt x="530" y="126" on="1"/>
        <pt x="608" y="690" on="1"/>
      </contour>
      <contour>
        <pt x="299" y="-63" on="1"/>
        <pt x="313" y="-63" on="1"/>
        <pt x="326" y="-63" on="0"/>
        <pt x="325" y="-78" on="1"/>
        <pt x="316" y="-137" on="1"/>
        <pt x="309" y="-188" on="0"/>
        <pt x="278" y="-255" on="1"/>
        <pt x="258" y="-248" on="1"/>
        <pt x="274" y="-196" on="0"/>
        <pt x="282" y="-146" on="1"/>
        <pt x="277" y="-147" on="0"/>
        <pt x="271" y="-139" on="0"/>
        <pt x="272" y="-133" on="1"/>
        <pt x="281" y="-77" on="1"/>
        <pt x="283" y="-69" on="0"/>
        <pt x="289" y="-63" on="0"/>
      </contour>
    </TTGlyph>
    <TTGlyph name="Ntilde" xMin="58" yMin="0" xMax="649" yMax="870">
      <contour>
        <pt x="297" y="773" on="1"/>
        <pt x="274" y="775" on="1"/>
        <pt x="278" y="824" on="0"/>
        <pt x="325" y="873" on="0"/>
        <pt x="361" y="870" on="1"/>
        <pt x="391" y="867" on="0"/>
        <pt x="466" y="807" on="0"/>
        <pt x="494" y="805" on="1"/>
        <pt x="553" y="799" on="0"/>
        <pt x="560" y="866" on="1"/>
        <pt x="583" y="863" on="1"/>
        <pt x="579" y="817" on="0"/>
        <pt x="533" y="770" on="0"/>
        <pt x="497" y="773" on="1"/>
        <pt x="468" y="775" on="0"/>
        <pt x="422" y="805" on="0"/>
        <pt x="383" y="836" on="0"/>
        <pt x="364" y="838" on="1"/>
        <pt x="306" y="844" on="0"/>
      </contour>
      <contour>
        <pt x="649" y="690" on="1"/>
        <pt x="555" y="19" on="1"/>
        <pt x="552" y="0" on="0"/>
        <pt x="534" y="0" on="1"/>
        <pt x="483" y="0" on="1"/>
        <pt x="467" y="0" on="0"/>
        <pt x="461" y="17" on="1"/>
        <pt x="240" y="580" on="1"/>
        <pt x="215" y="645" on="0"/>
        <pt x="212" y="653" on="1"/>
        <pt x="189" y="653" on="1"/>
        <pt x="183" y="601" on="0"/>
        <pt x="179" y="571" on="1"/>
        <pt x="99" y="0" on="1"/>
        <pt x="58" y="0" on="1"/>
        <pt x="152" y="671" on="1"/>
        <pt x="155" y="690" on="0"/>
        <pt x="173" y="690" on="1"/>
        <pt x="222" y="690" on="1"/>
        <pt x="238" y="690" on="0"/>
        <pt x="244" y="673" on="1"/>
        <pt x="460" y="123" on="1"/>
        <pt x="475" y="86" on="0"/>
        <pt x="492" y="37" on="1"/>
        <pt x="518" y="37" on="1"/>
        <pt x="529" y="123" on="0"/>
        <pt x="530" y="126" on="1"/>
        <pt x="608" y="690" on="1"/>
      </contour>
    </TTGlyph>
    <TTGlyph name="O" xMin="79" yMin="-12" xMax="597" yMax="702">
      <contour>
        <pt x="386" y="702" on="1"/>
        <pt x="529" y="702" on="0"/>
        <pt x="625" y="540" on="0"/>
        <pt x="597" y="343" on="1"/>
        <pt x="570" y="145" on="0"/>
        <pt x="435" y="-12" on="0"/>
        <pt x="149" y="-12" on="0"/>
        <pt x="51" y="149" on="0"/>
        <pt x="79" y="347" on="1"/>
        <pt x="107" y="544" on="0"/>
        <pt x="242" y="702" on="0"/>
      </contour>
      <contour>
        <pt x="385" y="665" on="1"/>
        <pt x="261" y="665" on="0"/>
        <pt x="147" y="524" on="0"/>
        <pt x="121" y="343" on="1"/>
        <pt x="97" y="165" on="0"/>
        <pt x="172" y="25" on="0"/>
        <pt x="292" y="25" on="1"/>
        <pt x="415" y="25" on="0"/>
        <pt x="529" y="166" on="0"/>
        <pt x="555" y="347" on="1"/>
        <pt x="581" y="527" on="0"/>
        <pt x="507" y="665" on="0"/>
      </contour>
    </TTGlyph>
    <TTGlyph name="OE" xMin="80" yMin="-12" xMax="895" yMax="702">
      <contour>
        <pt x="891" y="655" on="1"/>
        <pt x="623" y="655" on="1"/>
        <pt x="588" y="655" on="0"/>
        <pt x="538" y="611" on="0"/>
        <pt x="534" y="575" on="1"/>
        <pt x="507" y="385" on="1"/>
        <pt x="811" y="385" on="1"/>
        <pt x="807" y="351" on="1"/>
        <pt x="503" y="351" on="1"/>
        <pt x="469" y="112" on="1"/>
        <pt x="464" y="77" on="0"/>
        <pt x="500" y="35" on="0"/>
        <pt x="535" y="35" on="1"/>
        <pt x="804" y="35" on="1"/>
        <pt x="802" y="4" on="1"/>
        <pt x="711" y="0" on="0"/>
        <pt x="528" y="0" on="1"/>
        <pt x="485" y="0" on="0"/>
        <pt x="457" y="22" on="1"/>
        <pt x="414" y="3" on="0"/>
        <pt x="349" y="-12" on="0"/>
        <pt x="299" y="-12" on="1"/>
        <pt x="148" y="-12" on="0"/>
        <pt x="52" y="145" on="0"/>
        <pt x="80" y="347" on="1"/>
        <pt x="108" y="546" on="0"/>
        <pt x="244" y="702" on="0"/>
        <pt x="395" y="702" on="1"/>
        <pt x="477" y="702" on="0"/>
        <pt x="545" y="670" on="1"/>
        <pt x="576" y="690" on="0"/>
        <pt x="616" y="690" on="1"/>
        <pt x="804" y="690" on="0"/>
        <pt x="895" y="686" on="1"/>
      </contour>
      <contour>
        <pt x="428" y="112" on="1"/>
        <pt x="494" y="585" on="1"/>
        <pt x="499" y="618" on="0"/>
        <pt x="517" y="643" on="1"/>
        <pt x="463" y="665" on="0"/>
        <pt x="394" y="665" on="1"/>
        <pt x="265" y="665" on="0"/>
        <pt x="148" y="526" on="0"/>
        <pt x="122" y="343" on="1"/>
        <pt x="96" y="164" on="0"/>
        <pt x="172" y="25" on="0"/>
        <pt x="301" y="25" on="1"/>
        <pt x="370" y="25" on="0"/>
        <pt x="436" y="50" on="1"/>
        <pt x="422" y="76" on="0"/>
      </contour>
    </TTGlyph>
    <TTGlyph name="Oacute" xMin="79" yMin="-12" xMax="597" yMax="901">
      <contour>
        <pt x="545" y="870" on="1"/>
        <pt x="364" y="734" on="1"/>
        <pt x="347" y="755" on="1"/>
        <pt x="522" y="901" on="1"/>
      </contour>
      <contour>
        <pt x="386" y="702" on="1"/>
        <pt x="529" y="702" on="0"/>
        <pt x="625" y="540" on="0"/>
        <pt x="597" y="343" on="1"/>
        <pt x="570" y="145" on="0"/>
        <pt x="435" y="-12" on="0"/>
        <pt x="149" y="-12" on="0"/>
        <pt x="51" y="149" on="0"/>
        <pt x="79" y="347" on="1"/>
        <pt x="107" y="544" on="0"/>
        <pt x="242" y="702" on="0"/>
      </contour>
      <contour>
        <pt x="385" y="665" on="1"/>
        <pt x="261" y="665" on="0"/>
        <pt x="147" y="524" on="0"/>
        <pt x="121" y="343" on="1"/>
        <pt x="97" y="165" on="0"/>
        <pt x="172" y="25" on="0"/>
        <pt x="292" y="25" on="1"/>
        <pt x="415" y="25" on="0"/>
        <pt x="529" y="166" on="0"/>
        <pt x="555" y="347" on="1"/>
        <pt x="581" y="527" on="0"/>
        <pt x="507" y="665" on="0"/>
      </contour>
    </TTGlyph>
    <TTGlyph name="Ocircumflex" xMin="79" yMin="-12" xMax="597" yMax="884">
      <contour>
        <pt x="553" y="763" on="1"/>
        <pt x="536" y="746" on="1"/>
        <pt x="420" y="847" on="1"/>
        <pt x="411" y="847" on="1"/>
        <pt x="265" y="745" on="1"/>
        <pt x="251" y="765" on="1"/>
        <pt x="402" y="884" on="1"/>
        <pt x="431" y="884" on="1"/>
      </contour>
      <contour>
        <pt x="386" y="702" on="1"/>
        <pt x="529" y="702" on="0"/>
        <pt x="625" y="540" on="0"/>
        <pt x="597" y="343" on="1"/>
        <pt x="570" y="145" on="0"/>
        <pt x="435" y="-12" on="0"/>
        <pt x="149" y="-12" on="0"/>
        <pt x="51" y="149" on="0"/>
        <pt x="79" y="347" on="1"/>
        <pt x="107" y="544" on="0"/>
        <pt x="242" y="702" on="0"/>
      </contour>
      <contour>
        <pt x="385" y="665" on="1"/>
        <pt x="261" y="665" on="0"/>
        <pt x="147" y="524" on="0"/>
        <pt x="121" y="343" on="1"/>
        <pt x="97" y="165" on="0"/>
        <pt x="172" y="25" on="0"/>
        <pt x="292" y="25" on="1"/>
        <pt x="415" y="25" on="0"/>
        <pt x="529" y="166" on="0"/>
        <pt x="555" y="347" on="1"/>
        <pt x="581" y="527" on="0"/>
        <pt x="507" y="665" on="0"/>
      </contour>
    </TTGlyph>
    <TTGlyph name="Odieresis" xMin="79" yMin="-12" xMax="597" yMax="860">
      <contour>
        <pt x="321" y="860" on="1"/>
        <pt x="334" y="860" on="1"/>
        <pt x="348" y="860" on="0"/>
        <pt x="347" y="844" on="1"/>
        <pt x="338" y="791" on="1"/>
        <pt x="337" y="775" on="0"/>
        <pt x="322" y="775" on="1"/>
        <pt x="310" y="775" on="1"/>
        <pt x="294" y="775" on="0"/>
        <pt x="297" y="790" on="1"/>
        <pt x="305" y="844" on="1"/>
        <pt x="306" y="860" on="0"/>
      </contour>
      <contour>
        <pt x="496" y="860" on="1"/>
        <pt x="509" y="860" on="1"/>
        <pt x="523" y="860" on="0"/>
        <pt x="522" y="844" on="1"/>
        <pt x="513" y="791" on="1"/>
        <pt x="512" y="775" on="0"/>
        <pt x="497" y="775" on="1"/>
        <pt x="484" y="775" on="1"/>
        <pt x="470" y="775" on="0"/>
        <pt x="471" y="790" on="1"/>
        <pt x="480" y="844" on="1"/>
        <pt x="481" y="860" on="0"/>
      </contour>
      <contour>
        <pt x="386" y="702" on="1"/>
        <pt x="529" y="702" on="0"/>
        <pt x="625" y="540" on="0"/>
        <pt x="597" y="343" on="1"/>
        <pt x="570" y="145" on="0"/>
        <pt x="435" y="-12" on="0"/>
        <pt x="149" y="-12" on="0"/>
        <pt x="51" y="149" on="0"/>
        <pt x="79" y="347" on="1"/>
        <pt x="107" y="544" on="0"/>
        <pt x="242" y="702" on="0"/>
      </contour>
      <contour>
        <pt x="385" y="665" on="1"/>
        <pt x="261" y="665" on="0"/>
        <pt x="147" y="524" on="0"/>
        <pt x="121" y="343" on="1"/>
        <pt x="97" y="165" on="0"/>
        <pt x="172" y="25" on="0"/>
        <pt x="292" y="25" on="1"/>
        <pt x="415" y="25" on="0"/>
        <pt x="529" y="166" on="0"/>
        <pt x="555" y="347" on="1"/>
        <pt x="581" y="527" on="0"/>
        <pt x="507" y="665" on="0"/>
      </contour>
    </TTGlyph>
    <TTGlyph name="Ograve" xMin="79" yMin="-12" xMax="597" yMax="900">
      <contour>
        <pt x="441" y="753" on="1"/>
        <pt x="422" y="734" on="1"/>
        <pt x="275" y="871" on="1"/>
        <pt x="301" y="900" on="1"/>
      </contour>
      <contour>
        <pt x="386" y="702" on="1"/>
        <pt x="529" y="702" on="0"/>
        <pt x="625" y="540" on="0"/>
        <pt x="597" y="343" on="1"/>
        <pt x="570" y="145" on="0"/>
        <pt x="435" y="-12" on="0"/>
        <pt x="149" y="-12" on="0"/>
        <pt x="51" y="149" on="0"/>
        <pt x="79" y="347" on="1"/>
        <pt x="107" y="544" on="0"/>
        <pt x="242" y="702" on="0"/>
      </contour>
      <contour>
        <pt x="385" y="665" on="1"/>
        <pt x="261" y="665" on="0"/>
        <pt x="147" y="524" on="0"/>
        <pt x="121" y="343" on="1"/>
        <pt x="97" y="165" on="0"/>
        <pt x="172" y="25" on="0"/>
        <pt x="292" y="25" on="1"/>
        <pt x="415" y="25" on="0"/>
        <pt x="529" y="166" on="0"/>
        <pt x="555" y="347" on="1"/>
        <pt x="581" y="527" on="0"/>
        <pt x="507" y="665" on="0"/>
      </contour>
    </TTGlyph>
    <TTGlyph name="Ohungarumlaut" xMin="79" yMin="-12" xMax="603" yMax="906">
      <contour>
        <pt x="457" y="884" on="1"/>
        <pt x="313" y="731" on="1"/>
        <pt x="294" y="747" on="1"/>
        <pt x="429" y="906" on="1"/>
      </contour>
      <contour>
        <pt x="603" y="884" on="1"/>
        <pt x="459" y="731" on="1"/>
        <pt x="440" y="747" on="1"/>
        <pt x="575" y="906" on="1"/>
      </contour>
      <contour>
        <pt x="386" y="702" on="1"/>
        <pt x="529" y="702" on="0"/>
        <pt x="625" y="540" on="0"/>
        <pt x="597" y="343" on="1"/>
        <pt x="570" y="145" on="0"/>
        <pt x="435" y="-12" on="0"/>
        <pt x="149" y="-12" on="0"/>
        <pt x="51" y="149" on="0"/>
        <pt x="79" y="347" on="1"/>
        <pt x="107" y="544" on="0"/>
        <pt x="242" y="702" on="0"/>
      </contour>
      <contour>
        <pt x="385" y="665" on="1"/>
        <pt x="261" y="665" on="0"/>
        <pt x="147" y="524" on="0"/>
        <pt x="121" y="343" on="1"/>
        <pt x="97" y="165" on="0"/>
        <pt x="172" y="25" on="0"/>
        <pt x="292" y="25" on="1"/>
        <pt x="415" y="25" on="0"/>
        <pt x="529" y="166" on="0"/>
        <pt x="555" y="347" on="1"/>
        <pt x="581" y="527" on="0"/>
        <pt x="507" y="665" on="0"/>
      </contour>
    </TTGlyph>
    <TTGlyph name="Omacron" xMin="79" yMin="-12" xMax="597" yMax="833">
      <contour>
        <pt x="539" y="799" on="1"/>
        <pt x="274" y="799" on="1"/>
        <pt x="279" y="833" on="1"/>
        <pt x="544" y="833" on="1"/>
      </contour>
      <contour>
        <pt x="386" y="702" on="1"/>
        <pt x="529" y="702" on="0"/>
        <pt x="625" y="540" on="0"/>
        <pt x="597" y="343" on="1"/>
        <pt x="570" y="145" on="0"/>
        <pt x="435" y="-12" on="0"/>
        <pt x="149" y="-12" on="0"/>
        <pt x="51" y="149" on="0"/>
        <pt x="79" y="347" on="1"/>
        <pt x="107" y="544" on="0"/>
        <pt x="242" y="702" on="0"/>
      </contour>
      <contour>
        <pt x="385" y="665" on="1"/>
        <pt x="261" y="665" on="0"/>
        <pt x="147" y="524" on="0"/>
        <pt x="121" y="343" on="1"/>
        <pt x="97" y="165" on="0"/>
        <pt x="172" y="25" on="0"/>
        <pt x="292" y="25" on="1"/>
        <pt x="415" y="25" on="0"/>
        <pt x="529" y="166" on="0"/>
        <pt x="555" y="347" on="1"/>
        <pt x="581" y="527" on="0"/>
        <pt x="507" y="665" on="0"/>
      </contour>
    </TTGlyph>
    <TTGlyph name="Omega" xMin="13" yMin="0" xMax="641" yMax="702">
      <contour>
        <pt x="18" y="36" on="1"/>
        <pt x="144" y="36" on="1"/>
        <pt x="186" y="36" on="0"/>
        <pt x="208" y="35" on="1"/>
        <pt x="134" y="93" on="0"/>
        <pt x="80" y="248" on="0"/>
        <pt x="97" y="364" on="1"/>
        <pt x="120" y="535" on="0"/>
        <pt x="272" y="702" on="0"/>
        <pt x="415" y="702" on="1"/>
        <pt x="556" y="702" on="0"/>
        <pt x="665" y="531" on="0"/>
        <pt x="641" y="358" on="1"/>
        <pt x="624" y="240" on="0"/>
        <pt x="530" y="92" on="0"/>
        <pt x="439" y="35" on="1"/>
        <pt x="459" y="36" on="0"/>
        <pt x="499" y="36" on="1"/>
        <pt x="627" y="36" on="1"/>
        <pt x="623" y="0" on="1"/>
        <pt x="389" y="0" on="1"/>
        <pt x="392" y="36" on="1"/>
        <pt x="488" y="94" on="0"/>
        <pt x="581" y="242" on="0"/>
        <pt x="597" y="359" on="1"/>
        <pt x="620" y="518" on="0"/>
        <pt x="533" y="665" on="0"/>
        <pt x="414" y="665" on="1"/>
        <pt x="290" y="665" on="0"/>
        <pt x="161" y="516" on="0"/>
        <pt x="138" y="353" on="1"/>
        <pt x="121" y="233" on="0"/>
        <pt x="174" y="97" on="0"/>
        <pt x="251" y="35" on="1"/>
        <pt x="247" y="0" on="1"/>
        <pt x="13" y="0" on="1"/>
      </contour>
    </TTGlyph>
    <TTGlyph name="Oslash" xMin="79" yMin="-53" xMax="603" yMax="744">
      <contour>
        <pt x="589" y="730" on="1"/>
        <pt x="546" y="659" on="1"/>
        <pt x="591" y="621" on="0"/>
        <pt x="615" y="467" on="0"/>
        <pt x="597" y="343" on="1"/>
        <pt x="570" y="145" on="0"/>
        <pt x="435" y="-12" on="0"/>
        <pt x="292" y="-12" on="1"/>
        <pt x="203" y="-12" on="0"/>
        <pt x="154" y="16" on="1"/>
        <pt x="112" y="-53" on="1"/>
        <pt x="87" y="-39" on="1"/>
        <pt x="131" y="32" on="1"/>
        <pt x="45" y="105" on="0"/>
        <pt x="79" y="347" on="1"/>
        <pt x="107" y="544" on="0"/>
        <pt x="242" y="702" on="0"/>
        <pt x="386" y="702" on="1"/>
        <pt x="474" y="702" on="0"/>
        <pt x="522" y="675" on="1"/>
        <pt x="564" y="744" on="1"/>
      </contour>
      <contour>
        <pt x="153" y="69" on="1"/>
        <pt x="501" y="641" on="1"/>
        <pt x="461" y="665" on="0"/>
        <pt x="385" y="665" on="1"/>
        <pt x="261" y="665" on="0"/>
        <pt x="147" y="524" on="0"/>
        <pt x="121" y="343" on="1"/>
        <pt x="106" y="237" on="0"/>
        <pt x="121" y="103" on="0"/>
      </contour>
      <contour>
        <pt x="524" y="623" on="1"/>
        <pt x="175" y="51" on="1"/>
        <pt x="217" y="25" on="0"/>
        <pt x="292" y="25" on="1"/>
        <pt x="415" y="25" on="0"/>
        <pt x="529" y="166" on="0"/>
        <pt x="555" y="347" on="1"/>
        <pt x="571" y="455" on="0"/>
        <pt x="557" y="590" on="0"/>
      </contour>
    </TTGlyph>
    <TTGlyph name="Otilde" xMin="79" yMin="-12" xMax="597" yMax="870">
      <contour>
        <pt x="278" y="773" on="1"/>
        <pt x="255" y="775" on="1"/>
        <pt x="259" y="824" on="0"/>
        <pt x="306" y="873" on="0"/>
        <pt x="342" y="870" on="1"/>
        <pt x="373" y="867" on="0"/>
        <pt x="447" y="807" on="0"/>
        <pt x="474" y="805" on="1"/>
        <pt x="534" y="799" on="0"/>
        <pt x="541" y="866" on="1"/>
        <pt x="564" y="863" on="1"/>
        <pt x="560" y="817" on="0"/>
        <pt x="514" y="770" on="0"/>
        <pt x="478" y="773" on="1"/>
        <pt x="449" y="775" on="0"/>
        <pt x="403" y="805" on="0"/>
        <pt x="364" y="836" on="0"/>
        <pt x="345" y="838" on="1"/>
        <pt x="287" y="844" on="0"/>
      </contour>
      <contour>
        <pt x="386" y="702" on="1"/>
        <pt x="529" y="702" on="0"/>
        <pt x="625" y="540" on="0"/>
        <pt x="597" y="343" on="1"/>
        <pt x="570" y="145" on="0"/>
        <pt x="435" y="-12" on="0"/>
        <pt x="149" y="-12" on="0"/>
        <pt x="51" y="149" on="0"/>
        <pt x="79" y="347" on="1"/>
        <pt x="107" y="544" on="0"/>
        <pt x="242" y="702" on="0"/>
      </contour>
      <contour>
        <pt x="385" y="665" on="1"/>
        <pt x="261" y="665" on="0"/>
        <pt x="147" y="524" on="0"/>
        <pt x="121" y="343" on="1"/>
        <pt x="97" y="165" on="0"/>
        <pt x="172" y="25" on="0"/>
        <pt x="292" y="25" on="1"/>
        <pt x="415" y="25" on="0"/>
        <pt x="529" y="166" on="0"/>
        <pt x="555" y="347" on="1"/>
        <pt x="581" y="527" on="0"/>
        <pt x="507" y="665" on="0"/>
      </contour>
    </TTGlyph>
    <TTGlyph name="P" xMin="58" yMin="0" xMax="557" yMax="698">
      <contour>
        <pt x="58" y="0" on="1"/>
        <pt x="155" y="690" on="1"/>
        <pt x="237" y="698" on="0"/>
        <pt x="378" y="698" on="1"/>
        <pt x="493" y="698" on="0"/>
        <pt x="573" y="608" on="0"/>
        <pt x="557" y="490" on="1"/>
        <pt x="539" y="370" on="0"/>
        <pt x="440" y="286" on="0"/>
        <pt x="326" y="286" on="1"/>
        <pt x="218" y="286" on="0"/>
        <pt x="140" y="292" on="1"/>
        <pt x="99" y="0" on="1"/>
      </contour>
      <contour>
        <pt x="144" y="322" on="1"/>
        <pt x="325" y="322" on="1"/>
        <pt x="420" y="324" on="0"/>
        <pt x="501" y="394" on="0"/>
        <pt x="515" y="494" on="1"/>
        <pt x="529" y="592" on="0"/>
        <pt x="469" y="662" on="0"/>
        <pt x="378" y="662" on="1"/>
        <pt x="268" y="662" on="0"/>
        <pt x="192" y="660" on="1"/>
      </contour>
    </TTGlyph>
    <TTGlyph name="Q" xMin="79" yMin="-173" xMax="597" yMax="702">
      <contour>
        <pt x="386" y="702" on="1"/>
        <pt x="529" y="702" on="0"/>
        <pt x="625" y="540" on="0"/>
        <pt x="597" y="343" on="1"/>
        <pt x="570" y="145" on="0"/>
        <pt x="435" y="-12" on="0"/>
        <pt x="149" y="-12" on="0"/>
        <pt x="51" y="149" on="0"/>
        <pt x="79" y="347" on="1"/>
        <pt x="107" y="544" on="0"/>
        <pt x="242" y="702" on="0"/>
      </contour>
      <contour>
        <pt x="385" y="665" on="1"/>
        <pt x="261" y="665" on="0"/>
        <pt x="147" y="524" on="0"/>
        <pt x="121" y="343" on="1"/>
        <pt x="97" y="165" on="0"/>
        <pt x="172" y="25" on="0"/>
        <pt x="292" y="25" on="1"/>
        <pt x="415" y="25" on="0"/>
        <pt x="529" y="166" on="0"/>
        <pt x="555" y="347" on="1"/>
        <pt x="581" y="527" on="0"/>
        <pt x="507" y="665" on="0"/>
      </contour>
      <contour>
        <pt x="229" y="-73" on="1"/>
        <pt x="246" y="-49" on="1"/>
        <pt x="335" y="-110" on="0"/>
        <pt x="470" y="-132" on="1"/>
        <pt x="455" y="-173" on="1"/>
        <pt x="317" y="-150" on="0"/>
      </contour>
    </TTGlyph>
    <TTGlyph name="R" xMin="58" yMin="0" xMax="559" yMax="698">
      <contour>
        <pt x="58" y="0" on="1"/>
        <pt x="155" y="690" on="1"/>
        <pt x="237" y="698" on="0"/>
        <pt x="378" y="698" on="1"/>
        <pt x="491" y="698" on="0"/>
        <pt x="574" y="613" on="0"/>
        <pt x="559" y="500" on="1"/>
        <pt x="546" y="412" on="0"/>
        <pt x="475" y="330" on="0"/>
        <pt x="405" y="321" on="1"/>
        <pt x="405" y="316" on="1"/>
        <pt x="456" y="300" on="0"/>
        <pt x="471" y="219" on="1"/>
        <pt x="516" y="0" on="1"/>
        <pt x="473" y="0" on="1"/>
        <pt x="429" y="219" on="1"/>
        <pt x="420" y="265" on="0"/>
        <pt x="375" y="304" on="0"/>
        <pt x="336" y="304" on="1"/>
        <pt x="301" y="305" on="0"/>
        <pt x="213" y="306" on="0"/>
        <pt x="159" y="307" on="0"/>
        <pt x="142" y="308" on="1"/>
        <pt x="98" y="0" on="1"/>
      </contour>
      <contour>
        <pt x="146" y="341" on="1"/>
        <pt x="329" y="341" on="1"/>
        <pt x="422" y="343" on="0"/>
        <pt x="504" y="411" on="0"/>
        <pt x="517" y="504" on="1"/>
        <pt x="530" y="596" on="0"/>
        <pt x="469" y="662" on="0"/>
        <pt x="378" y="662" on="1"/>
        <pt x="269" y="662" on="0"/>
        <pt x="191" y="660" on="1"/>
      </contour>
    </TTGlyph>
    <TTGlyph name="Racute" xMin="58" yMin="0" xMax="559" yMax="901">
      <contour>
        <pt x="327" y="734" on="1"/>
        <pt x="309" y="755" on="1"/>
        <pt x="484" y="901" on="1"/>
        <pt x="507" y="870" on="1"/>
      </contour>
      <contour>
        <pt x="58" y="0" on="1"/>
        <pt x="155" y="690" on="1"/>
        <pt x="237" y="698" on="0"/>
        <pt x="378" y="698" on="1"/>
        <pt x="491" y="698" on="0"/>
        <pt x="574" y="613" on="0"/>
        <pt x="559" y="500" on="1"/>
        <pt x="546" y="412" on="0"/>
        <pt x="475" y="330" on="0"/>
        <pt x="405" y="321" on="1"/>
        <pt x="405" y="316" on="1"/>
        <pt x="456" y="300" on="0"/>
        <pt x="471" y="219" on="1"/>
        <pt x="516" y="0" on="1"/>
        <pt x="473" y="0" on="1"/>
        <pt x="429" y="219" on="1"/>
        <pt x="420" y="265" on="0"/>
        <pt x="375" y="304" on="0"/>
        <pt x="336" y="304" on="1"/>
        <pt x="301" y="305" on="0"/>
        <pt x="213" y="306" on="0"/>
        <pt x="159" y="307" on="0"/>
        <pt x="142" y="308" on="1"/>
        <pt x="98" y="0" on="1"/>
      </contour>
      <contour>
        <pt x="146" y="341" on="1"/>
        <pt x="329" y="341" on="1"/>
        <pt x="422" y="343" on="0"/>
        <pt x="504" y="411" on="0"/>
        <pt x="517" y="504" on="1"/>
        <pt x="530" y="596" on="0"/>
        <pt x="469" y="662" on="0"/>
        <pt x="378" y="662" on="1"/>
        <pt x="269" y="662" on="0"/>
        <pt x="191" y="660" on="1"/>
      </contour>
    </TTGlyph>
    <TTGlyph name="Rcaron" xMin="58" yMin="0" xMax="559" yMax="887">
      <contour>
        <pt x="349" y="749" on="1"/>
        <pt x="229" y="870" on="1"/>
        <pt x="246" y="887" on="1"/>
        <pt x="362" y="786" on="1"/>
        <pt x="370" y="786" on="1"/>
        <pt x="516" y="887" on="1"/>
        <pt x="531" y="869" on="1"/>
        <pt x="378" y="749" on="1"/>
      </contour>
      <contour>
        <pt x="58" y="0" on="1"/>
        <pt x="155" y="690" on="1"/>
        <pt x="237" y="698" on="0"/>
        <pt x="378" y="698" on="1"/>
        <pt x="491" y="698" on="0"/>
        <pt x="574" y="613" on="0"/>
        <pt x="559" y="500" on="1"/>
        <pt x="546" y="412" on="0"/>
        <pt x="475" y="330" on="0"/>
        <pt x="405" y="321" on="1"/>
        <pt x="405" y="316" on="1"/>
        <pt x="456" y="300" on="0"/>
        <pt x="471" y="219" on="1"/>
        <pt x="516" y="0" on="1"/>
        <pt x="473" y="0" on="1"/>
        <pt x="429" y="219" on="1"/>
        <pt x="420" y="265" on="0"/>
        <pt x="375" y="304" on="0"/>
        <pt x="336" y="304" on="1"/>
        <pt x="301" y="305" on="0"/>
        <pt x="213" y="306" on="0"/>
        <pt x="159" y="307" on="0"/>
        <pt x="142" y="308" on="1"/>
        <pt x="98" y="0" on="1"/>
      </contour>
      <contour>
        <pt x="146" y="341" on="1"/>
        <pt x="329" y="341" on="1"/>
        <pt x="422" y="343" on="0"/>
        <pt x="504" y="411" on="0"/>
        <pt x="517" y="504" on="1"/>
        <pt x="530" y="596" on="0"/>
        <pt x="469" y="662" on="0"/>
        <pt x="378" y="662" on="1"/>
        <pt x="269" y="662" on="0"/>
        <pt x="191" y="660" on="1"/>
      </contour>
    </TTGlyph>
    <TTGlyph name="Rcommaaccent" xMin="58" yMin="-255" xMax="559" yMax="698">
      <contour>
        <pt x="58" y="0" on="1"/>
        <pt x="155" y="690" on="1"/>
        <pt x="237" y="698" on="0"/>
        <pt x="378" y="698" on="1"/>
        <pt x="491" y="698" on="0"/>
        <pt x="574" y="613" on="0"/>
        <pt x="559" y="500" on="1"/>
        <pt x="546" y="412" on="0"/>
        <pt x="475" y="330" on="0"/>
        <pt x="405" y="321" on="1"/>
        <pt x="405" y="316" on="1"/>
        <pt x="456" y="300" on="0"/>
        <pt x="471" y="219" on="1"/>
        <pt x="516" y="0" on="1"/>
        <pt x="473" y="0" on="1"/>
        <pt x="429" y="219" on="1"/>
        <pt x="420" y="265" on="0"/>
        <pt x="375" y="304" on="0"/>
        <pt x="336" y="304" on="1"/>
        <pt x="301" y="305" on="0"/>
        <pt x="213" y="306" on="0"/>
        <pt x="159" y="307" on="0"/>
        <pt x="142" y="308" on="1"/>
        <pt x="98" y="0" on="1"/>
      </contour>
      <contour>
        <pt x="146" y="341" on="1"/>
        <pt x="329" y="341" on="1"/>
        <pt x="422" y="343" on="0"/>
        <pt x="504" y="411" on="0"/>
        <pt x="517" y="504" on="1"/>
        <pt x="530" y="596" on="0"/>
        <pt x="469" y="662" on="0"/>
        <pt x="378" y="662" on="1"/>
        <pt x="269" y="662" on="0"/>
        <pt x="191" y="660" on="1"/>
      </contour>
      <contour>
        <pt x="280" y="-63" on="1"/>
        <pt x="294" y="-63" on="1"/>
        <pt x="307" y="-63" on="0"/>
        <pt x="306" y="-78" on="1"/>
        <pt x="297" y="-137" on="1"/>
        <pt x="290" y="-188" on="0"/>
        <pt x="259" y="-255" on="1"/>
        <pt x="239" y="-248" on="1"/>
        <pt x="255" y="-196" on="0"/>
        <pt x="263" y="-146" on="1"/>
        <pt x="258" y="-147" on="0"/>
        <pt x="252" y="-139" on="0"/>
        <pt x="253" y="-133" on="1"/>
        <pt x="262" y="-77" on="1"/>
        <pt x="264" y="-69" on="0"/>
        <pt x="270" y="-63" on="0"/>
      </contour>
    </TTGlyph>
    <TTGlyph name="S" xMin="34" yMin="-11" xMax="520" yMax="701">
      <contour>
        <pt x="352" y="299" on="1"/>
        <pt x="206" y="359" on="1"/>
        <pt x="134" y="389" on="0"/>
        <pt x="86" y="471" on="0"/>
        <pt x="94" y="542" on="1"/>
        <pt x="102" y="596" on="0"/>
        <pt x="140" y="664" on="0"/>
        <pt x="208" y="694" on="0"/>
        <pt x="275" y="702" on="0"/>
        <pt x="330" y="701" on="1"/>
        <pt x="436" y="699" on="0"/>
        <pt x="520" y="687" on="1"/>
        <pt x="515" y="657" on="1"/>
        <pt x="397" y="664" on="0"/>
        <pt x="316" y="664" on="1"/>
        <pt x="281" y="664" on="0"/>
        <pt x="244" y="662" on="0"/>
        <pt x="193" y="649" on="0"/>
        <pt x="166" y="623" on="0"/>
        <pt x="141" y="573" on="0"/>
        <pt x="136" y="536" on="1"/>
        <pt x="130" y="480" on="0"/>
        <pt x="163" y="421" on="0"/>
        <pt x="218" y="398" on="1"/>
        <pt x="364" y="338" on="1"/>
        <pt x="442" y="306" on="0"/>
        <pt x="490" y="227" on="0"/>
        <pt x="480" y="152" on="1"/>
        <pt x="473" y="109" on="0"/>
        <pt x="444" y="49" on="0"/>
        <pt x="405" y="13" on="0"/>
        <pt x="342" y="-5" on="0"/>
        <pt x="278" y="-11" on="0"/>
        <pt x="229" y="-11" on="1"/>
        <pt x="127" y="-11" on="0"/>
        <pt x="34" y="2" on="1"/>
        <pt x="40" y="33" on="1"/>
        <pt x="156" y="25" on="0"/>
        <pt x="240" y="26" on="1"/>
        <pt x="290" y="27" on="0"/>
        <pt x="350" y="36" on="0"/>
        <pt x="403" y="62" on="0"/>
        <pt x="431" y="114" on="0"/>
        <pt x="438" y="157" on="1"/>
        <pt x="446" y="218" on="0"/>
        <pt x="412" y="274" on="0"/>
      </contour>
    </TTGlyph>
    <TTGlyph name="Sacute" xMin="34" yMin="-11" xMax="520" yMax="901">
      <contour>
        <pt x="481" y="870" on="1"/>
        <pt x="300" y="734" on="1"/>
        <pt x="283" y="755" on="1"/>
        <pt x="458" y="901" on="1"/>
      </contour>
      <contour>
        <pt x="352" y="299" on="1"/>
        <pt x="206" y="359" on="1"/>
        <pt x="134" y="389" on="0"/>
        <pt x="86" y="471" on="0"/>
        <pt x="94" y="542" on="1"/>
        <pt x="102" y="596" on="0"/>
        <pt x="140" y="664" on="0"/>
        <pt x="208" y="694" on="0"/>
        <pt x="275" y="702" on="0"/>
        <pt x="330" y="701" on="1"/>
        <pt x="436" y="699" on="0"/>
        <pt x="520" y="687" on="1"/>
        <pt x="515" y="657" on="1"/>
        <pt x="397" y="664" on="0"/>
        <pt x="316" y="664" on="1"/>
        <pt x="281" y="664" on="0"/>
        <pt x="244" y="662" on="0"/>
        <pt x="193" y="649" on="0"/>
        <pt x="166" y="623" on="0"/>
        <pt x="141" y="573" on="0"/>
        <pt x="136" y="536" on="1"/>
        <pt x="130" y="480" on="0"/>
        <pt x="163" y="421" on="0"/>
        <pt x="218" y="398" on="1"/>
        <pt x="364" y="338" on="1"/>
        <pt x="442" y="306" on="0"/>
        <pt x="490" y="227" on="0"/>
        <pt x="480" y="152" on="1"/>
        <pt x="473" y="109" on="0"/>
        <pt x="444" y="49" on="0"/>
        <pt x="405" y="13" on="0"/>
        <pt x="342" y="-5" on="0"/>
        <pt x="278" y="-11" on="0"/>
        <pt x="229" y="-11" on="1"/>
        <pt x="127" y="-11" on="0"/>
        <pt x="34" y="2" on="1"/>
        <pt x="40" y="33" on="1"/>
        <pt x="156" y="25" on="0"/>
        <pt x="240" y="26" on="1"/>
        <pt x="290" y="27" on="0"/>
        <pt x="350" y="36" on="0"/>
        <pt x="403" y="62" on="0"/>
        <pt x="431" y="114" on="0"/>
        <pt x="438" y="157" on="1"/>
        <pt x="446" y="218" on="0"/>
        <pt x="412" y="274" on="0"/>
      </contour>
    </TTGlyph>
    <TTGlyph name="Scaron" xMin="34" yMin="-11" xMax="520" yMax="887">
      <contour>
        <pt x="504" y="869" on="1"/>
        <pt x="351" y="749" on="1"/>
        <pt x="322" y="749" on="1"/>
        <pt x="203" y="870" on="1"/>
        <pt x="220" y="887" on="1"/>
        <pt x="335" y="786" on="1"/>
        <pt x="343" y="786" on="1"/>
        <pt x="489" y="887" on="1"/>
      </contour>
      <contour>
        <pt x="352" y="299" on="1"/>
        <pt x="206" y="359" on="1"/>
        <pt x="134" y="389" on="0"/>
        <pt x="86" y="471" on="0"/>
        <pt x="94" y="542" on="1"/>
        <pt x="102" y="596" on="0"/>
        <pt x="140" y="664" on="0"/>
        <pt x="208" y="694" on="0"/>
        <pt x="275" y="702" on="0"/>
        <pt x="330" y="701" on="1"/>
        <pt x="436" y="699" on="0"/>
        <pt x="520" y="687" on="1"/>
        <pt x="515" y="657" on="1"/>
        <pt x="397" y="664" on="0"/>
        <pt x="316" y="664" on="1"/>
        <pt x="281" y="664" on="0"/>
        <pt x="244" y="662" on="0"/>
        <pt x="193" y="649" on="0"/>
        <pt x="166" y="623" on="0"/>
        <pt x="141" y="573" on="0"/>
        <pt x="136" y="536" on="1"/>
        <pt x="130" y="480" on="0"/>
        <pt x="163" y="421" on="0"/>
        <pt x="218" y="398" on="1"/>
        <pt x="364" y="338" on="1"/>
        <pt x="442" y="306" on="0"/>
        <pt x="490" y="227" on="0"/>
        <pt x="480" y="152" on="1"/>
        <pt x="473" y="109" on="0"/>
        <pt x="444" y="49" on="0"/>
        <pt x="405" y="13" on="0"/>
        <pt x="342" y="-5" on="0"/>
        <pt x="278" y="-11" on="0"/>
        <pt x="229" y="-11" on="1"/>
        <pt x="127" y="-11" on="0"/>
        <pt x="34" y="2" on="1"/>
        <pt x="40" y="33" on="1"/>
        <pt x="156" y="25" on="0"/>
        <pt x="240" y="26" on="1"/>
        <pt x="290" y="27" on="0"/>
        <pt x="350" y="36" on="0"/>
        <pt x="403" y="62" on="0"/>
        <pt x="431" y="114" on="0"/>
        <pt x="438" y="157" on="1"/>
        <pt x="446" y="218" on="0"/>
        <pt x="412" y="274" on="0"/>
      </contour>
    </TTGlyph>
    <TTGlyph name="Scedilla" xMin="34" yMin="-233" xMax="520" yMax="701">
      <contour>
        <pt x="352" y="299" on="1"/>
        <pt x="206" y="359" on="1"/>
        <pt x="134" y="389" on="0"/>
        <pt x="86" y="471" on="0"/>
        <pt x="94" y="542" on="1"/>
        <pt x="102" y="596" on="0"/>
        <pt x="140" y="664" on="0"/>
        <pt x="208" y="694" on="0"/>
        <pt x="275" y="702" on="0"/>
        <pt x="330" y="701" on="1"/>
        <pt x="436" y="699" on="0"/>
        <pt x="520" y="687" on="1"/>
        <pt x="515" y="657" on="1"/>
        <pt x="397" y="664" on="0"/>
        <pt x="316" y="664" on="1"/>
        <pt x="281" y="664" on="0"/>
        <pt x="244" y="662" on="0"/>
        <pt x="193" y="649" on="0"/>
        <pt x="166" y="623" on="0"/>
        <pt x="141" y="573" on="0"/>
        <pt x="136" y="536" on="1"/>
        <pt x="130" y="480" on="0"/>
        <pt x="163" y="421" on="0"/>
        <pt x="218" y="398" on="1"/>
        <pt x="364" y="338" on="1"/>
        <pt x="442" y="306" on="0"/>
        <pt x="490" y="227" on="0"/>
        <pt x="480" y="152" on="1"/>
        <pt x="473" y="109" on="0"/>
        <pt x="444" y="49" on="0"/>
        <pt x="405" y="13" on="0"/>
        <pt x="342" y="-5" on="0"/>
        <pt x="278" y="-11" on="0"/>
        <pt x="229" y="-11" on="1"/>
        <pt x="127" y="-11" on="0"/>
        <pt x="34" y="2" on="1"/>
        <pt x="40" y="33" on="1"/>
        <pt x="156" y="25" on="0"/>
        <pt x="240" y="26" on="1"/>
        <pt x="290" y="27" on="0"/>
        <pt x="350" y="36" on="0"/>
        <pt x="403" y="62" on="0"/>
        <pt x="431" y="114" on="0"/>
        <pt x="438" y="157" on="1"/>
        <pt x="446" y="218" on="0"/>
        <pt x="412" y="274" on="0"/>
      </contour>
      <contour>
        <pt x="210" y="-79" on="1"/>
        <pt x="215" y="-59" on="1"/>
        <pt x="260" y="-56" on="0"/>
        <pt x="300" y="-88" on="0"/>
        <pt x="294" y="-126" on="1"/>
        <pt x="286" y="-180" on="0"/>
        <pt x="197" y="-241" on="0"/>
        <pt x="133" y="-233" on="1"/>
        <pt x="141" y="-210" on="1"/>
        <pt x="189" y="-212" on="0"/>
        <pt x="256" y="-161" on="0"/>
        <pt x="262" y="-123" on="1"/>
        <pt x="266" y="-99" on="0"/>
        <pt x="244" y="-80" on="0"/>
      </contour>
    </TTGlyph>
    <TTGlyph name="Scommaaccent" xMin="34" yMin="-255" xMax="520" yMax="701">
      <contour>
        <pt x="352" y="299" on="1"/>
        <pt x="206" y="359" on="1"/>
        <pt x="134" y="389" on="0"/>
        <pt x="86" y="471" on="0"/>
        <pt x="94" y="542" on="1"/>
        <pt x="102" y="596" on="0"/>
        <pt x="140" y="664" on="0"/>
        <pt x="208" y="694" on="0"/>
        <pt x="275" y="702" on="0"/>
        <pt x="330" y="701" on="1"/>
        <pt x="436" y="699" on="0"/>
        <pt x="520" y="687" on="1"/>
        <pt x="515" y="657" on="1"/>
        <pt x="397" y="664" on="0"/>
        <pt x="316" y="664" on="1"/>
        <pt x="281" y="664" on="0"/>
        <pt x="244" y="662" on="0"/>
        <pt x="193" y="649" on="0"/>
        <pt x="166" y="623" on="0"/>
        <pt x="141" y="573" on="0"/>
        <pt x="136" y="536" on="1"/>
        <pt x="130" y="480" on="0"/>
        <pt x="163" y="421" on="0"/>
        <pt x="218" y="398" on="1"/>
        <pt x="364" y="338" on="1"/>
        <pt x="442" y="306" on="0"/>
        <pt x="490" y="227" on="0"/>
        <pt x="480" y="152" on="1"/>
        <pt x="473" y="109" on="0"/>
        <pt x="444" y="49" on="0"/>
        <pt x="405" y="13" on="0"/>
        <pt x="342" y="-5" on="0"/>
        <pt x="278" y="-11" on="0"/>
        <pt x="229" y="-11" on="1"/>
        <pt x="127" y="-11" on="0"/>
        <pt x="34" y="2" on="1"/>
        <pt x="40" y="33" on="1"/>
        <pt x="156" y="25" on="0"/>
        <pt x="240" y="26" on="1"/>
        <pt x="290" y="27" on="0"/>
        <pt x="350" y="36" on="0"/>
        <pt x="403" y="62" on="0"/>
        <pt x="431" y="114" on="0"/>
        <pt x="438" y="157" on="1"/>
        <pt x="446" y="218" on="0"/>
        <pt x="412" y="274" on="0"/>
      </contour>
      <contour>
        <pt x="253" y="-63" on="1"/>
        <pt x="267" y="-63" on="1"/>
        <pt x="280" y="-63" on="0"/>
        <pt x="279" y="-78" on="1"/>
        <pt x="270" y="-137" on="1"/>
        <pt x="263" y="-188" on="0"/>
        <pt x="232" y="-255" on="1"/>
        <pt x="212" y="-248" on="1"/>
        <pt x="228" y="-196" on="0"/>
        <pt x="236" y="-146" on="1"/>
        <pt x="231" y="-147" on="0"/>
        <pt x="225" y="-139" on="0"/>
        <pt x="226" y="-133" on="1"/>
        <pt x="235" y="-77" on="1"/>
        <pt x="237" y="-69" on="0"/>
        <pt x="243" y="-63" on="0"/>
      </contour>
    </TTGlyph>
    <TTGlyph name="T" xMin="74" yMin="0" xMax="595" yMax="690">
      <contour>
        <pt x="590" y="654" on="1"/>
        <pt x="352" y="654" on="1"/>
        <pt x="260" y="0" on="1"/>
        <pt x="219" y="0" on="1"/>
        <pt x="311" y="654" on="1"/>
        <pt x="74" y="654" on="1"/>
        <pt x="79" y="690" on="1"/>
        <pt x="595" y="690" on="1"/>
      </contour>
    </TTGlyph>
    <TTGlyph name="Tbar" xMin="74" yMin="0" xMax="595" yMax="690">
      <contour>
        <pt x="352" y="654" on="1"/>
        <pt x="319" y="423" on="1"/>
        <pt x="476" y="423" on="1"/>
        <pt x="472" y="395" on="1"/>
        <pt x="316" y="395" on="1"/>
        <pt x="260" y="0" on="1"/>
        <pt x="219" y="0" on="1"/>
        <pt x="274" y="395" on="1"/>
        <pt x="132" y="395" on="1"/>
        <pt x="136" y="423" on="1"/>
        <pt x="278" y="423" on="1"/>
        <pt x="311" y="654" on="1"/>
        <pt x="74" y="654" on="1"/>
        <pt x="79" y="690" on="1"/>
        <pt x="595" y="690" on="1"/>
        <pt x="590" y="654" on="1"/>
      </contour>
    </TTGlyph>
    <TTGlyph name="Tcaron" xMin="74" yMin="0" xMax="595" yMax="887">
      <contour>
        <pt x="332" y="749" on="1"/>
        <pt x="213" y="870" on="1"/>
        <pt x="230" y="887" on="1"/>
        <pt x="345" y="786" on="1"/>
        <pt x="353" y="786" on="1"/>
        <pt x="499" y="887" on="1"/>
        <pt x="514" y="869" on="1"/>
        <pt x="362" y="749" on="1"/>
      </contour>
      <contour>
        <pt x="590" y="654" on="1"/>
        <pt x="352" y="654" on="1"/>
        <pt x="260" y="0" on="1"/>
        <pt x="219" y="0" on="1"/>
        <pt x="311" y="654" on="1"/>
        <pt x="74" y="654" on="1"/>
        <pt x="79" y="690" on="1"/>
        <pt x="595" y="690" on="1"/>
      </contour>
    </TTGlyph>
    <TTGlyph name="Tcedilla" xMin="74" yMin="-222" xMax="595" yMax="690">
      <contour>
        <pt x="590" y="654" on="1"/>
        <pt x="352" y="654" on="1"/>
        <pt x="260" y="0" on="1"/>
        <pt x="219" y="0" on="1"/>
        <pt x="311" y="654" on="1"/>
        <pt x="74" y="654" on="1"/>
        <pt x="79" y="690" on="1"/>
        <pt x="595" y="690" on="1"/>
      </contour>
      <contour>
        <pt x="193" y="-68" on="1"/>
        <pt x="198" y="-47" on="1"/>
        <pt x="290" y="-41" on="0"/>
        <pt x="277" y="-115" on="1"/>
        <pt x="269" y="-169" on="0"/>
        <pt x="180" y="-230" on="0"/>
        <pt x="117" y="-222" on="1"/>
        <pt x="125" y="-199" on="1"/>
        <pt x="172" y="-201" on="0"/>
        <pt x="240" y="-150" on="0"/>
        <pt x="246" y="-112" on="1"/>
        <pt x="249" y="-87" on="0"/>
        <pt x="227" y="-69" on="0"/>
      </contour>
    </TTGlyph>
    <TTGlyph name="Thorn" xMin="58" yMin="0" xMax="537" yMax="690">
      <contour>
        <pt x="197" y="690" on="1"/>
        <pt x="178" y="554" on="1"/>
        <pt x="230" y="558" on="0"/>
        <pt x="359" y="558" on="1"/>
        <pt x="473" y="558" on="0"/>
        <pt x="555" y="468" on="0"/>
        <pt x="537" y="349" on="1"/>
        <pt x="521" y="230" on="0"/>
        <pt x="421" y="144" on="0"/>
        <pt x="309" y="144" on="1"/>
        <pt x="212" y="144" on="0"/>
        <pt x="121" y="151" on="1"/>
        <pt x="100" y="0" on="1"/>
        <pt x="58" y="0" on="1"/>
        <pt x="136" y="549" on="1"/>
        <pt x="136" y="550" on="1"/>
        <pt x="155" y="690" on="1"/>
      </contour>
      <contour>
        <pt x="125" y="181" on="1"/>
        <pt x="306" y="181" on="1"/>
        <pt x="400" y="183" on="0"/>
        <pt x="482" y="253" on="0"/>
        <pt x="496" y="354" on="1"/>
        <pt x="509" y="453" on="0"/>
        <pt x="451" y="522" on="0"/>
        <pt x="359" y="522" on="1"/>
        <pt x="249" y="522" on="0"/>
        <pt x="173" y="520" on="1"/>
      </contour>
    </TTGlyph>
    <TTGlyph name="U" xMin="89" yMin="-12" xMax="629" yMax="690">
      <contour>
        <pt x="629" y="690" on="1"/>
        <pt x="568" y="256" on="1"/>
        <pt x="547" y="110" on="0"/>
        <pt x="424" y="-12" on="0"/>
        <pt x="295" y="-12" on="1"/>
        <pt x="164" y="-12" on="0"/>
        <pt x="69" y="113" on="0"/>
        <pt x="89" y="259" on="1"/>
        <pt x="149" y="690" on="1"/>
        <pt x="191" y="690" on="1"/>
        <pt x="130" y="256" on="1"/>
        <pt x="112" y="128" on="0"/>
        <pt x="186" y="25" on="0"/>
        <pt x="294" y="25" on="1"/>
        <pt x="403" y="25" on="0"/>
        <pt x="509" y="131" on="0"/>
        <pt x="527" y="259" on="1"/>
        <pt x="587" y="690" on="1"/>
      </contour>
    </TTGlyph>
    <TTGlyph name="Uacute" xMin="89" yMin="-12" xMax="629" yMax="901">
      <contour>
        <pt x="544" y="870" on="1"/>
        <pt x="363" y="734" on="1"/>
        <pt x="346" y="755" on="1"/>
        <pt x="521" y="901" on="1"/>
      </contour>
      <contour>
        <pt x="629" y="690" on="1"/>
        <pt x="568" y="256" on="1"/>
        <pt x="547" y="110" on="0"/>
        <pt x="424" y="-12" on="0"/>
        <pt x="295" y="-12" on="1"/>
        <pt x="164" y="-12" on="0"/>
        <pt x="69" y="113" on="0"/>
        <pt x="89" y="259" on="1"/>
        <pt x="149" y="690" on="1"/>
        <pt x="191" y="690" on="1"/>
        <pt x="130" y="256" on="1"/>
        <pt x="112" y="128" on="0"/>
        <pt x="186" y="25" on="0"/>
        <pt x="294" y="25" on="1"/>
        <pt x="403" y="25" on="0"/>
        <pt x="509" y="131" on="0"/>
        <pt x="527" y="259" on="1"/>
        <pt x="587" y="690" on="1"/>
      </contour>
    </TTGlyph>
    <TTGlyph name="Ucircumflex" xMin="89" yMin="-12" xMax="629" yMax="884">
      <contour>
        <pt x="552" y="763" on="1"/>
        <pt x="535" y="746" on="1"/>
        <pt x="419" y="847" on="1"/>
        <pt x="410" y="847" on="1"/>
        <pt x="264" y="745" on="1"/>
        <pt x="250" y="765" on="1"/>
        <pt x="401" y="884" on="1"/>
        <pt x="430" y="884" on="1"/>
      </contour>
      <contour>
        <pt x="629" y="690" on="1"/>
        <pt x="568" y="256" on="1"/>
        <pt x="547" y="110" on="0"/>
        <pt x="424" y="-12" on="0"/>
        <pt x="295" y="-12" on="1"/>
        <pt x="164" y="-12" on="0"/>
        <pt x="69" y="113" on="0"/>
        <pt x="89" y="259" on="1"/>
        <pt x="149" y="690" on="1"/>
        <pt x="191" y="690" on="1"/>
        <pt x="130" y="256" on="1"/>
        <pt x="112" y="128" on="0"/>
        <pt x="186" y="25" on="0"/>
        <pt x="294" y="25" on="1"/>
        <pt x="403" y="25" on="0"/>
        <pt x="509" y="131" on="0"/>
        <pt x="527" y="259" on="1"/>
        <pt x="587" y="690" on="1"/>
      </contour>
    </TTGlyph>
    <TTGlyph name="Udieresis" xMin="89" yMin="-12" xMax="629" yMax="860">
      <contour>
        <pt x="320" y="860" on="1"/>
        <pt x="333" y="860" on="1"/>
        <pt x="347" y="860" on="0"/>
        <pt x="346" y="844" on="1"/>
        <pt x="337" y="791" on="1"/>
        <pt x="336" y="775" on="0"/>
        <pt x="321" y="775" on="1"/>
        <pt x="309" y="775" on="1"/>
        <pt x="293" y="775" on="0"/>
        <pt x="296" y="790" on="1"/>
        <pt x="304" y="844" on="1"/>
        <pt x="305" y="860" on="0"/>
      </contour>
      <contour>
        <pt x="495" y="860" on="1"/>
        <pt x="508" y="860" on="1"/>
        <pt x="522" y="860" on="0"/>
        <pt x="521" y="844" on="1"/>
        <pt x="512" y="791" on="1"/>
        <pt x="511" y="775" on="0"/>
        <pt x="496" y="775" on="1"/>
        <pt x="483" y="775" on="1"/>
        <pt x="469" y="775" on="0"/>
        <pt x="470" y="790" on="1"/>
        <pt x="479" y="844" on="1"/>
        <pt x="480" y="860" on="0"/>
      </contour>
      <contour>
        <pt x="629" y="690" on="1"/>
        <pt x="568" y="256" on="1"/>
        <pt x="547" y="110" on="0"/>
        <pt x="424" y="-12" on="0"/>
        <pt x="295" y="-12" on="1"/>
        <pt x="164" y="-12" on="0"/>
        <pt x="69" y="113" on="0"/>
        <pt x="89" y="259" on="1"/>
        <pt x="149" y="690" on="1"/>
        <pt x="191" y="690" on="1"/>
        <pt x="130" y="256" on="1"/>
        <pt x="112" y="128" on="0"/>
        <pt x="186" y="25" on="0"/>
        <pt x="294" y="25" on="1"/>
        <pt x="403" y="25" on="0"/>
        <pt x="509" y="131" on="0"/>
        <pt x="527" y="259" on="1"/>
        <pt x="587" y="690" on="1"/>
      </contour>
    </TTGlyph>
    <TTGlyph name="Ugrave" xMin="89" yMin="-12" xMax="629" yMax="900">
      <contour>
        <pt x="440" y="753" on="1"/>
        <pt x="421" y="734" on="1"/>
        <pt x="274" y="871" on="1"/>
        <pt x="300" y="900" on="1"/>
      </contour>
      <contour>
        <pt x="629" y="690" on="1"/>
        <pt x="568" y="256" on="1"/>
        <pt x="547" y="110" on="0"/>
        <pt x="424" y="-12" on="0"/>
        <pt x="295" y="-12" on="1"/>
        <pt x="164" y="-12" on="0"/>
        <pt x="69" y="113" on="0"/>
        <pt x="89" y="259" on="1"/>
        <pt x="149" y="690" on="1"/>
        <pt x="191" y="690" on="1"/>
        <pt x="130" y="256" on="1"/>
        <pt x="112" y="128" on="0"/>
        <pt x="186" y="25" on="0"/>
        <pt x="294" y="25" on="1"/>
        <pt x="403" y="25" on="0"/>
        <pt x="509" y="131" on="0"/>
        <pt x="527" y="259" on="1"/>
        <pt x="587" y="690" on="1"/>
      </contour>
    </TTGlyph>
    <TTGlyph name="Uhungarumlaut" xMin="89" yMin="-12" xMax="629" yMax="906">
      <contour>
        <pt x="602" y="884" on="1"/>
        <pt x="458" y="731" on="1"/>
        <pt x="439" y="747" on="1"/>
        <pt x="574" y="906" on="1"/>
      </contour>
      <contour>
        <pt x="456" y="884" on="1"/>
        <pt x="312" y="731" on="1"/>
        <pt x="293" y="747" on="1"/>
        <pt x="428" y="906" on="1"/>
      </contour>
      <contour>
        <pt x="629" y="690" on="1"/>
        <pt x="568" y="256" on="1"/>
        <pt x="547" y="110" on="0"/>
        <pt x="424" y="-12" on="0"/>
        <pt x="295" y="-12" on="1"/>
        <pt x="164" y="-12" on="0"/>
        <pt x="69" y="113" on="0"/>
        <pt x="89" y="259" on="1"/>
        <pt x="149" y="690" on="1"/>
        <pt x="191" y="690" on="1"/>
        <pt x="130" y="256" on="1"/>
        <pt x="112" y="128" on="0"/>
        <pt x="186" y="25" on="0"/>
        <pt x="294" y="25" on="1"/>
        <pt x="403" y="25" on="0"/>
        <pt x="509" y="131" on="0"/>
        <pt x="527" y="259" on="1"/>
        <pt x="587" y="690" on="1"/>
      </contour>
    </TTGlyph>
    <TTGlyph name="Umacron" xMin="89" yMin="-12" xMax="629" yMax="833">
      <contour>
        <pt x="538" y="799" on="1"/>
        <pt x="273" y="799" on="1"/>
        <pt x="278" y="833" on="1"/>
        <pt x="543" y="833" on="1"/>
      </contour>
      <contour>
        <pt x="629" y="690" on="1"/>
        <pt x="568" y="256" on="1"/>
        <pt x="547" y="110" on="0"/>
        <pt x="424" y="-12" on="0"/>
        <pt x="295" y="-12" on="1"/>
        <pt x="164" y="-12" on="0"/>
        <pt x="69" y="113" on="0"/>
        <pt x="89" y="259" on="1"/>
        <pt x="149" y="690" on="1"/>
        <pt x="191" y="690" on="1"/>
        <pt x="130" y="256" on="1"/>
        <pt x="112" y="128" on="0"/>
        <pt x="186" y="25" on="0"/>
        <pt x="294" y="25" on="1"/>
        <pt x="403" y="25" on="0"/>
        <pt x="509" y="131" on="0"/>
        <pt x="527" y="259" on="1"/>
        <pt x="587" y="690" on="1"/>
      </contour>
    </TTGlyph>
    <TTGlyph name="Uogonek" xMin="89" yMin="-210" xMax="629" yMax="690">
      <contour>
        <pt x="629" y="690" on="1"/>
        <pt x="568" y="256" on="1"/>
        <pt x="548" y="119" on="0"/>
        <pt x="439" y="-4" on="0"/>
        <pt x="329" y="-11" on="1"/>
        <pt x="263" y="-72" on="0"/>
        <pt x="231" y="-134" on="1"/>
        <pt x="209" y="-177" on="0"/>
        <pt x="254" y="-204" on="0"/>
        <pt x="311" y="-185" on="1"/>
        <pt x="316" y="-203" on="1"/>
        <pt x="231" y="-235" on="0"/>
        <pt x="171" y="-185" on="0"/>
        <pt x="199" y="-129" on="1"/>
        <pt x="227" y="-72" on="0"/>
        <pt x="302" y="-12" on="1"/>
        <pt x="295" y="-12" on="1"/>
        <pt x="164" y="-12" on="0"/>
        <pt x="69" y="113" on="0"/>
        <pt x="89" y="259" on="1"/>
        <pt x="149" y="690" on="1"/>
        <pt x="191" y="690" on="1"/>
        <pt x="130" y="256" on="1"/>
        <pt x="112" y="128" on="0"/>
        <pt x="186" y="25" on="0"/>
        <pt x="294" y="25" on="1"/>
        <pt x="403" y="25" on="0"/>
        <pt x="509" y="131" on="0"/>
        <pt x="527" y="259" on="1"/>
        <pt x="587" y="690" on="1"/>
      </contour>
    </TTGlyph>
    <TTGlyph name="Uring" xMin="89" yMin="-12" xMax="629" yMax="913">
      <contour>
        <pt x="416" y="913" on="1"/>
        <pt x="460" y="913" on="0"/>
        <pt x="512" y="855" on="0"/>
        <pt x="506" y="813" on="1"/>
        <pt x="501" y="774" on="0"/>
        <pt x="443" y="718" on="0"/>
        <pt x="400" y="718" on="1"/>
        <pt x="355" y="718" on="0"/>
        <pt x="304" y="776" on="0"/>
        <pt x="309" y="818" on="1"/>
        <pt x="314" y="857" on="0"/>
        <pt x="373" y="913" on="0"/>
      </contour>
      <contour>
        <pt x="416" y="888" on="1"/>
        <pt x="384" y="888" on="0"/>
        <pt x="341" y="845" on="0"/>
        <pt x="333" y="783" on="0"/>
        <pt x="369" y="743" on="0"/>
        <pt x="431" y="743" on="0"/>
        <pt x="475" y="786" on="0"/>
        <pt x="479" y="817" on="1"/>
        <pt x="482" y="847" on="0"/>
        <pt x="447" y="888" on="0"/>
      </contour>
      <contour>
        <pt x="629" y="690" on="1"/>
        <pt x="568" y="256" on="1"/>
        <pt x="547" y="110" on="0"/>
        <pt x="424" y="-12" on="0"/>
        <pt x="295" y="-12" on="1"/>
        <pt x="164" y="-12" on="0"/>
        <pt x="69" y="113" on="0"/>
        <pt x="89" y="259" on="1"/>
        <pt x="149" y="690" on="1"/>
        <pt x="191" y="690" on="1"/>
        <pt x="130" y="256" on="1"/>
        <pt x="112" y="128" on="0"/>
        <pt x="186" y="25" on="0"/>
        <pt x="294" y="25" on="1"/>
        <pt x="403" y="25" on="0"/>
        <pt x="509" y="131" on="0"/>
        <pt x="527" y="259" on="1"/>
        <pt x="587" y="690" on="1"/>
      </contour>
    </TTGlyph>
    <TTGlyph name="V" xMin="76" yMin="0" xMax="625" yMax="690">
      <contour>
        <pt x="625" y="690" on="1"/>
        <pt x="300" y="12" on="1"/>
        <pt x="296" y="0" on="0"/>
        <pt x="281" y="0" on="1"/>
        <pt x="228" y="0" on="1"/>
        <pt x="213" y="0" on="0"/>
        <pt x="211" y="14" on="1"/>
        <pt x="76" y="690" on="1"/>
        <pt x="118" y="690" on="1"/>
        <pt x="231" y="107" on="1"/>
        <pt x="237" y="78" on="0"/>
        <pt x="244" y="33" on="1"/>
        <pt x="271" y="33" on="1"/>
        <pt x="275" y="44" on="0"/>
        <pt x="287" y="70" on="0"/>
        <pt x="301" y="101" on="0"/>
        <pt x="305" y="110" on="1"/>
        <pt x="581" y="690" on="1"/>
      </contour>
    </TTGlyph>
    <TTGlyph name="W" xMin="85" yMin="0" xMax="954" yMax="690">
      <contour>
        <pt x="954" y="690" on="1"/>
        <pt x="687" y="13" on="1"/>
        <pt x="683" y="0" on="0"/>
        <pt x="667" y="0" on="1"/>
        <pt x="610" y="0" on="1"/>
        <pt x="595" y="0" on="0"/>
        <pt x="593" y="16" on="1"/>
        <pt x="535" y="581" on="1"/>
        <pt x="534" y="594" on="0"/>
        <pt x="529" y="643" on="0"/>
        <pt x="527" y="656" on="1"/>
        <pt x="503" y="656" on="1"/>
        <pt x="473" y="578" on="1"/>
        <pt x="258" y="14" on="1"/>
        <pt x="253" y="0" on="0"/>
        <pt x="238" y="0" on="1"/>
        <pt x="181" y="0" on="1"/>
        <pt x="165" y="0" on="0"/>
        <pt x="163" y="15" on="1"/>
        <pt x="85" y="690" on="1"/>
        <pt x="127" y="690" on="1"/>
        <pt x="192" y="106" on="1"/>
        <pt x="194" y="82" on="0"/>
        <pt x="198" y="32" on="1"/>
        <pt x="226" y="32" on="1"/>
        <pt x="229" y="40" on="0"/>
        <pt x="240" y="71" on="0"/>
        <pt x="249" y="96" on="0"/>
        <pt x="253" y="107" on="1"/>
        <pt x="471" y="675" on="1"/>
        <pt x="476" y="690" on="0"/>
        <pt x="490" y="690" on="1"/>
        <pt x="544" y="690" on="1"/>
        <pt x="560" y="690" on="0"/>
        <pt x="562" y="673" on="1"/>
        <pt x="622" y="105" on="1"/>
        <pt x="622" y="101" on="0"/>
        <pt x="628" y="32" on="1"/>
        <pt x="656" y="32" on="1"/>
        <pt x="683" y="107" on="1"/>
        <pt x="911" y="690" on="1"/>
      </contour>
    </TTGlyph>
    <TTGlyph name="Wacute" xMin="85" yMin="0" xMax="954" yMax="901">
      <contour>
        <pt x="673" y="869" on="1"/>
        <pt x="493" y="734" on="1"/>
        <pt x="475" y="754" on="1"/>
        <pt x="650" y="901" on="1"/>
      </contour>
      <contour>
        <pt x="954" y="690" on="1"/>
        <pt x="687" y="13" on="1"/>
        <pt x="683" y="0" on="0"/>
        <pt x="667" y="0" on="1"/>
        <pt x="610" y="0" on="1"/>
        <pt x="595" y="0" on="0"/>
        <pt x="593" y="16" on="1"/>
        <pt x="535" y="581" on="1"/>
        <pt x="534" y="594" on="0"/>
        <pt x="529" y="643" on="0"/>
        <pt x="527" y="656" on="1"/>
        <pt x="503" y="656" on="1"/>
        <pt x="473" y="578" on="1"/>
        <pt x="258" y="14" on="1"/>
        <pt x="253" y="0" on="0"/>
        <pt x="238" y="0" on="1"/>
        <pt x="181" y="0" on="1"/>
        <pt x="165" y="0" on="0"/>
        <pt x="163" y="15" on="1"/>
        <pt x="85" y="690" on="1"/>
        <pt x="127" y="690" on="1"/>
        <pt x="192" y="106" on="1"/>
        <pt x="194" y="82" on="0"/>
        <pt x="198" y="32" on="1"/>
        <pt x="226" y="32" on="1"/>
        <pt x="229" y="40" on="0"/>
        <pt x="240" y="71" on="0"/>
        <pt x="249" y="96" on="0"/>
        <pt x="253" y="107" on="1"/>
        <pt x="471" y="675" on="1"/>
        <pt x="476" y="690" on="0"/>
        <pt x="490" y="690" on="1"/>
        <pt x="544" y="690" on="1"/>
        <pt x="560" y="690" on="0"/>
        <pt x="562" y="673" on="1"/>
        <pt x="622" y="105" on="1"/>
        <pt x="622" y="101" on="0"/>
        <pt x="628" y="32" on="1"/>
        <pt x="656" y="32" on="1"/>
        <pt x="683" y="107" on="1"/>
        <pt x="911" y="690" on="1"/>
      </contour>
    </TTGlyph>
    <TTGlyph name="Wcircumflex" xMin="85" yMin="0" xMax="954" yMax="884">
      <contour>
        <pt x="682" y="763" on="1"/>
        <pt x="665" y="745" on="1"/>
        <pt x="548" y="847" on="1"/>
        <pt x="540" y="847" on="1"/>
        <pt x="394" y="745" on="1"/>
        <pt x="380" y="764" on="1"/>
        <pt x="531" y="884" on="1"/>
        <pt x="560" y="884" on="1"/>
      </contour>
      <contour>
        <pt x="954" y="690" on="1"/>
        <pt x="687" y="13" on="1"/>
        <pt x="683" y="0" on="0"/>
        <pt x="667" y="0" on="1"/>
        <pt x="610" y="0" on="1"/>
        <pt x="595" y="0" on="0"/>
        <pt x="593" y="16" on="1"/>
        <pt x="535" y="581" on="1"/>
        <pt x="534" y="594" on="0"/>
        <pt x="529" y="643" on="0"/>
        <pt x="527" y="656" on="1"/>
        <pt x="503" y="656" on="1"/>
        <pt x="473" y="578" on="1"/>
        <pt x="258" y="14" on="1"/>
        <pt x="253" y="0" on="0"/>
        <pt x="238" y="0" on="1"/>
        <pt x="181" y="0" on="1"/>
        <pt x="165" y="0" on="0"/>
        <pt x="163" y="15" on="1"/>
        <pt x="85" y="690" on="1"/>
        <pt x="127" y="690" on="1"/>
        <pt x="192" y="106" on="1"/>
        <pt x="194" y="82" on="0"/>
        <pt x="198" y="32" on="1"/>
        <pt x="226" y="32" on="1"/>
        <pt x="229" y="40" on="0"/>
        <pt x="240" y="71" on="0"/>
        <pt x="249" y="96" on="0"/>
        <pt x="253" y="107" on="1"/>
        <pt x="471" y="675" on="1"/>
        <pt x="476" y="690" on="0"/>
        <pt x="490" y="690" on="1"/>
        <pt x="544" y="690" on="1"/>
        <pt x="560" y="690" on="0"/>
        <pt x="562" y="673" on="1"/>
        <pt x="622" y="105" on="1"/>
        <pt x="622" y="101" on="0"/>
        <pt x="628" y="32" on="1"/>
        <pt x="656" y="32" on="1"/>
        <pt x="683" y="107" on="1"/>
        <pt x="911" y="690" on="1"/>
      </contour>
    </TTGlyph>
    <TTGlyph name="Wdieresis" xMin="85" yMin="0" xMax="954" yMax="859">
      <contour>
        <pt x="450" y="859" on="1"/>
        <pt x="463" y="859" on="1"/>
        <pt x="478" y="859" on="0"/>
        <pt x="475" y="844" on="1"/>
        <pt x="467" y="791" on="1"/>
        <pt x="466" y="775" on="0"/>
        <pt x="451" y="775" on="1"/>
        <pt x="438" y="775" on="1"/>
        <pt x="424" y="775" on="0"/>
        <pt x="425" y="790" on="1"/>
        <pt x="433" y="844" on="1"/>
        <pt x="436" y="859" on="0"/>
      </contour>
      <contour>
        <pt x="624" y="859" on="1"/>
        <pt x="638" y="859" on="1"/>
        <pt x="653" y="859" on="0"/>
        <pt x="650" y="844" on="1"/>
        <pt x="642" y="791" on="1"/>
        <pt x="641" y="775" on="0"/>
        <pt x="626" y="775" on="1"/>
        <pt x="613" y="775" on="1"/>
        <pt x="599" y="775" on="0"/>
        <pt x="600" y="790" on="1"/>
        <pt x="608" y="844" on="1"/>
        <pt x="611" y="859" on="0"/>
      </contour>
      <contour>
        <pt x="954" y="690" on="1"/>
        <pt x="687" y="13" on="1"/>
        <pt x="683" y="0" on="0"/>
        <pt x="667" y="0" on="1"/>
        <pt x="610" y="0" on="1"/>
        <pt x="595" y="0" on="0"/>
        <pt x="593" y="16" on="1"/>
        <pt x="535" y="581" on="1"/>
        <pt x="534" y="594" on="0"/>
        <pt x="529" y="643" on="0"/>
        <pt x="527" y="656" on="1"/>
        <pt x="503" y="656" on="1"/>
        <pt x="473" y="578" on="1"/>
        <pt x="258" y="14" on="1"/>
        <pt x="253" y="0" on="0"/>
        <pt x="238" y="0" on="1"/>
        <pt x="181" y="0" on="1"/>
        <pt x="165" y="0" on="0"/>
        <pt x="163" y="15" on="1"/>
        <pt x="85" y="690" on="1"/>
        <pt x="127" y="690" on="1"/>
        <pt x="192" y="106" on="1"/>
        <pt x="194" y="82" on="0"/>
        <pt x="198" y="32" on="1"/>
        <pt x="226" y="32" on="1"/>
        <pt x="229" y="40" on="0"/>
        <pt x="240" y="71" on="0"/>
        <pt x="249" y="96" on="0"/>
        <pt x="253" y="107" on="1"/>
        <pt x="471" y="675" on="1"/>
        <pt x="476" y="690" on="0"/>
        <pt x="490" y="690" on="1"/>
        <pt x="544" y="690" on="1"/>
        <pt x="560" y="690" on="0"/>
        <pt x="562" y="673" on="1"/>
        <pt x="622" y="105" on="1"/>
        <pt x="622" y="101" on="0"/>
        <pt x="628" y="32" on="1"/>
        <pt x="656" y="32" on="1"/>
        <pt x="683" y="107" on="1"/>
        <pt x="911" y="690" on="1"/>
      </contour>
    </TTGlyph>
    <TTGlyph name="Wgrave" xMin="85" yMin="0" xMax="954" yMax="900">
      <contour>
        <pt x="569" y="753" on="1"/>
        <pt x="551" y="734" on="1"/>
        <pt x="404" y="871" on="1"/>
        <pt x="430" y="900" on="1"/>
      </contour>
      <contour>
        <pt x="954" y="690" on="1"/>
        <pt x="687" y="13" on="1"/>
        <pt x="683" y="0" on="0"/>
        <pt x="667" y="0" on="1"/>
        <pt x="610" y="0" on="1"/>
        <pt x="595" y="0" on="0"/>
        <pt x="593" y="16" on="1"/>
        <pt x="535" y="581" on="1"/>
        <pt x="534" y="594" on="0"/>
        <pt x="529" y="643" on="0"/>
        <pt x="527" y="656" on="1"/>
        <pt x="503" y="656" on="1"/>
        <pt x="473" y="578" on="1"/>
        <pt x="258" y="14" on="1"/>
        <pt x="253" y="0" on="0"/>
        <pt x="238" y="0" on="1"/>
        <pt x="181" y="0" on="1"/>
        <pt x="165" y="0" on="0"/>
        <pt x="163" y="15" on="1"/>
        <pt x="85" y="690" on="1"/>
        <pt x="127" y="690" on="1"/>
        <pt x="192" y="106" on="1"/>
        <pt x="194" y="82" on="0"/>
        <pt x="198" y="32" on="1"/>
        <pt x="226" y="32" on="1"/>
        <pt x="229" y="40" on="0"/>
        <pt x="240" y="71" on="0"/>
        <pt x="249" y="96" on="0"/>
        <pt x="253" y="107" on="1"/>
        <pt x="471" y="675" on="1"/>
        <pt x="476" y="690" on="0"/>
        <pt x="490" y="690" on="1"/>
        <pt x="544" y="690" on="1"/>
        <pt x="560" y="690" on="0"/>
        <pt x="562" y="673" on="1"/>
        <pt x="622" y="105" on="1"/>
        <pt x="622" y="101" on="0"/>
        <pt x="628" y="32" on="1"/>
        <pt x="656" y="32" on="1"/>
        <pt x="683" y="107" on="1"/>
        <pt x="911" y="690" on="1"/>
      </contour>
    </TTGlyph>
    <TTGlyph name="X" xMin="-8" yMin="0" xMax="605" yMax="690">
      <contour>
        <pt x="359" y="359" on="1"/>
        <pt x="521" y="0" on="1"/>
        <pt x="478" y="0" on="1"/>
        <pt x="325" y="343" on="1"/>
        <pt x="291" y="343" on="1"/>
        <pt x="41" y="0" on="1"/>
        <pt x="-8" y="0" on="1"/>
        <pt x="256" y="360" on="1"/>
        <pt x="103" y="690" on="1"/>
        <pt x="146" y="690" on="1"/>
        <pt x="290" y="377" on="1"/>
        <pt x="325" y="377" on="1"/>
        <pt x="559" y="690" on="1"/>
        <pt x="605" y="690" on="1"/>
      </contour>
    </TTGlyph>
    <TTGlyph name="Y" xMin="71" yMin="0" xMax="579" yMax="690">
      <contour>
        <pt x="285" y="253" on="1"/>
        <pt x="249" y="0" on="1"/>
        <pt x="207" y="0" on="1"/>
        <pt x="244" y="254" on="1"/>
        <pt x="71" y="690" on="1"/>
        <pt x="113" y="690" on="1"/>
        <pt x="239" y="367" on="1"/>
        <pt x="257" y="320" on="0"/>
        <pt x="265" y="295" on="1"/>
        <pt x="272" y="295" on="1"/>
        <pt x="292" y="331" on="0"/>
        <pt x="317" y="368" on="1"/>
        <pt x="534" y="690" on="1"/>
        <pt x="579" y="690" on="1"/>
      </contour>
    </TTGlyph>
    <TTGlyph name="Yacute" xMin="71" yMin="0" xMax="579" yMax="901">
      <contour>
        <pt x="298" y="734" on="1"/>
        <pt x="281" y="755" on="1"/>
        <pt x="455" y="901" on="1"/>
        <pt x="479" y="870" on="1"/>
      </contour>
      <contour>
        <pt x="285" y="253" on="1"/>
        <pt x="249" y="0" on="1"/>
        <pt x="207" y="0" on="1"/>
        <pt x="244" y="254" on="1"/>
        <pt x="71" y="690" on="1"/>
        <pt x="113" y="690" on="1"/>
        <pt x="239" y="367" on="1"/>
        <pt x="257" y="320" on="0"/>
        <pt x="265" y="295" on="1"/>
        <pt x="272" y="295" on="1"/>
        <pt x="292" y="331" on="0"/>
        <pt x="317" y="368" on="1"/>
        <pt x="534" y="690" on="1"/>
        <pt x="579" y="690" on="1"/>
      </contour>
    </TTGlyph>
    <TTGlyph name="Ycircumflex" xMin="71" yMin="0" xMax="579" yMax="884">
      <contour>
        <pt x="199" y="745" on="1"/>
        <pt x="185" y="765" on="1"/>
        <pt x="336" y="884" on="1"/>
        <pt x="365" y="884" on="1"/>
        <pt x="487" y="763" on="1"/>
        <pt x="470" y="746" on="1"/>
        <pt x="354" y="847" on="1"/>
        <pt x="345" y="847" on="1"/>
      </contour>
      <contour>
        <pt x="285" y="253" on="1"/>
        <pt x="249" y="0" on="1"/>
        <pt x="207" y="0" on="1"/>
        <pt x="244" y="254" on="1"/>
        <pt x="71" y="690" on="1"/>
        <pt x="113" y="690" on="1"/>
        <pt x="239" y="367" on="1"/>
        <pt x="257" y="320" on="0"/>
        <pt x="265" y="295" on="1"/>
        <pt x="272" y="295" on="1"/>
        <pt x="292" y="331" on="0"/>
        <pt x="317" y="368" on="1"/>
        <pt x="534" y="690" on="1"/>
        <pt x="579" y="690" on="1"/>
      </contour>
    </TTGlyph>
    <TTGlyph name="Ydieresis" xMin="71" yMin="0" xMax="579" yMax="860">
      <contour>
        <pt x="256" y="775" on="1"/>
        <pt x="244" y="775" on="1"/>
        <pt x="229" y="775" on="0"/>
        <pt x="230" y="790" on="1"/>
        <pt x="239" y="844" on="1"/>
        <pt x="240" y="860" on="0"/>
        <pt x="255" y="860" on="1"/>
        <pt x="268" y="860" on="1"/>
        <pt x="282" y="860" on="0"/>
        <pt x="281" y="844" on="1"/>
        <pt x="272" y="791" on="1"/>
        <pt x="271" y="775" on="0"/>
      </contour>
      <contour>
        <pt x="431" y="775" on="1"/>
        <pt x="418" y="775" on="1"/>
        <pt x="404" y="775" on="0"/>
        <pt x="405" y="790" on="1"/>
        <pt x="414" y="844" on="1"/>
        <pt x="415" y="860" on="0"/>
        <pt x="430" y="860" on="1"/>
        <pt x="443" y="860" on="1"/>
        <pt x="458" y="860" on="0"/>
        <pt x="455" y="844" on="1"/>
        <pt x="447" y="791" on="1"/>
        <pt x="446" y="775" on="0"/>
      </contour>
      <contour>
        <pt x="285" y="253" on="1"/>
        <pt x="249" y="0" on="1"/>
        <pt x="207" y="0" on="1"/>
        <pt x="244" y="254" on="1"/>
        <pt x="71" y="690" on="1"/>
        <pt x="113" y="690" on="1"/>
        <pt x="239" y="367" on="1"/>
        <pt x="257" y="320" on="0"/>
        <pt x="265" y="295" on="1"/>
        <pt x="272" y="295" on="1"/>
        <pt x="292" y="331" on="0"/>
        <pt x="317" y="368" on="1"/>
        <pt x="534" y="690" on="1"/>
        <pt x="579" y="690" on="1"/>
      </contour>
    </TTGlyph>
    <TTGlyph name="Ygrave" xMin="71" yMin="0" xMax="579" yMax="900">
      <contour>
        <pt x="356" y="734" on="1"/>
        <pt x="209" y="871" on="1"/>
        <pt x="235" y="900" on="1"/>
        <pt x="375" y="753" on="1"/>
      </contour>
      <contour>
        <pt x="285" y="253" on="1"/>
        <pt x="249" y="0" on="1"/>
        <pt x="207" y="0" on="1"/>
        <pt x="244" y="254" on="1"/>
        <pt x="71" y="690" on="1"/>
        <pt x="113" y="690" on="1"/>
        <pt x="239" y="367" on="1"/>
        <pt x="257" y="320" on="0"/>
        <pt x="265" y="295" on="1"/>
        <pt x="272" y="295" on="1"/>
        <pt x="292" y="331" on="0"/>
        <pt x="317" y="368" on="1"/>
        <pt x="534" y="690" on="1"/>
        <pt x="579" y="690" on="1"/>
      </contour>
    </TTGlyph>
    <TTGlyph name="Z" xMin="7" yMin="0" xMax="558" yMax="690">
      <contour>
        <pt x="60" y="36" on="1"/>
        <pt x="472" y="36" on="1"/>
        <pt x="466" y="0" on="1"/>
        <pt x="7" y="0" on="1"/>
        <pt x="13" y="36" on="1"/>
        <pt x="505" y="654" on="1"/>
        <pt x="103" y="654" on="1"/>
        <pt x="108" y="690" on="1"/>
        <pt x="558" y="690" on="1"/>
        <pt x="553" y="654" on="1"/>
      </contour>
    </TTGlyph>
    <TTGlyph name="Zacute" xMin="7" yMin="0" xMax="558" yMax="901">
      <contour>
        <pt x="307" y="734" on="1"/>
        <pt x="289" y="755" on="1"/>
        <pt x="464" y="901" on="1"/>
        <pt x="487" y="870" on="1"/>
      </contour>
      <contour>
        <pt x="60" y="36" on="1"/>
        <pt x="472" y="36" on="1"/>
        <pt x="466" y="0" on="1"/>
        <pt x="7" y="0" on="1"/>
        <pt x="13" y="36" on="1"/>
        <pt x="505" y="654" on="1"/>
        <pt x="103" y="654" on="1"/>
        <pt x="108" y="690" on="1"/>
        <pt x="558" y="690" on="1"/>
        <pt x="553" y="654" on="1"/>
      </contour>
    </TTGlyph>
    <TTGlyph name="Zcaron" xMin="7" yMin="0" xMax="558" yMax="887">
      <contour>
        <pt x="329" y="749" on="1"/>
        <pt x="209" y="870" on="1"/>
        <pt x="226" y="887" on="1"/>
        <pt x="342" y="786" on="1"/>
        <pt x="350" y="786" on="1"/>
        <pt x="496" y="887" on="1"/>
        <pt x="511" y="869" on="1"/>
        <pt x="358" y="749" on="1"/>
      </contour>
      <contour>
        <pt x="60" y="36" on="1"/>
        <pt x="472" y="36" on="1"/>
        <pt x="466" y="0" on="1"/>
        <pt x="7" y="0" on="1"/>
        <pt x="13" y="36" on="1"/>
        <pt x="505" y="654" on="1"/>
        <pt x="103" y="654" on="1"/>
        <pt x="108" y="690" on="1"/>
        <pt x="558" y="690" on="1"/>
        <pt x="553" y="654" on="1"/>
      </contour>
    </TTGlyph>
    <TTGlyph name="Zdotaccent" xMin="7" yMin="0" xMax="558" yMax="862">
      <contour>
        <pt x="353" y="770" on="1"/>
        <pt x="340" y="770" on="1"/>
        <pt x="323" y="770" on="0"/>
        <pt x="325" y="787" on="1"/>
        <pt x="333" y="846" on="1"/>
        <pt x="334" y="862" on="0"/>
        <pt x="350" y="862" on="1"/>
        <pt x="365" y="862" on="1"/>
        <pt x="381" y="862" on="0"/>
        <pt x="379" y="845" on="1"/>
        <pt x="371" y="786" on="1"/>
        <pt x="368" y="770" on="0"/>
      </contour>
      <contour>
        <pt x="60" y="36" on="1"/>
        <pt x="472" y="36" on="1"/>
        <pt x="466" y="0" on="1"/>
        <pt x="7" y="0" on="1"/>
        <pt x="13" y="36" on="1"/>
        <pt x="505" y="654" on="1"/>
        <pt x="103" y="654" on="1"/>
        <pt x="108" y="690" on="1"/>
        <pt x="558" y="690" on="1"/>
        <pt x="553" y="654" on="1"/>
      </contour>
    </TTGlyph>
    <TTGlyph name="a" xMin="65" yMin="-12" xMax="504" yMax="494">
      <contour>
        <pt x="437" y="0" on="1"/>
        <pt x="406" y="0" on="1"/>
        <pt x="419" y="118" on="1"/>
        <pt x="365" y="57" on="0"/>
        <pt x="235" y="-12" on="0"/>
        <pt x="181" y="-12" on="1"/>
        <pt x="93" y="-12" on="0"/>
        <pt x="43" y="106" on="0"/>
        <pt x="65" y="244" on="1"/>
        <pt x="89" y="396" on="0"/>
        <pt x="188" y="494" on="0"/>
        <pt x="313" y="494" on="1"/>
        <pt x="397" y="494" on="0"/>
        <pt x="504" y="479" on="1"/>
      </contour>
      <contour>
        <pt x="419" y="156" on="1"/>
        <pt x="460" y="453" on="1"/>
        <pt x="346" y="459" on="0"/>
        <pt x="321" y="459" on="1"/>
        <pt x="206" y="459" on="0"/>
        <pt x="126" y="377" on="0"/>
        <pt x="105" y="239" on="1"/>
        <pt x="85" y="122" on="0"/>
        <pt x="118" y="24" on="0"/>
        <pt x="185" y="24" on="1"/>
        <pt x="235" y="24" on="0"/>
        <pt x="360" y="93" on="0"/>
      </contour>
    </TTGlyph>
    <TTGlyph name="aacute" xMin="65" yMin="-12" xMax="504" yMax="719">
      <contour>
        <pt x="292" y="552" on="1"/>
        <pt x="274" y="573" on="1"/>
        <pt x="449" y="719" on="1"/>
        <pt x="473" y="688" on="1"/>
      </contour>
      <contour>
        <pt x="437" y="0" on="1"/>
        <pt x="406" y="0" on="1"/>
        <pt x="419" y="118" on="1"/>
        <pt x="365" y="57" on="0"/>
        <pt x="235" y="-12" on="0"/>
        <pt x="181" y="-12" on="1"/>
        <pt x="93" y="-12" on="0"/>
        <pt x="43" y="106" on="0"/>
        <pt x="65" y="244" on="1"/>
        <pt x="89" y="396" on="0"/>
        <pt x="188" y="494" on="0"/>
        <pt x="313" y="494" on="1"/>
        <pt x="397" y="494" on="0"/>
        <pt x="504" y="479" on="1"/>
      </contour>
      <contour>
        <pt x="419" y="156" on="1"/>
        <pt x="460" y="453" on="1"/>
        <pt x="346" y="459" on="0"/>
        <pt x="321" y="459" on="1"/>
        <pt x="206" y="459" on="0"/>
        <pt x="126" y="377" on="0"/>
        <pt x="105" y="239" on="1"/>
        <pt x="85" y="122" on="0"/>
        <pt x="118" y="24" on="0"/>
        <pt x="185" y="24" on="1"/>
        <pt x="235" y="24" on="0"/>
        <pt x="360" y="93" on="0"/>
      </contour>
    </TTGlyph>
    <TTGlyph name="abreve" xMin="65" yMin="-12" xMax="504" yMax="696">
      <contour>
        <pt x="459" y="696" on="1"/>
        <pt x="483" y="688" on="1"/>
        <pt x="476" y="634" on="0"/>
        <pt x="395" y="571" on="0"/>
        <pt x="331" y="571" on="1"/>
        <pt x="264" y="571" on="0"/>
        <pt x="196" y="636" on="0"/>
        <pt x="204" y="691" on="1"/>
        <pt x="229" y="693" on="1"/>
        <pt x="222" y="651" on="0"/>
        <pt x="277" y="605" on="0"/>
        <pt x="330" y="605" on="1"/>
        <pt x="384" y="605" on="0"/>
        <pt x="454" y="654" on="0"/>
      </contour>
      <contour>
        <pt x="437" y="0" on="1"/>
        <pt x="406" y="0" on="1"/>
        <pt x="419" y="118" on="1"/>
        <pt x="365" y="57" on="0"/>
        <pt x="235" y="-12" on="0"/>
        <pt x="181" y="-12" on="1"/>
        <pt x="93" y="-12" on="0"/>
        <pt x="43" y="106" on="0"/>
        <pt x="65" y="244" on="1"/>
        <pt x="89" y="396" on="0"/>
        <pt x="188" y="494" on="0"/>
        <pt x="313" y="494" on="1"/>
        <pt x="397" y="494" on="0"/>
        <pt x="504" y="479" on="1"/>
      </contour>
      <contour>
        <pt x="419" y="156" on="1"/>
        <pt x="460" y="453" on="1"/>
        <pt x="346" y="459" on="0"/>
        <pt x="321" y="459" on="1"/>
        <pt x="206" y="459" on="0"/>
        <pt x="126" y="377" on="0"/>
        <pt x="105" y="239" on="1"/>
        <pt x="85" y="122" on="0"/>
        <pt x="118" y="24" on="0"/>
        <pt x="185" y="24" on="1"/>
        <pt x="235" y="24" on="0"/>
        <pt x="360" y="93" on="0"/>
      </contour>
    </TTGlyph>
    <TTGlyph name="acircumflex" xMin="65" yMin="-12" xMax="504" yMax="703">
      <contour>
        <pt x="193" y="564" on="1"/>
        <pt x="179" y="583" on="1"/>
        <pt x="330" y="703" on="1"/>
        <pt x="359" y="703" on="1"/>
        <pt x="481" y="582" on="1"/>
        <pt x="464" y="564" on="1"/>
        <pt x="348" y="666" on="1"/>
        <pt x="339" y="666" on="1"/>
      </contour>
      <contour>
        <pt x="437" y="0" on="1"/>
        <pt x="406" y="0" on="1"/>
        <pt x="419" y="118" on="1"/>
        <pt x="365" y="57" on="0"/>
        <pt x="235" y="-12" on="0"/>
        <pt x="181" y="-12" on="1"/>
        <pt x="93" y="-12" on="0"/>
        <pt x="43" y="106" on="0"/>
        <pt x="65" y="244" on="1"/>
        <pt x="89" y="396" on="0"/>
        <pt x="188" y="494" on="0"/>
        <pt x="313" y="494" on="1"/>
        <pt x="397" y="494" on="0"/>
        <pt x="504" y="479" on="1"/>
      </contour>
      <contour>
        <pt x="419" y="156" on="1"/>
        <pt x="460" y="453" on="1"/>
        <pt x="346" y="459" on="0"/>
        <pt x="321" y="459" on="1"/>
        <pt x="206" y="459" on="0"/>
        <pt x="126" y="377" on="0"/>
        <pt x="105" y="239" on="1"/>
        <pt x="85" y="122" on="0"/>
        <pt x="118" y="24" on="0"/>
        <pt x="185" y="24" on="1"/>
        <pt x="235" y="24" on="0"/>
        <pt x="360" y="93" on="0"/>
      </contour>
    </TTGlyph>
    <TTGlyph name="acute" xMin="103" yMin="547" xMax="301" yMax="714">
      <contour>
        <pt x="301" y="683" on="1"/>
        <pt x="120" y="547" on="1"/>
        <pt x="103" y="567" on="1"/>
        <pt x="278" y="714" on="1"/>
      </contour>
    </TTGlyph>
    <TTGlyph name="adieresis" xMin="65" yMin="-12" xMax="504" yMax="678">
      <contour>
        <pt x="250" y="594" on="1"/>
        <pt x="237" y="594" on="1"/>
        <pt x="223" y="594" on="0"/>
        <pt x="224" y="609" on="1"/>
        <pt x="233" y="663" on="1"/>
        <pt x="234" y="678" on="0"/>
        <pt x="249" y="678" on="1"/>
        <pt x="262" y="678" on="1"/>
        <pt x="277" y="678" on="0"/>
        <pt x="274" y="663" on="1"/>
        <pt x="266" y="610" on="1"/>
        <pt x="265" y="594" on="0"/>
      </contour>
      <contour>
        <pt x="425" y="594" on="1"/>
        <pt x="412" y="594" on="1"/>
        <pt x="398" y="594" on="0"/>
        <pt x="399" y="609" on="1"/>
        <pt x="407" y="663" on="1"/>
        <pt x="410" y="678" on="0"/>
        <pt x="424" y="678" on="1"/>
        <pt x="437" y="678" on="1"/>
        <pt x="452" y="678" on="0"/>
        <pt x="449" y="663" on="1"/>
        <pt x="441" y="610" on="1"/>
        <pt x="440" y="594" on="0"/>
      </contour>
      <contour>
        <pt x="437" y="0" on="1"/>
        <pt x="406" y="0" on="1"/>
        <pt x="419" y="118" on="1"/>
        <pt x="365" y="57" on="0"/>
        <pt x="235" y="-12" on="0"/>
        <pt x="181" y="-12" on="1"/>
        <pt x="93" y="-12" on="0"/>
        <pt x="43" y="106" on="0"/>
        <pt x="65" y="244" on="1"/>
        <pt x="89" y="396" on="0"/>
        <pt x="188" y="494" on="0"/>
        <pt x="313" y="494" on="1"/>
        <pt x="397" y="494" on="0"/>
        <pt x="504" y="479" on="1"/>
      </contour>
      <contour>
        <pt x="419" y="156" on="1"/>
        <pt x="460" y="453" on="1"/>
        <pt x="346" y="459" on="0"/>
        <pt x="321" y="459" on="1"/>
        <pt x="206" y="459" on="0"/>
        <pt x="126" y="377" on="0"/>
        <pt x="105" y="239" on="1"/>
        <pt x="85" y="122" on="0"/>
        <pt x="118" y="24" on="0"/>
        <pt x="185" y="24" on="1"/>
        <pt x="235" y="24" on="0"/>
        <pt x="360" y="93" on="0"/>
      </contour>
    </TTGlyph>
    <TTGlyph name="ae" xMin="63" yMin="-12" xMax="819" yMax="494">
      <contour>
        <pt x="766" y="36" on="1"/>
        <pt x="770" y="8" on="1"/>
        <pt x="703" y="-12" on="0"/>
        <pt x="579" y="-12" on="1"/>
        <pt x="494" y="-12" on="0"/>
        <pt x="407" y="47" on="0"/>
        <pt x="397" y="111" on="1"/>
        <pt x="292" y="-12" on="0"/>
        <pt x="171" y="-12" on="1"/>
        <pt x="87" y="-12" on="0"/>
        <pt x="43" y="112" on="0"/>
        <pt x="63" y="244" on="1"/>
        <pt x="86" y="395" on="0"/>
        <pt x="186" y="494" on="0"/>
        <pt x="307" y="494" on="1"/>
        <pt x="400" y="494" on="0"/>
        <pt x="520" y="472" on="1"/>
        <pt x="570" y="494" on="0"/>
        <pt x="653" y="494" on="1"/>
        <pt x="753" y="494" on="0"/>
        <pt x="838" y="427" on="0"/>
        <pt x="819" y="344" on="1"/>
        <pt x="806" y="283" on="0"/>
        <pt x="733" y="233" on="0"/>
        <pt x="654" y="225" on="1"/>
        <pt x="436" y="202" on="1"/>
        <pt x="425" y="98" on="0"/>
        <pt x="495" y="23" on="0"/>
        <pt x="590" y="23" on="1"/>
        <pt x="671" y="23" on="0"/>
      </contour>
      <contour>
        <pt x="176" y="24" on="1"/>
        <pt x="280" y="24" on="0"/>
        <pt x="393" y="145" on="1"/>
        <pt x="392" y="186" on="0"/>
        <pt x="401" y="247" on="1"/>
        <pt x="421" y="390" on="0"/>
        <pt x="481" y="446" on="1"/>
        <pt x="355" y="459" on="0"/>
        <pt x="315" y="459" on="1"/>
        <pt x="256" y="459" on="0"/>
        <pt x="186" y="441" on="0"/>
        <pt x="138" y="388" on="0"/>
        <pt x="114" y="309" on="0"/>
        <pt x="103" y="239" on="1"/>
        <pt x="84" y="126" on="0"/>
        <pt x="114" y="24" on="0"/>
      </contour>
      <contour>
        <pt x="440" y="234" on="1"/>
        <pt x="654" y="258" on="1"/>
        <pt x="716" y="265" on="0"/>
        <pt x="769" y="301" on="0"/>
        <pt x="780" y="347" on="1"/>
        <pt x="784" y="372" on="0"/>
        <pt x="787" y="408" on="0"/>
        <pt x="769" y="433" on="0"/>
        <pt x="750" y="448" on="0"/>
        <pt x="714" y="456" on="0"/>
        <pt x="680" y="459" on="0"/>
        <pt x="656" y="459" on="1"/>
        <pt x="602" y="459" on="0"/>
        <pt x="537" y="444" on="0"/>
        <pt x="483" y="398" on="0"/>
        <pt x="452" y="314" on="0"/>
        <pt x="441" y="244" on="1"/>
      </contour>
    </TTGlyph>
    <TTGlyph name="agrave" xMin="65" yMin="-12" xMax="504" yMax="718">
      <contour>
        <pt x="350" y="552" on="1"/>
        <pt x="203" y="689" on="1"/>
        <pt x="229" y="718" on="1"/>
        <pt x="368" y="571" on="1"/>
      </contour>
      <contour>
        <pt x="437" y="0" on="1"/>
        <pt x="406" y="0" on="1"/>
        <pt x="419" y="118" on="1"/>
        <pt x="365" y="57" on="0"/>
        <pt x="235" y="-12" on="0"/>
        <pt x="181" y="-12" on="1"/>
        <pt x="93" y="-12" on="0"/>
        <pt x="43" y="106" on="0"/>
        <pt x="65" y="244" on="1"/>
        <pt x="89" y="396" on="0"/>
        <pt x="188" y="494" on="0"/>
        <pt x="313" y="494" on="1"/>
        <pt x="397" y="494" on="0"/>
        <pt x="504" y="479" on="1"/>
      </contour>
      <contour>
        <pt x="419" y="156" on="1"/>
        <pt x="460" y="453" on="1"/>
        <pt x="346" y="459" on="0"/>
        <pt x="321" y="459" on="1"/>
        <pt x="206" y="459" on="0"/>
        <pt x="126" y="377" on="0"/>
        <pt x="105" y="239" on="1"/>
        <pt x="85" y="122" on="0"/>
        <pt x="118" y="24" on="0"/>
        <pt x="185" y="24" on="1"/>
        <pt x="235" y="24" on="0"/>
        <pt x="360" y="93" on="0"/>
      </contour>
    </TTGlyph>
    <TTGlyph name="amacron" xMin="65" yMin="-12" xMax="504" yMax="651">
      <contour>
        <pt x="467" y="618" on="1"/>
        <pt x="202" y="618" on="1"/>
        <pt x="207" y="651" on="1"/>
        <pt x="471" y="651" on="1"/>
      </contour>
      <contour>
        <pt x="437" y="0" on="1"/>
        <pt x="406" y="0" on="1"/>
        <pt x="419" y="118" on="1"/>
        <pt x="365" y="57" on="0"/>
        <pt x="235" y="-12" on="0"/>
        <pt x="181" y="-12" on="1"/>
        <pt x="93" y="-12" on="0"/>
        <pt x="43" y="106" on="0"/>
        <pt x="65" y="244" on="1"/>
        <pt x="89" y="396" on="0"/>
        <pt x="188" y="494" on="0"/>
        <pt x="313" y="494" on="1"/>
        <pt x="397" y="494" on="0"/>
        <pt x="504" y="479" on="1"/>
      </contour>
      <contour>
        <pt x="419" y="156" on="1"/>
        <pt x="460" y="453" on="1"/>
        <pt x="346" y="459" on="0"/>
        <pt x="321" y="459" on="1"/>
        <pt x="206" y="459" on="0"/>
        <pt x="126" y="377" on="0"/>
        <pt x="105" y="239" on="1"/>
        <pt x="85" y="122" on="0"/>
        <pt x="118" y="24" on="0"/>
        <pt x="185" y="24" on="1"/>
        <pt x="235" y="24" on="0"/>
        <pt x="360" y="93" on="0"/>
      </contour>
    </TTGlyph>
    <TTGlyph name="ampersand" xMin="53" yMin="-11" xMax="743" yMax="699">
      <contour>
        <pt x="735" y="341" on="1"/>
        <pt x="599" y="341" on="1"/>
        <pt x="581" y="229" on="0"/>
        <pt x="532" y="148" on="1"/>
        <pt x="481" y="63" on="0"/>
        <pt x="339" y="-9" on="0"/>
        <pt x="240" y="-11" on="1"/>
        <pt x="125" y="-14" on="0"/>
        <pt x="36" y="69" on="0"/>
        <pt x="53" y="177" on="1"/>
        <pt x="67" y="266" on="0"/>
        <pt x="162" y="354" on="0"/>
        <pt x="248" y="356" on="1"/>
        <pt x="248" y="360" on="1"/>
        <pt x="175" y="365" on="0"/>
        <pt x="125" y="447" on="0"/>
        <pt x="138" y="523" on="1"/>
        <pt x="156" y="627" on="0"/>
        <pt x="267" y="699" on="0"/>
        <pt x="386" y="699" on="1"/>
        <pt x="472" y="699" on="0"/>
        <pt x="545" y="676" on="1"/>
        <pt x="538" y="646" on="1"/>
        <pt x="467" y="663" on="0"/>
        <pt x="385" y="663" on="1"/>
        <pt x="282" y="663" on="0"/>
        <pt x="194" y="606" on="0"/>
        <pt x="179" y="518" on="1"/>
        <pt x="164" y="434" on="0"/>
        <pt x="237" y="374" on="0"/>
        <pt x="339" y="374" on="1"/>
        <pt x="566" y="374" on="1"/>
        <pt x="574" y="442" on="0"/>
        <pt x="572" y="521" on="1"/>
        <pt x="610" y="521" on="1"/>
        <pt x="611" y="448" on="0"/>
        <pt x="603" y="374" on="1"/>
        <pt x="743" y="374" on="1"/>
      </contour>
      <contour>
        <pt x="561" y="341" on="1"/>
        <pt x="336" y="341" on="1"/>
        <pt x="276" y="340" on="0"/>
        <pt x="202" y="328" on="0"/>
        <pt x="140" y="294" on="0"/>
        <pt x="106" y="229" on="0"/>
        <pt x="96" y="176" on="1"/>
        <pt x="80" y="86" on="0"/>
        <pt x="147" y="26" on="0"/>
        <pt x="225" y="26" on="1"/>
        <pt x="324" y="26" on="0"/>
        <pt x="454" y="92" on="0"/>
        <pt x="499" y="166" on="1"/>
        <pt x="544" y="239" on="0"/>
      </contour>
    </TTGlyph>
    <TTGlyph name="aogonek" xMin="65" yMin="-201" xMax="504" yMax="494">
      <contour>
        <pt x="504" y="479" on="1"/>
        <pt x="437" y="0" on="1"/>
        <pt x="367" y="-63" on="0"/>
        <pt x="336" y="-125" on="1"/>
        <pt x="314" y="-168" on="0"/>
        <pt x="359" y="-195" on="0"/>
        <pt x="416" y="-176" on="1"/>
        <pt x="421" y="-194" on="1"/>
        <pt x="336" y="-226" on="0"/>
        <pt x="276" y="-176" on="0"/>
        <pt x="304" y="-120" on="1"/>
        <pt x="335" y="-59" on="0"/>
        <pt x="411" y="0" on="1"/>
        <pt x="406" y="0" on="1"/>
        <pt x="419" y="118" on="1"/>
        <pt x="365" y="57" on="0"/>
        <pt x="235" y="-12" on="0"/>
        <pt x="181" y="-12" on="1"/>
        <pt x="93" y="-12" on="0"/>
        <pt x="43" y="106" on="0"/>
        <pt x="65" y="244" on="1"/>
        <pt x="89" y="396" on="0"/>
        <pt x="188" y="494" on="0"/>
        <pt x="313" y="494" on="1"/>
        <pt x="397" y="494" on="0"/>
      </contour>
      <contour>
        <pt x="419" y="156" on="1"/>
        <pt x="460" y="453" on="1"/>
        <pt x="346" y="459" on="0"/>
        <pt x="321" y="459" on="1"/>
        <pt x="206" y="459" on="0"/>
        <pt x="126" y="377" on="0"/>
        <pt x="105" y="239" on="1"/>
        <pt x="85" y="122" on="0"/>
        <pt x="118" y="24" on="0"/>
        <pt x="185" y="24" on="1"/>
        <pt x="235" y="24" on="0"/>
        <pt x="360" y="93" on="0"/>
      </contour>
    </TTGlyph>
    <TTGlyph name="approxequal" xMin="64" yMin="148" xMax="527" yMax="437">
      <contour>
        <pt x="119" y="338" on="1"/>
        <pt x="91" y="341" on="1"/>
        <pt x="96" y="394" on="0"/>
        <pt x="143" y="437" on="0"/>
        <pt x="183" y="437" on="1"/>
        <pt x="225" y="437" on="0"/>
        <pt x="391" y="373" on="0"/>
        <pt x="434" y="372" on="1"/>
        <pt x="462" y="372" on="0"/>
        <pt x="492" y="397" on="0"/>
        <pt x="498" y="433" on="1"/>
        <pt x="527" y="430" on="1"/>
        <pt x="522" y="381" on="0"/>
        <pt x="478" y="338" on="0"/>
        <pt x="384" y="338" on="0"/>
        <pt x="220" y="403" on="0"/>
        <pt x="184" y="403" on="1"/>
        <pt x="156" y="403" on="0"/>
        <pt x="125" y="376" on="0"/>
      </contour>
      <contour>
        <pt x="93" y="148" on="1"/>
        <pt x="64" y="150" on="1"/>
        <pt x="73" y="248" on="0"/>
        <pt x="156" y="246" on="1"/>
        <pt x="198" y="246" on="0"/>
        <pt x="364" y="182" on="0"/>
        <pt x="407" y="181" on="1"/>
        <pt x="435" y="181" on="0"/>
        <pt x="465" y="206" on="0"/>
        <pt x="471" y="242" on="1"/>
        <pt x="500" y="240" on="1"/>
        <pt x="495" y="191" on="0"/>
        <pt x="451" y="148" on="0"/>
        <pt x="405" y="148" on="1"/>
        <pt x="358" y="148" on="0"/>
        <pt x="193" y="212" on="0"/>
        <pt x="157" y="213" on="1"/>
        <pt x="129" y="213" on="0"/>
        <pt x="99" y="186" on="0"/>
      </contour>
    </TTGlyph>
    <TTGlyph name="aring" xMin="65" yMin="-12" xMax="504" yMax="732">
      <contour>
        <pt x="328" y="536" on="1"/>
        <pt x="284" y="536" on="0"/>
        <pt x="233" y="594" on="0"/>
        <pt x="238" y="636" on="1"/>
        <pt x="243" y="676" on="0"/>
        <pt x="302" y="732" on="0"/>
        <pt x="388" y="732" on="0"/>
        <pt x="440" y="674" on="0"/>
        <pt x="435" y="632" on="1"/>
        <pt x="430" y="593" on="0"/>
        <pt x="371" y="536" on="0"/>
      </contour>
      <contour>
        <pt x="266" y="632" on="1"/>
        <pt x="262" y="602" on="0"/>
        <pt x="298" y="562" on="0"/>
        <pt x="329" y="562" on="1"/>
        <pt x="359" y="562" on="0"/>
        <pt x="404" y="605" on="0"/>
        <pt x="407" y="636" on="1"/>
        <pt x="411" y="665" on="0"/>
        <pt x="377" y="706" on="0"/>
        <pt x="313" y="706" on="0"/>
        <pt x="269" y="663" on="0"/>
      </contour>
      <contour>
        <pt x="437" y="0" on="1"/>
        <pt x="406" y="0" on="1"/>
        <pt x="419" y="118" on="1"/>
        <pt x="365" y="57" on="0"/>
        <pt x="235" y="-12" on="0"/>
        <pt x="181" y="-12" on="1"/>
        <pt x="93" y="-12" on="0"/>
        <pt x="43" y="106" on="0"/>
        <pt x="65" y="244" on="1"/>
        <pt x="89" y="396" on="0"/>
        <pt x="188" y="494" on="0"/>
        <pt x="313" y="494" on="1"/>
        <pt x="397" y="494" on="0"/>
        <pt x="504" y="479" on="1"/>
      </contour>
      <contour>
        <pt x="419" y="156" on="1"/>
        <pt x="460" y="453" on="1"/>
        <pt x="346" y="459" on="0"/>
        <pt x="321" y="459" on="1"/>
        <pt x="206" y="459" on="0"/>
        <pt x="126" y="377" on="0"/>
        <pt x="105" y="239" on="1"/>
        <pt x="85" y="122" on="0"/>
        <pt x="118" y="24" on="0"/>
        <pt x="185" y="24" on="1"/>
        <pt x="235" y="24" on="0"/>
        <pt x="360" y="93" on="0"/>
      </contour>
    </TTGlyph>
    <TTGlyph name="asciicircum" xMin="49" yMin="367" xMax="391" yMax="582">
      <contour>
        <pt x="391" y="380" on="1"/>
        <pt x="371" y="367" on="1"/>
        <pt x="250" y="546" on="1"/>
        <pt x="242" y="546" on="1"/>
        <pt x="68" y="367" on="1"/>
        <pt x="49" y="381" on="1"/>
        <pt x="233" y="582" on="1"/>
        <pt x="263" y="582" on="1"/>
      </contour>
    </TTGlyph>
    <TTGlyph name="asciitilde" xMin="76" yMin="236" xMax="452" yMax="335">
      <contour>
        <pt x="100" y="236" on="1"/>
        <pt x="76" y="239" on="1"/>
        <pt x="80" y="288" on="0"/>
        <pt x="126" y="337" on="0"/>
        <pt x="162" y="335" on="1"/>
        <pt x="205" y="332" on="0"/>
        <pt x="324" y="271" on="0"/>
        <pt x="362" y="269" on="1"/>
        <pt x="392" y="267" on="0"/>
        <pt x="423" y="296" on="0"/>
        <pt x="428" y="331" on="1"/>
        <pt x="452" y="328" on="1"/>
        <pt x="448" y="282" on="0"/>
        <pt x="401" y="233" on="0"/>
        <pt x="366" y="236" on="1"/>
        <pt x="314" y="239" on="0"/>
        <pt x="198" y="300" on="0"/>
        <pt x="166" y="302" on="1"/>
        <pt x="109" y="308" on="0"/>
      </contour>
    </TTGlyph>
    <TTGlyph name="asterisk" xMin="101" yMin="389" xMax="421" yMax="690">
      <contour>
        <pt x="267" y="534" on="1"/>
        <pt x="346" y="405" on="1"/>
        <pt x="320" y="389" on="1"/>
        <pt x="255" y="513" on="1"/>
        <pt x="155" y="390" on="1"/>
        <pt x="132" y="409" on="1"/>
        <pt x="246" y="535" on="1"/>
        <pt x="264" y="690" on="1"/>
        <pt x="294" y="690" on="1"/>
      </contour>
      <contour>
        <pt x="232" y="550" on="1"/>
        <pt x="229" y="537" on="1"/>
        <pt x="222" y="528" on="1"/>
        <pt x="101" y="565" on="1"/>
        <pt x="113" y="594" on="1"/>
      </contour>
      <contour>
        <pt x="421" y="563" on="1"/>
        <pt x="290" y="528" on="1"/>
        <pt x="285" y="537" on="1"/>
        <pt x="286" y="550" on="1"/>
        <pt x="414" y="593" on="1"/>
      </contour>
    </TTGlyph>
    <TTGlyph name="at" xMin="57" yMin="-12" xMax="672" yMax="621">
      <contour>
        <pt x="123" y="586" on="1"/>
        <pt x="126" y="615" on="1"/>
        <pt x="243" y="619" on="0"/>
        <pt x="421" y="621" on="1"/>
        <pt x="471" y="621" on="0"/>
        <pt x="537" y="617" on="0"/>
        <pt x="597" y="604" on="0"/>
        <pt x="632" y="586" on="0"/>
        <pt x="660" y="550" on="0"/>
        <pt x="671" y="507" on="0"/>
        <pt x="673" y="437" on="0"/>
        <pt x="666" y="359" on="0"/>
        <pt x="659" y="303" on="1"/>
        <pt x="633" y="114" on="0"/>
        <pt x="569" y="-11" on="0"/>
        <pt x="483" y="-11" on="1"/>
        <pt x="386" y="-11" on="0"/>
        <pt x="403" y="98" on="1"/>
        <pt x="405" y="112" on="1"/>
        <pt x="297" y="-12" on="0"/>
        <pt x="178" y="-12" on="1"/>
        <pt x="132" y="-12" on="0"/>
        <pt x="75" y="26" on="0"/>
        <pt x="57" y="97" on="0"/>
        <pt x="58" y="173" on="0"/>
        <pt x="67" y="224" on="1"/>
        <pt x="91" y="357" on="0"/>
        <pt x="189" y="444" on="0"/>
        <pt x="314" y="444" on="1"/>
        <pt x="383" y="444" on="0"/>
        <pt x="491" y="429" on="1"/>
        <pt x="441" y="90" on="1"/>
        <pt x="436" y="55" on="0"/>
        <pt x="457" y="24" on="0"/>
        <pt x="486" y="24" on="1"/>
        <pt x="549" y="24" on="0"/>
        <pt x="597" y="129" on="0"/>
        <pt x="622" y="307" on="1"/>
        <pt x="629" y="360" on="0"/>
        <pt x="637" y="431" on="0"/>
        <pt x="634" y="495" on="0"/>
        <pt x="628" y="531" on="0"/>
        <pt x="602" y="562" on="0"/>
        <pt x="575" y="575" on="0"/>
        <pt x="519" y="584" on="0"/>
        <pt x="467" y="586" on="0"/>
        <pt x="421" y="586" on="1"/>
      </contour>
      <contour>
        <pt x="411" y="155" on="1"/>
        <pt x="447" y="404" on="1"/>
        <pt x="373" y="409" on="0"/>
        <pt x="325" y="409" on="1"/>
        <pt x="208" y="409" on="0"/>
        <pt x="127" y="338" on="0"/>
        <pt x="106" y="219" on="1"/>
        <pt x="97" y="160" on="0"/>
        <pt x="95" y="73" on="0"/>
        <pt x="138" y="23" on="0"/>
        <pt x="184" y="23" on="1"/>
        <pt x="295" y="23" on="0"/>
      </contour>
    </TTGlyph>
    <TTGlyph name="atilde" xMin="65" yMin="-12" xMax="504" yMax="688">
      <contour>
        <pt x="469" y="684" on="1"/>
        <pt x="492" y="682" on="1"/>
        <pt x="488" y="636" on="0"/>
        <pt x="442" y="588" on="0"/>
        <pt x="406" y="591" on="1"/>
        <pt x="369" y="594" on="0"/>
        <pt x="293" y="654" on="0"/>
        <pt x="273" y="656" on="1"/>
        <pt x="216" y="662" on="0"/>
        <pt x="205" y="591" on="1"/>
        <pt x="182" y="594" on="1"/>
        <pt x="187" y="643" on="0"/>
        <pt x="234" y="691" on="0"/>
        <pt x="269" y="688" on="1"/>
        <pt x="300" y="685" on="0"/>
        <pt x="375" y="626" on="0"/>
        <pt x="402" y="623" on="1"/>
        <pt x="433" y="621" on="0"/>
        <pt x="464" y="650" on="0"/>
      </contour>
      <contour>
        <pt x="437" y="0" on="1"/>
        <pt x="406" y="0" on="1"/>
        <pt x="419" y="118" on="1"/>
        <pt x="365" y="57" on="0"/>
        <pt x="235" y="-12" on="0"/>
        <pt x="181" y="-12" on="1"/>
        <pt x="93" y="-12" on="0"/>
        <pt x="43" y="106" on="0"/>
        <pt x="65" y="244" on="1"/>
        <pt x="89" y="396" on="0"/>
        <pt x="188" y="494" on="0"/>
        <pt x="313" y="494" on="1"/>
        <pt x="397" y="494" on="0"/>
        <pt x="504" y="479" on="1"/>
      </contour>
      <contour>
        <pt x="419" y="156" on="1"/>
        <pt x="460" y="453" on="1"/>
        <pt x="346" y="459" on="0"/>
        <pt x="321" y="459" on="1"/>
        <pt x="206" y="459" on="0"/>
        <pt x="126" y="377" on="0"/>
        <pt x="105" y="239" on="1"/>
        <pt x="85" y="122" on="0"/>
        <pt x="118" y="24" on="0"/>
        <pt x="185" y="24" on="1"/>
        <pt x="235" y="24" on="0"/>
        <pt x="360" y="93" on="0"/>
      </contour>
    </TTGlyph>
    <TTGlyph name="b" xMin="48" yMin="-12" xMax="487" yMax="700">
      <contour>
        <pt x="130" y="366" on="1"/>
        <pt x="268" y="494" on="0"/>
        <pt x="364" y="494" on="1"/>
        <pt x="449" y="494" on="0"/>
        <pt x="508" y="381" on="0"/>
        <pt x="487" y="238" on="1"/>
        <pt x="473" y="133" on="0"/>
        <pt x="418" y="25" on="0"/>
        <pt x="334" y="-12" on="0"/>
        <pt x="258" y="-12" on="1"/>
        <pt x="166" y="-12" on="0"/>
        <pt x="48" y="20" on="1"/>
        <pt x="144" y="700" on="1"/>
        <pt x="183" y="700" on="1"/>
        <pt x="154" y="499" on="1"/>
        <pt x="142" y="420" on="0"/>
      </contour>
      <contour>
        <pt x="132" y="335" on="1"/>
        <pt x="91" y="41" on="1"/>
        <pt x="171" y="23" on="0"/>
        <pt x="247" y="23" on="1"/>
        <pt x="353" y="23" on="0"/>
        <pt x="428" y="108" on="0"/>
        <pt x="446" y="243" on="1"/>
        <pt x="463" y="367" on="0"/>
        <pt x="426" y="458" on="0"/>
        <pt x="356" y="458" on="1"/>
        <pt x="313" y="458" on="0"/>
        <pt x="207" y="398" on="0"/>
      </contour>
    </TTGlyph>
    <TTGlyph name="backslash" xMin="86" yMin="-61" xMax="410" yMax="690">
      <contour>
        <pt x="410" y="-61" on="1"/>
        <pt x="375" y="-61" on="1"/>
        <pt x="86" y="690" on="1"/>
        <pt x="121" y="690" on="1"/>
      </contour>
    </TTGlyph>
    <TTGlyph name="bar" xMin="37" yMin="-169" xMax="203" yMax="781">
      <contour>
        <pt x="70" y="-169" on="1"/>
        <pt x="37" y="-169" on="1"/>
        <pt x="170" y="781" on="1"/>
        <pt x="203" y="781" on="1"/>
      </contour>
    </TTGlyph>
    <TTGlyph name="braceleft" xMin="54" yMin="-165" xMax="322" yMax="768">
      <contour>
        <pt x="322" y="768" on="1"/>
        <pt x="320" y="741" on="1"/>
        <pt x="264" y="741" on="0"/>
        <pt x="211" y="691" on="0"/>
        <pt x="204" y="637" on="1"/>
        <pt x="177" y="439" on="1"/>
        <pt x="168" y="379" on="0"/>
        <pt x="132" y="339" on="0"/>
        <pt x="81" y="328" on="1"/>
        <pt x="128" y="311" on="0"/>
        <pt x="156" y="269" on="0"/>
        <pt x="149" y="218" on="1"/>
        <pt x="114" y="-37" on="1"/>
        <pt x="106" y="-90" on="0"/>
        <pt x="143" y="-138" on="0"/>
        <pt x="199" y="-138" on="1"/>
        <pt x="196" y="-165" on="1"/>
        <pt x="122" y="-166" on="0"/>
        <pt x="65" y="-104" on="0"/>
        <pt x="75" y="-36" on="1"/>
        <pt x="112" y="232" on="1"/>
        <pt x="117" y="268" on="0"/>
        <pt x="95" y="294" on="0"/>
        <pt x="60" y="308" on="1"/>
        <pt x="56" y="309" on="0"/>
        <pt x="54" y="310" on="1"/>
        <pt x="60" y="348" on="1"/>
        <pt x="106" y="362" on="0"/>
        <pt x="116" y="372" on="1"/>
        <pt x="130" y="386" on="0"/>
        <pt x="136" y="431" on="1"/>
        <pt x="166" y="641" on="1"/>
        <pt x="175" y="710" on="0"/>
        <pt x="247" y="770" on="0"/>
      </contour>
    </TTGlyph>
    <TTGlyph name="braceright" xMin="-20" yMin="-165" xMax="258" yMax="768">
      <contour>
        <pt x="110" y="741" on="1"/>
        <pt x="112" y="768" on="1"/>
        <pt x="186" y="770" on="0"/>
        <pt x="243" y="707" on="0"/>
        <pt x="234" y="639" on="1"/>
        <pt x="204" y="428" on="1"/>
        <pt x="198" y="382" on="0"/>
        <pt x="216" y="359" on="0"/>
        <pt x="258" y="346" on="1"/>
        <pt x="252" y="308" on="1"/>
        <pt x="226" y="299" on="0"/>
        <pt x="211" y="292" on="0"/>
        <pt x="184" y="274" on="0"/>
        <pt x="175" y="250" on="0"/>
        <pt x="172" y="229" on="1"/>
        <pt x="135" y="-38" on="1"/>
        <pt x="125" y="-107" on="0"/>
        <pt x="55" y="-166" on="0"/>
        <pt x="-20" y="-165" on="1"/>
        <pt x="-18" y="-138" on="1"/>
        <pt x="38" y="-138" on="0"/>
        <pt x="89" y="-88" on="0"/>
        <pt x="96" y="-35" on="1"/>
        <pt x="133" y="221" on="1"/>
        <pt x="140" y="273" on="0"/>
        <pt x="176" y="311" on="0"/>
        <pt x="230" y="328" on="1"/>
        <pt x="184" y="339" on="0"/>
        <pt x="158" y="382" on="0"/>
        <pt x="167" y="442" on="1"/>
        <pt x="196" y="640" on="1"/>
        <pt x="203" y="694" on="0"/>
        <pt x="167" y="741" on="0"/>
      </contour>
    </TTGlyph>
    <TTGlyph name="bracketleft" xMin="42" yMin="-165" xMax="333" yMax="768">
      <contour>
        <pt x="329" y="737" on="1"/>
        <pt x="216" y="737" on="1"/>
        <pt x="201" y="737" on="0"/>
        <pt x="199" y="723" on="1"/>
        <pt x="81" y="-122" on="1"/>
        <pt x="80" y="-134" on="0"/>
        <pt x="90" y="-134" on="1"/>
        <pt x="207" y="-134" on="1"/>
        <pt x="202" y="-165" on="1"/>
        <pt x="74" y="-165" on="1"/>
        <pt x="58" y="-165" on="0"/>
        <pt x="39" y="-144" on="0"/>
        <pt x="42" y="-127" on="1"/>
        <pt x="162" y="732" on="1"/>
        <pt x="169" y="768" on="0"/>
        <pt x="203" y="768" on="1"/>
        <pt x="333" y="768" on="1"/>
      </contour>
    </TTGlyph>
    <TTGlyph name="bracketright" xMin="-19" yMin="-165" xMax="273" yMax="768">
      <contour>
        <pt x="112" y="768" on="1"/>
        <pt x="240" y="768" on="1"/>
        <pt x="256" y="768" on="0"/>
        <pt x="275" y="746" on="0"/>
        <pt x="273" y="730" on="1"/>
        <pt x="152" y="-129" on="1"/>
        <pt x="150" y="-145" on="0"/>
        <pt x="128" y="-165" on="0"/>
        <pt x="112" y="-165" on="1"/>
        <pt x="-19" y="-165" on="1"/>
        <pt x="-15" y="-134" on="1"/>
        <pt x="99" y="-134" on="1"/>
        <pt x="113" y="-134" on="0"/>
        <pt x="115" y="-120" on="1"/>
        <pt x="234" y="725" on="1"/>
        <pt x="236" y="737" on="0"/>
        <pt x="224" y="737" on="1"/>
        <pt x="108" y="737" on="1"/>
      </contour>
    </TTGlyph>
    <TTGlyph name="breve" xMin="104" yMin="566" xMax="383" yMax="691">
      <contour>
        <pt x="359" y="691" on="1"/>
        <pt x="383" y="684" on="1"/>
        <pt x="376" y="629" on="0"/>
        <pt x="294" y="566" on="0"/>
        <pt x="230" y="566" on="1"/>
        <pt x="164" y="566" on="0"/>
        <pt x="95" y="631" on="0"/>
        <pt x="104" y="686" on="1"/>
        <pt x="129" y="688" on="1"/>
        <pt x="122" y="646" on="0"/>
        <pt x="177" y="600" on="0"/>
        <pt x="230" y="600" on="1"/>
        <pt x="284" y="600" on="0"/>
        <pt x="354" y="649" on="0"/>
      </contour>
    </TTGlyph>
    <TTGlyph name="brevecy" xMin="104" yMin="566" xMax="383" yMax="689">
      <contour>
        <pt x="349" y="689" on="1"/>
        <pt x="383" y="689" on="1"/>
        <pt x="376" y="633" on="0"/>
        <pt x="293" y="566" on="0"/>
        <pt x="230" y="566" on="1"/>
        <pt x="164" y="566" on="0"/>
        <pt x="95" y="633" on="0"/>
        <pt x="104" y="689" on="1"/>
        <pt x="139" y="689" on="1"/>
        <pt x="132" y="641" on="0"/>
        <pt x="182" y="592" on="0"/>
        <pt x="280" y="592" on="0"/>
        <pt x="343" y="642" on="0"/>
      </contour>
    </TTGlyph>
    <TTGlyph name="brokenbar" xMin="37" yMin="-169" xMax="203" yMax="781">
      <contour>
        <pt x="147" y="381" on="1"/>
        <pt x="114" y="381" on="1"/>
        <pt x="170" y="781" on="1"/>
        <pt x="203" y="781" on="1"/>
      </contour>
      <contour>
        <pt x="70" y="-169" on="1"/>
        <pt x="37" y="-169" on="1"/>
        <pt x="93" y="231" on="1"/>
        <pt x="126" y="231" on="1"/>
      </contour>
    </TTGlyph>
    <TTGlyph name="bullet" xMin="98" yMin="193" xMax="250" yMax="342">
      <contour>
        <pt x="179" y="342" on="1"/>
        <pt x="189" y="342" on="1"/>
        <pt x="227" y="342" on="0"/>
        <pt x="254" y="310" on="0"/>
        <pt x="250" y="272" on="1"/>
        <pt x="248" y="258" on="1"/>
        <pt x="243" y="219" on="0"/>
        <pt x="210" y="193" on="0"/>
        <pt x="170" y="193" on="1"/>
        <pt x="160" y="193" on="1"/>
        <pt x="120" y="193" on="0"/>
        <pt x="92" y="224" on="0"/>
        <pt x="98" y="264" on="1"/>
        <pt x="100" y="278" on="1"/>
        <pt x="105" y="317" on="0"/>
        <pt x="138" y="342" on="0"/>
      </contour>
    </TTGlyph>
    <TTGlyph name="c" xMin="57" yMin="-12" xMax="451" yMax="494">
      <contour>
        <pt x="395" y="35" on="1"/>
        <pt x="399" y="7" on="1"/>
        <pt x="325" y="-12" on="0"/>
        <pt x="247" y="-12" on="1"/>
        <pt x="124" y="-12" on="0"/>
        <pt x="38" y="104" on="0"/>
        <pt x="57" y="243" on="1"/>
        <pt x="76" y="381" on="0"/>
        <pt x="192" y="494" on="0"/>
        <pt x="312" y="494" on="1"/>
        <pt x="395" y="494" on="0"/>
        <pt x="451" y="475" on="1"/>
        <pt x="443" y="448" on="1"/>
        <pt x="398" y="458" on="0"/>
        <pt x="319" y="458" on="1"/>
        <pt x="213" y="458" on="0"/>
        <pt x="116" y="365" on="0"/>
        <pt x="99" y="239" on="1"/>
        <pt x="81" y="114" on="0"/>
        <pt x="149" y="24" on="0"/>
        <pt x="253" y="24" on="1"/>
        <pt x="338" y="24" on="0"/>
      </contour>
    </TTGlyph>
    <TTGlyph name="cacute" xMin="57" yMin="-12" xMax="451" yMax="719">
      <contour>
        <pt x="447" y="688" on="1"/>
        <pt x="266" y="552" on="1"/>
        <pt x="249" y="573" on="1"/>
        <pt x="424" y="719" on="1"/>
      </contour>
      <contour>
        <pt x="395" y="35" on="1"/>
        <pt x="399" y="7" on="1"/>
        <pt x="325" y="-12" on="0"/>
        <pt x="247" y="-12" on="1"/>
        <pt x="124" y="-12" on="0"/>
        <pt x="38" y="104" on="0"/>
        <pt x="57" y="243" on="1"/>
        <pt x="76" y="381" on="0"/>
        <pt x="192" y="494" on="0"/>
        <pt x="312" y="494" on="1"/>
        <pt x="395" y="494" on="0"/>
        <pt x="451" y="475" on="1"/>
        <pt x="443" y="448" on="1"/>
        <pt x="398" y="458" on="0"/>
        <pt x="319" y="458" on="1"/>
        <pt x="213" y="458" on="0"/>
        <pt x="116" y="365" on="0"/>
        <pt x="99" y="239" on="1"/>
        <pt x="81" y="114" on="0"/>
        <pt x="149" y="24" on="0"/>
        <pt x="253" y="24" on="1"/>
        <pt x="338" y="24" on="0"/>
      </contour>
    </TTGlyph>
    <TTGlyph name="caron" xMin="112" yMin="571" xMax="414" yMax="709">
      <contour>
        <pt x="414" y="691" on="1"/>
        <pt x="261" y="571" on="1"/>
        <pt x="232" y="571" on="1"/>
        <pt x="112" y="692" on="1"/>
        <pt x="130" y="709" on="1"/>
        <pt x="245" y="608" on="1"/>
        <pt x="253" y="608" on="1"/>
        <pt x="399" y="709" on="1"/>
      </contour>
    </TTGlyph>
    <TTGlyph name="ccaron" xMin="57" yMin="-12" xMax="471" yMax="706">
      <contour>
        <pt x="471" y="687" on="1"/>
        <pt x="318" y="568" on="1"/>
        <pt x="289" y="568" on="1"/>
        <pt x="169" y="689" on="1"/>
        <pt x="186" y="706" on="1"/>
        <pt x="302" y="604" on="1"/>
        <pt x="310" y="604" on="1"/>
        <pt x="456" y="706" on="1"/>
      </contour>
      <contour>
        <pt x="395" y="35" on="1"/>
        <pt x="399" y="7" on="1"/>
        <pt x="325" y="-12" on="0"/>
        <pt x="247" y="-12" on="1"/>
        <pt x="124" y="-12" on="0"/>
        <pt x="38" y="104" on="0"/>
        <pt x="57" y="243" on="1"/>
        <pt x="76" y="381" on="0"/>
        <pt x="192" y="494" on="0"/>
        <pt x="312" y="494" on="1"/>
        <pt x="395" y="494" on="0"/>
        <pt x="451" y="475" on="1"/>
        <pt x="443" y="448" on="1"/>
        <pt x="398" y="458" on="0"/>
        <pt x="319" y="458" on="1"/>
        <pt x="213" y="458" on="0"/>
        <pt x="116" y="365" on="0"/>
        <pt x="99" y="239" on="1"/>
        <pt x="81" y="114" on="0"/>
        <pt x="149" y="24" on="0"/>
        <pt x="253" y="24" on="1"/>
        <pt x="338" y="24" on="0"/>
      </contour>
    </TTGlyph>
    <TTGlyph name="ccedilla" xMin="57" yMin="-234" xMax="451" yMax="494">
      <contour>
        <pt x="395" y="35" on="1"/>
        <pt x="399" y="7" on="1"/>
        <pt x="325" y="-12" on="0"/>
        <pt x="247" y="-12" on="1"/>
        <pt x="124" y="-12" on="0"/>
        <pt x="38" y="104" on="0"/>
        <pt x="57" y="243" on="1"/>
        <pt x="76" y="381" on="0"/>
        <pt x="192" y="494" on="0"/>
        <pt x="312" y="494" on="1"/>
        <pt x="395" y="494" on="0"/>
        <pt x="451" y="475" on="1"/>
        <pt x="443" y="448" on="1"/>
        <pt x="398" y="458" on="0"/>
        <pt x="319" y="458" on="1"/>
        <pt x="213" y="458" on="0"/>
        <pt x="116" y="365" on="0"/>
        <pt x="99" y="239" on="1"/>
        <pt x="81" y="114" on="0"/>
        <pt x="149" y="24" on="0"/>
        <pt x="253" y="24" on="1"/>
        <pt x="338" y="24" on="0"/>
      </contour>
      <contour>
        <pt x="195" y="-80" on="1"/>
        <pt x="200" y="-59" on="1"/>
        <pt x="245" y="-56" on="0"/>
        <pt x="285" y="-88" on="0"/>
        <pt x="279" y="-127" on="1"/>
        <pt x="271" y="-181" on="0"/>
        <pt x="182" y="-242" on="0"/>
        <pt x="118" y="-234" on="1"/>
        <pt x="126" y="-211" on="1"/>
        <pt x="174" y="-213" on="0"/>
        <pt x="241" y="-162" on="0"/>
        <pt x="247" y="-124" on="1"/>
        <pt x="251" y="-99" on="0"/>
        <pt x="229" y="-81" on="0"/>
      </contour>
    </TTGlyph>
    <TTGlyph name="cdotaccent" xMin="57" yMin="-12" xMax="451" yMax="680">
      <contour>
        <pt x="310" y="680" on="1"/>
        <pt x="325" y="680" on="1"/>
        <pt x="340" y="680" on="0"/>
        <pt x="339" y="664" on="1"/>
        <pt x="331" y="605" on="1"/>
        <pt x="328" y="589" on="0"/>
        <pt x="313" y="589" on="1"/>
        <pt x="300" y="589" on="1"/>
        <pt x="283" y="589" on="0"/>
        <pt x="285" y="605" on="1"/>
        <pt x="293" y="664" on="1"/>
        <pt x="294" y="680" on="0"/>
      </contour>
      <contour>
        <pt x="395" y="35" on="1"/>
        <pt x="399" y="7" on="1"/>
        <pt x="325" y="-12" on="0"/>
        <pt x="247" y="-12" on="1"/>
        <pt x="124" y="-12" on="0"/>
        <pt x="38" y="104" on="0"/>
        <pt x="57" y="243" on="1"/>
        <pt x="76" y="381" on="0"/>
        <pt x="192" y="494" on="0"/>
        <pt x="312" y="494" on="1"/>
        <pt x="395" y="494" on="0"/>
        <pt x="451" y="475" on="1"/>
        <pt x="443" y="448" on="1"/>
        <pt x="398" y="458" on="0"/>
        <pt x="319" y="458" on="1"/>
        <pt x="213" y="458" on="0"/>
        <pt x="116" y="365" on="0"/>
        <pt x="99" y="239" on="1"/>
        <pt x="81" y="114" on="0"/>
        <pt x="149" y="24" on="0"/>
        <pt x="253" y="24" on="1"/>
        <pt x="338" y="24" on="0"/>
      </contour>
    </TTGlyph>
    <TTGlyph name="cedilla" xMin="-24" yMin="-222" xMax="136" yMax="-47">
      <contour>
        <pt x="53" y="-68" on="1"/>
        <pt x="57" y="-47" on="1"/>
        <pt x="149" y="-41" on="0"/>
        <pt x="136" y="-115" on="1"/>
        <pt x="128" y="-169" on="0"/>
        <pt x="39" y="-230" on="0"/>
        <pt x="-24" y="-222" on="1"/>
        <pt x="-16" y="-199" on="1"/>
        <pt x="31" y="-201" on="0"/>
        <pt x="99" y="-150" on="0"/>
        <pt x="105" y="-112" on="1"/>
        <pt x="109" y="-87" on="0"/>
        <pt x="87" y="-69" on="0"/>
      </contour>
    </TTGlyph>
    <TTGlyph name="cent" xMin="74" yMin="0" xMax="467" yMax="690">
      <contour>
        <pt x="467" y="583" on="1"/>
        <pt x="459" y="556" on="1"/>
        <pt x="419" y="565" on="0"/>
        <pt x="348" y="567" on="1"/>
        <pt x="256" y="132" on="1"/>
        <pt x="268" y="132" on="1"/>
        <pt x="340" y="132" on="0"/>
        <pt x="411" y="144" on="1"/>
        <pt x="415" y="115" on="1"/>
        <pt x="334" y="96" on="0"/>
        <pt x="263" y="96" on="1"/>
        <pt x="247" y="97" on="1"/>
        <pt x="226" y="0" on="1"/>
        <pt x="199" y="0" on="1"/>
        <pt x="221" y="98" on="1"/>
        <pt x="124" y="107" on="0"/>
        <pt x="56" y="225" on="0"/>
        <pt x="74" y="352" on="1"/>
        <pt x="93" y="490" on="0"/>
        <pt x="208" y="602" on="0"/>
        <pt x="328" y="602" on="1"/>
        <pt x="329" y="602" on="1"/>
        <pt x="348" y="690" on="1"/>
        <pt x="375" y="690" on="1"/>
        <pt x="356" y="602" on="1"/>
        <pt x="427" y="598" on="0"/>
      </contour>
      <contour>
        <pt x="229" y="134" on="1"/>
        <pt x="321" y="567" on="1"/>
        <pt x="223" y="564" on="0"/>
        <pt x="132" y="471" on="0"/>
        <pt x="115" y="349" on="1"/>
        <pt x="99" y="236" on="0"/>
        <pt x="151" y="141" on="0"/>
      </contour>
    </TTGlyph>
    <TTGlyph name="circumflex" xMin="99" yMin="567" xMax="401" yMax="706">
      <contour>
        <pt x="401" y="585" on="1"/>
        <pt x="384" y="568" on="1"/>
        <pt x="268" y="669" on="1"/>
        <pt x="259" y="669" on="1"/>
        <pt x="113" y="567" on="1"/>
        <pt x="99" y="587" on="1"/>
        <pt x="250" y="706" on="1"/>
        <pt x="279" y="706" on="1"/>
      </contour>
    </TTGlyph>
    <TTGlyph name="colon" xMin="67" yMin="0" xMax="172" yMax="433">
      <contour>
        <pt x="142" y="433" on="1"/>
        <pt x="158" y="433" on="1"/>
        <pt x="175" y="433" on="0"/>
        <pt x="172" y="414" on="1"/>
        <pt x="164" y="354" on="1"/>
        <pt x="161" y="338" on="0"/>
        <pt x="146" y="338" on="1"/>
        <pt x="131" y="338" on="1"/>
        <pt x="112" y="338" on="0"/>
        <pt x="115" y="357" on="1"/>
        <pt x="124" y="416" on="1"/>
        <pt x="126" y="433" on="0"/>
      </contour>
      <contour>
        <pt x="94" y="94" on="1"/>
        <pt x="109" y="94" on="1"/>
        <pt x="127" y="94" on="0"/>
        <pt x="124" y="76" on="1"/>
        <pt x="116" y="16" on="1"/>
        <pt x="113" y="0" on="0"/>
        <pt x="97" y="0" on="1"/>
        <pt x="83" y="0" on="1"/>
        <pt x="64" y="0" on="0"/>
        <pt x="67" y="18" on="1"/>
        <pt x="76" y="78" on="1"/>
        <pt x="77" y="94" on="0"/>
      </contour>
    </TTGlyph>
    <TTGlyph name="comma" xMin="27" yMin="-120" xMax="101" yMax="94">
      <contour>
        <pt x="72" y="94" on="1"/>
        <pt x="88" y="94" on="1"/>
        <pt x="102" y="94" on="0"/>
        <pt x="101" y="78" on="1"/>
        <pt x="91" y="12" on="1"/>
        <pt x="84" y="-45" on="0"/>
        <pt x="49" y="-120" on="1"/>
        <pt x="27" y="-113" on="1"/>
        <pt x="45" y="-53" on="0"/>
        <pt x="54" y="1" on="1"/>
        <pt x="41" y="1" on="0"/>
        <pt x="43" y="16" on="1"/>
        <pt x="52" y="78" on="1"/>
        <pt x="54" y="87" on="0"/>
        <pt x="62" y="94" on="0"/>
      </contour>
    </TTGlyph>
    <TTGlyph name="copyright" xMin="76" yMin="-12" xMax="790" yMax="702">
      <contour>
        <pt x="479" y="702" on="1"/>
        <pt x="633" y="702" on="0"/>
        <pt x="811" y="503" on="0"/>
        <pt x="790" y="343" on="1"/>
        <pt x="769" y="185" on="0"/>
        <pt x="552" y="-12" on="0"/>
        <pt x="387" y="-12" on="1"/>
        <pt x="233" y="-12" on="0"/>
        <pt x="55" y="188" on="0"/>
        <pt x="76" y="347" on="1"/>
        <pt x="96" y="504" on="0"/>
        <pt x="313" y="702" on="0"/>
      </contour>
      <contour>
        <pt x="479" y="677" on="1"/>
        <pt x="325" y="677" on="0"/>
        <pt x="122" y="491" on="0"/>
        <pt x="102" y="343" on="1"/>
        <pt x="83" y="195" on="0"/>
        <pt x="246" y="13" on="0"/>
        <pt x="386" y="13" on="1"/>
        <pt x="540" y="13" on="0"/>
        <pt x="744" y="199" on="0"/>
        <pt x="763" y="347" on="1"/>
        <pt x="782" y="494" on="0"/>
        <pt x="621" y="677" on="0"/>
      </contour>
      <contour>
        <pt x="550" y="156" on="1"/>
        <pt x="553" y="132" on="1"/>
        <pt x="494" y="119" on="0"/>
        <pt x="411" y="119" on="1"/>
        <pt x="300" y="119" on="0"/>
        <pt x="226" y="222" on="0"/>
        <pt x="243" y="350" on="1"/>
        <pt x="261" y="476" on="0"/>
        <pt x="362" y="577" on="0"/>
        <pt x="470" y="577" on="1"/>
        <pt x="545" y="577" on="0"/>
        <pt x="601" y="564" on="1"/>
        <pt x="594" y="542" on="1"/>
        <pt x="541" y="547" on="0"/>
        <pt x="472" y="547" on="1"/>
        <pt x="378" y="547" on="0"/>
        <pt x="293" y="461" on="0"/>
        <pt x="276" y="345" on="1"/>
        <pt x="261" y="235" on="0"/>
        <pt x="319" y="149" on="0"/>
        <pt x="407" y="149" on="1"/>
        <pt x="502" y="149" on="0"/>
      </contour>
    </TTGlyph>
    <TTGlyph name="currency" xMin="65" yMin="124" xMax="546" yMax="585">
      <contour>
        <pt x="546" y="550" on="1"/>
        <pt x="468" y="482" on="1"/>
        <pt x="508" y="428" on="0"/>
        <pt x="499" y="350" on="1"/>
        <pt x="490" y="271" on="0"/>
        <pt x="441" y="221" on="1"/>
        <pt x="510" y="142" on="1"/>
        <pt x="489" y="124" on="1"/>
        <pt x="421" y="203" on="1"/>
        <pt x="365" y="160" on="0"/>
        <pt x="289" y="160" on="1"/>
        <pt x="211" y="160" on="0"/>
        <pt x="162" y="207" on="1"/>
        <pt x="84" y="138" on="1"/>
        <pt x="65" y="159" on="1"/>
        <pt x="144" y="228" on="1"/>
        <pt x="107" y="281" on="0"/>
        <pt x="116" y="354" on="1"/>
        <pt x="125" y="437" on="0"/>
        <pt x="177" y="487" on="1"/>
        <pt x="108" y="566" on="1"/>
        <pt x="129" y="585" on="1"/>
        <pt x="198" y="506" on="1"/>
        <pt x="253" y="545" on="0"/>
        <pt x="327" y="545" on="1"/>
        <pt x="403" y="545" on="0"/>
        <pt x="449" y="502" on="1"/>
        <pt x="528" y="572" on="1"/>
      </contour>
      <contour>
        <pt x="283" y="187" on="1"/>
        <pt x="360" y="185" on="0"/>
        <pt x="463" y="278" on="0"/>
        <pt x="471" y="355" on="1"/>
        <pt x="478" y="426" on="0"/>
        <pt x="402" y="518" on="0"/>
        <pt x="327" y="518" on="1"/>
        <pt x="249" y="518" on="0"/>
        <pt x="152" y="425" on="0"/>
        <pt x="144" y="350" on="1"/>
        <pt x="136" y="279" on="0"/>
        <pt x="213" y="189" on="0"/>
      </contour>
    </TTGlyph>
    <TTGlyph name="d" xMin="63" yMin="-12" xMax="534" yMax="700">
      <contour>
        <pt x="534" y="700" on="1"/>
        <pt x="435" y="0" on="1"/>
        <pt x="404" y="0" on="1"/>
        <pt x="416" y="119" on="1"/>
        <pt x="297" y="-12" on="0"/>
        <pt x="170" y="-12" on="1"/>
        <pt x="90" y="-12" on="0"/>
        <pt x="44" y="110" on="0"/>
        <pt x="63" y="244" on="1"/>
        <pt x="85" y="395" on="0"/>
        <pt x="186" y="494" on="0"/>
        <pt x="310" y="494" on="1"/>
        <pt x="384" y="494" on="0"/>
        <pt x="467" y="483" on="1"/>
        <pt x="468" y="521" on="0"/>
        <pt x="476" y="576" on="1"/>
        <pt x="494" y="700" on="1"/>
      </contour>
      <contour>
        <pt x="418" y="156" on="1"/>
        <pt x="459" y="454" on="1"/>
        <pt x="362" y="459" on="0"/>
        <pt x="320" y="459" on="1"/>
        <pt x="204" y="459" on="0"/>
        <pt x="123" y="377" on="0"/>
        <pt x="103" y="239" on="1"/>
        <pt x="85" y="128" on="0"/>
        <pt x="115" y="24" on="0"/>
        <pt x="178" y="24" on="1"/>
        <pt x="291" y="24" on="0"/>
      </contour>
    </TTGlyph>
    <TTGlyph name="dagger" xMin="70" yMin="-110" xMax="409" yMax="691">
      <contour>
        <pt x="178" y="-110" on="1"/>
        <pt x="140" y="-110" on="1"/>
        <pt x="220" y="456" on="1"/>
        <pt x="223" y="477" on="1"/>
        <pt x="251" y="691" on="1"/>
        <pt x="291" y="691" on="1"/>
        <pt x="259" y="477" on="1"/>
        <pt x="256" y="456" on="1"/>
      </contour>
      <contour>
        <pt x="409" y="482" on="1"/>
        <pt x="404" y="443" on="1"/>
        <pt x="271" y="449" on="1"/>
        <pt x="276" y="482" on="1"/>
      </contour>
      <contour>
        <pt x="70" y="443" on="1"/>
        <pt x="75" y="482" on="1"/>
        <pt x="208" y="482" on="1"/>
        <pt x="204" y="449" on="1"/>
      </contour>
    </TTGlyph>
    <TTGlyph name="daggerdbl" xMin="41" yMin="-110" xMax="429" yMax="691">
      <contour>
        <pt x="280" y="481" on="1"/>
        <pt x="226" y="102" on="1"/>
        <pt x="199" y="-110" on="1"/>
        <pt x="159" y="-110" on="1"/>
        <pt x="191" y="102" on="1"/>
        <pt x="244" y="481" on="1"/>
        <pt x="271" y="691" on="1"/>
        <pt x="311" y="691" on="1"/>
      </contour>
      <contour>
        <pt x="224" y="449" on="1"/>
        <pt x="89" y="443" on="1"/>
        <pt x="95" y="482" on="1"/>
        <pt x="228" y="482" on="1"/>
      </contour>
      <contour>
        <pt x="423" y="443" on="1"/>
        <pt x="291" y="449" on="1"/>
        <pt x="296" y="482" on="1"/>
        <pt x="429" y="482" on="1"/>
      </contour>
      <contour>
        <pt x="179" y="132" on="1"/>
        <pt x="174" y="99" on="1"/>
        <pt x="41" y="99" on="1"/>
        <pt x="46" y="138" on="1"/>
      </contour>
      <contour>
        <pt x="375" y="99" on="1"/>
        <pt x="242" y="99" on="1"/>
        <pt x="246" y="132" on="1"/>
        <pt x="380" y="138" on="1"/>
      </contour>
    </TTGlyph>
    <TTGlyph name="dcaron" xMin="63" yMin="-12" xMax="660" yMax="700">
      <contour>
        <pt x="634" y="700" on="1"/>
        <pt x="648" y="700" on="1"/>
        <pt x="661" y="700" on="0"/>
        <pt x="660" y="686" on="1"/>
        <pt x="651" y="627" on="1"/>
        <pt x="643" y="573" on="0"/>
        <pt x="613" y="509" on="1"/>
        <pt x="593" y="515" on="1"/>
        <pt x="609" y="567" on="0"/>
        <pt x="617" y="617" on="1"/>
        <pt x="605" y="617" on="0"/>
        <pt x="607" y="630" on="1"/>
        <pt x="616" y="686" on="1"/>
        <pt x="618" y="694" on="0"/>
        <pt x="624" y="700" on="0"/>
      </contour>
      <contour>
        <pt x="494" y="700" on="1"/>
        <pt x="534" y="700" on="1"/>
        <pt x="435" y="0" on="1"/>
        <pt x="404" y="0" on="1"/>
        <pt x="416" y="119" on="1"/>
        <pt x="297" y="-12" on="0"/>
        <pt x="170" y="-12" on="1"/>
        <pt x="90" y="-12" on="0"/>
        <pt x="44" y="110" on="0"/>
        <pt x="63" y="244" on="1"/>
        <pt x="85" y="395" on="0"/>
        <pt x="186" y="494" on="0"/>
        <pt x="310" y="494" on="1"/>
        <pt x="384" y="494" on="0"/>
        <pt x="467" y="483" on="1"/>
        <pt x="468" y="521" on="0"/>
        <pt x="476" y="576" on="1"/>
      </contour>
      <contour>
        <pt x="418" y="156" on="1"/>
        <pt x="459" y="454" on="1"/>
        <pt x="362" y="459" on="0"/>
        <pt x="320" y="459" on="1"/>
        <pt x="204" y="459" on="0"/>
        <pt x="123" y="377" on="0"/>
        <pt x="103" y="239" on="1"/>
        <pt x="85" y="128" on="0"/>
        <pt x="115" y="24" on="0"/>
        <pt x="178" y="24" on="1"/>
        <pt x="291" y="24" on="0"/>
      </contour>
    </TTGlyph>
    <TTGlyph name="dcroat" xMin="63" yMin="-12" xMax="598" yMax="700">
      <contour>
        <pt x="594" y="586" on="1"/>
        <pt x="518" y="586" on="1"/>
        <pt x="435" y="0" on="1"/>
        <pt x="404" y="0" on="1"/>
        <pt x="416" y="119" on="1"/>
        <pt x="297" y="-12" on="0"/>
        <pt x="170" y="-12" on="1"/>
        <pt x="90" y="-12" on="0"/>
        <pt x="44" y="110" on="0"/>
        <pt x="63" y="244" on="1"/>
        <pt x="85" y="395" on="0"/>
        <pt x="186" y="494" on="0"/>
        <pt x="310" y="494" on="1"/>
        <pt x="384" y="494" on="0"/>
        <pt x="467" y="483" on="1"/>
        <pt x="468" y="521" on="0"/>
        <pt x="476" y="576" on="1"/>
        <pt x="478" y="586" on="1"/>
        <pt x="311" y="586" on="1"/>
        <pt x="315" y="614" on="1"/>
        <pt x="482" y="614" on="1"/>
        <pt x="494" y="700" on="1"/>
        <pt x="534" y="700" on="1"/>
        <pt x="522" y="614" on="1"/>
        <pt x="598" y="614" on="1"/>
      </contour>
      <contour>
        <pt x="418" y="156" on="1"/>
        <pt x="459" y="454" on="1"/>
        <pt x="362" y="459" on="0"/>
        <pt x="320" y="459" on="1"/>
        <pt x="204" y="459" on="0"/>
        <pt x="123" y="377" on="0"/>
        <pt x="103" y="239" on="1"/>
        <pt x="85" y="128" on="0"/>
        <pt x="115" y="24" on="0"/>
        <pt x="178" y="24" on="1"/>
        <pt x="291" y="24" on="0"/>
      </contour>
    </TTGlyph>
    <TTGlyph name="degree" xMin="103" yMin="453" xMax="352" yMax="702">
      <contour>
        <pt x="239" y="702" on="1"/>
        <pt x="294" y="702" on="0"/>
        <pt x="358" y="631" on="0"/>
        <pt x="352" y="576" on="1"/>
        <pt x="346" y="520" on="0"/>
        <pt x="268" y="453" on="0"/>
        <pt x="215" y="453" on="1"/>
        <pt x="158" y="453" on="0"/>
        <pt x="98" y="528" on="0"/>
        <pt x="103" y="581" on="1"/>
        <pt x="109" y="635" on="0"/>
        <pt x="186" y="702" on="0"/>
      </contour>
      <contour>
        <pt x="281" y="675" on="0"/>
        <pt x="195" y="675" on="0"/>
        <pt x="136" y="620" on="0"/>
        <pt x="132" y="577" on="1"/>
        <pt x="128" y="535" on="0"/>
        <pt x="174" y="480" on="0"/>
        <pt x="258" y="480" on="0"/>
        <pt x="319" y="534" on="0"/>
        <pt x="323" y="579" on="1"/>
        <pt x="328" y="621" on="0"/>
      </contour>
    </TTGlyph>
</ttFont>
